<!DOCTYPE svg PUBLIC "-//W3C//DTD SVG 20010904//EN" "http://www.w3.org/TR/2001/REC-SVG-20010904/DTD/svg10.dtd">
<svg version="1.0" xmlns="http://www.w3.org/2000/svg" width="466px" height="348px" viewBox="0 0 4660 3480" preserveAspectRatio="xMidYMid meet">
<g id="layer101" fill="#2c2c2c" stroke="none">
 <path d="M666 3271 c-10 -11 -16 -51 -21 -136 -10 -199 -14 -2818 -4 -2837 5 -9 24 -21 41 -27 22 -7 509 -12 1485 -15 1352 -4 1454 -4 1473 12 20 17 20 27 21 740 1 801 -3 753 66 691 41 -36 68 -35 68 3 l-1 26 116 6 c63 4 220 6 349 5 232 -2 235 -2 253 21 17 20 18 51 20 384 2 198 3 391 3 428 0 56 -4 71 -22 89 -22 22 -28 23 -305 24 -156 1 -340 2 -409 3 l-126 2 -7 283 c-5 194 -11 286 -19 294 -9 8 -394 12 -1489 16 -1361 4 -1478 4 -1492 -12z m2167 -71 l757 0 0 -1434 -1 -1434 -1437 5 c-790 2 -1437 5 -1437 6 0 1 1 647 3 1435 l2 1432 678 -5 c372 -2 1018 -5 1435 -5z m1580 -599 l37 -1 0 -389 -1 -388 -127 -4 c-70 -2 -217 -2 -327 1 l-200 5 0 25 c0 36 -29 37 -74 1 -21 -17 -43 -31 -49 -31 -11 0 -17 614 -7 718 l7 67 352 -2 c193 -1 368 -2 389 -2z"/>
 <path d="M1952 2858 c-18 -18 -15 -36 13 -66 81 -87 105 -124 105 -158 0 -31 -3 -34 -29 -34 -16 0 -34 7 -41 15 -16 19 -49 19 -56 1 -9 -23 18 -68 56 -94 57 -39 121 -18 157 51 21 41 8 79 -49 149 l-51 60 34 -8 c19 -4 48 -8 64 -8 43 -1 46 34 6 74 -28 29 -34 30 -113 30 -52 0 -89 -5 -96 -12z"/>
 <path d="M1062 2838 c-18 -18 -15 -39 12 -79 24 -34 24 -36 5 -47 -27 -17 -24 -33 16 -76 29 -32 39 -37 62 -32 16 4 44 8 63 9 54 3 52 35 -7 98 -43 47 -44 50 -17 34 34 -19 61 -15 71 10 10 27 -54 85 -93 85 -18 0 -36 -5 -40 -11 -5 -8 -10 -6 -16 5 -11 19 -39 21 -56 4z"/>
 <path d="M2437 2832 c-24 -26 -22 -31 23 -77 46 -47 46 -61 -6 -100 -35 -27 -43 -52 -22 -73 21 -21 41 -13 86 31 l43 42 37 -43 c38 -43 59 -51 80 -30 21 21 13 41 -30 80 l-43 38 43 37 c46 42 55 76 22 93 -16 9 -26 4 -58 -25 -22 -19 -47 -35 -55 -35 -9 0 -31 18 -48 40 -36 45 -48 48 -72 22z"/>
 <path d="M2892 2818 c-19 -19 -15 -33 22 -81 24 -32 29 -43 17 -40 -10 2 -23 -3 -30 -11 -11 -13 -8 -22 19 -56 33 -41 73 -53 97 -29 8 8 17 8 30 0 14 -7 23 -7 31 1 21 21 13 48 -30 95 -41 45 -42 46 -11 28 26 -15 34 -16 47 -6 25 21 19 46 -19 80 -38 33 -55 37 -87 20 -14 -8 -23 -8 -31 0 -14 14 -40 14 -55 -1z"/>
 <path d="M1540 2803 c-13 -10 -46 -29 -74 -43 -71 -35 -69 -49 14 -84 19 -9 47 -25 62 -37 26 -22 28 -22 47 -5 11 10 17 24 14 32 -4 11 18 14 112 16 98 3 120 6 129 20 8 13 6 22 -8 37 -17 19 -31 21 -127 21 -93 0 -108 2 -103 15 7 17 -12 45 -30 45 -6 0 -22 -8 -36 -17z"/>
 <path d="M1962 2057 c-35 -38 -24 -87 20 -87 17 0 17 -2 2 -25 -10 -15 -14 -34 -10 -49 4 -18 1 -25 -14 -29 -29 -8 -25 -41 11 -82 40 -45 72 -46 98 -4 20 32 19 40 -6 97 -8 19 -12 36 -10 39 7 6 31 -41 47 -92 14 -44 46 -85 67 -85 30 0 36 45 15 111 -11 35 -25 83 -31 105 -15 57 -88 124 -134 124 -22 0 -41 -8 -55 -23z m88 -68 c0 -5 -7 -9 -15 -9 -9 0 -12 6 -9 15 6 15 24 11 24 -6z"/>
 <path d="M2440 1985 c-16 -19 -5 -62 20 -75 11 -6 25 -20 31 -31 9 -18 6 -26 -26 -59 -44 -45 -46 -83 -4 -88 20 -2 32 5 53 32 34 45 54 45 89 1 33 -41 70 -47 88 -13 10 19 7 26 -30 60 -22 21 -41 43 -41 47 0 5 15 21 33 36 43 36 50 51 37 75 -16 29 -42 25 -80 -15 -19 -19 -39 -35 -45 -35 -6 0 -29 18 -50 40 -42 43 -56 48 -75 25z"/>
 <path d="M1072 1978 c-20 -20 -14 -42 22 -84 31 -36 32 -40 14 -40 -11 1 -25 -7 -32 -17 -9 -15 -4 -24 32 -58 34 -32 48 -39 65 -34 12 4 33 6 46 6 28 -1 51 15 51 36 0 7 -21 36 -46 63 -47 50 -49 64 -6 34 58 -40 72 26 17 75 -40 35 -52 37 -82 16 -19 -13 -22 -13 -27 0 -7 18 -37 20 -54 3z"/>
 <path d="M2902 1968 c-22 -22 -13 -46 36 -96 41 -42 44 -47 20 -38 -20 7 -31 7 -40 -2 -28 -28 56 -111 93 -91 10 5 33 8 51 7 53 -5 50 30 -9 93 -28 31 -40 49 -28 44 11 -5 33 -9 50 -9 43 -1 44 27 2 69 -38 38 -76 45 -98 19 -11 -14 -13 -14 -21 0 -11 19 -39 21 -56 4z"/>
 <path d="M1527 1935 c-15 -14 -38 -25 -51 -25 -31 0 -59 -23 -55 -45 4 -20 10 -24 96 -61 50 -21 66 -24 77 -15 8 7 12 19 9 26 -4 12 18 15 119 17 118 3 123 4 126 25 2 15 -5 27 -23 39 -22 14 -42 16 -123 11 l-98 -5 1 27 c0 36 -40 40 -78 6z"/>
 <path d="M1987 1153 c-12 -11 -8 -40 8 -53 11 -10 15 -35 15 -110 0 -89 -2 -98 -20 -103 -30 -8 -24 -23 17 -52 41 -27 75 -32 90 -12 6 6 11 70 12 140 1 75 6 135 13 146 22 36 4 51 -65 51 -35 0 -67 -3 -70 -7z"/>
 <path d="M1065 1130 c-16 -18 -17 -23 -4 -47 8 -14 27 -40 44 -56 24 -24 25 -28 7 -18 -51 27 -58 -30 -8 -78 31 -31 36 -32 87 -25 54 7 79 18 79 36 0 5 -21 31 -46 58 -49 53 -50 57 -10 39 20 -9 29 -9 41 1 23 19 18 39 -17 72 -29 27 -37 29 -75 24 -23 -3 -45 -1 -48 4 -10 16 -30 12 -50 -10z"/>
 <path d="M1525 1085 c-16 -13 -40 -24 -51 -25 -12 0 -32 -9 -45 -19 -23 -18 -23 -20 -7 -38 10 -10 34 -25 55 -32 21 -8 44 -23 51 -33 9 -12 23 -18 40 -16 22 2 27 8 27 30 l-1 28 112 -3 c82 -1 115 2 127 12 22 17 21 27 -2 50 -17 17 -33 19 -135 17 -95 -2 -114 0 -105 11 9 9 8 17 -1 28 -17 21 -30 19 -65 -10z"/>
 <path d="M232 2852 c-16 -12 -23 -26 -20 -43 3 -23 6 -24 61 -21 54 3 57 2 57 -20 0 -31 -10 -45 -43 -57 -33 -13 -35 -34 -4 -58 13 -10 26 -26 30 -36 9 -25 -19 -34 -43 -12 -26 23 -54 16 -58 -16 -2 -20 5 -32 32 -52 48 -37 94 -36 135 2 32 30 39 59 20 89 -9 14 -8 25 5 50 27 53 21 107 -17 148 -28 31 -41 37 -83 41 -37 3 -55 -1 -72 -15z"/>
 <path d="M212 1998 c-17 -17 -15 -28 13 -57 92 -98 125 -152 111 -186 -8 -21 -43 -19 -73 5 -29 23 -53 13 -53 -22 0 -50 51 -88 118 -88 33 0 45 6 71 35 51 58 38 116 -48 209 l-26 29 30 -8 c17 -5 44 -9 60 -9 25 -1 30 3 33 25 2 14 -6 37 -18 52 -21 26 -25 27 -114 27 -58 0 -96 -4 -104 -12z"/>
 <path d="M252 1148 c-18 -18 -14 -46 8 -58 18 -10 20 -21 20 -104 0 -87 -2 -94 -21 -99 -34 -9 -18 -40 34 -66 44 -23 49 -23 64 -8 14 13 16 37 14 145 -2 91 1 136 10 150 10 17 10 23 0 36 -16 19 -111 22 -129 4z"/>
 </g>
<g id="layer102" fill="#fefefe" stroke="none">
 <path d="M0 1740 l0 -1740 2330 0 2330 0 0 1740 0 1740 -2330 0 -2330 0 0 -1740z m3637 1516 c1 0 5 -131 9 -289 4 -158 11 -290 15 -293 5 -2 194 -7 420 -9 282 -3 415 -7 423 -15 12 -12 12 2 8 -505 -1 -198 -6 -366 -10 -372 -6 -10 -94 -14 -363 -16 -195 -2 -361 -7 -368 -11 -9 -6 -10 -11 -2 -19 13 -13 15 -37 3 -37 -5 0 -24 14 -42 30 -36 32 -61 38 -78 18 -7 -9 -10 -259 -11 -733 -1 -538 -5 -721 -13 -726 -7 -4 -667 -6 -1467 -3 -1113 4 -1461 8 -1481 17 l-25 12 2 1375 c3 1228 6 1560 19 1581 3 6 2955 0 2961 -5z m-3260 -440 c28 -33 31 -92 7 -138 -13 -25 -14 -36 -5 -50 29 -46 -7 -98 -68 -98 -39 1 -81 29 -81 54 0 20 24 21 40 1 17 -20 47 -19 58 3 12 23 5 42 -26 70 -21 18 -24 25 -13 29 28 11 61 52 61 76 0 37 -23 50 -75 43 -35 -6 -45 -4 -45 6 0 29 24 40 74 35 38 -3 55 -11 73 -31z m47 -858 c13 -38 4 -43 -49 -28 -62 17 -80 2 -43 -37 77 -82 96 -147 57 -197 -47 -59 -180 -14 -157 54 2 7 13 4 30 -9 32 -25 55 -27 80 -4 24 22 23 54 -4 91 -72 97 -101 132 -109 132 -5 0 -9 7 -9 15 0 13 15 15 97 13 96 -3 98 -3 107 -30z m-54 -832 c0 -8 -5 -18 -11 -21 -7 -5 -10 -55 -8 -141 1 -74 -1 -137 -4 -140 -6 -7 -87 26 -87 36 0 3 9 11 20 18 18 11 20 23 20 107 0 82 -3 98 -20 115 -32 32 -24 40 35 40 41 0 55 -4 55 -14z"/>
 <path d="M710 3215 c-12 -14 -15 -2874 -3 -2886 5 -4 655 -10 1445 -12 1125 -4 1439 -2 1447 7 17 20 15 2870 -1 2884 -20 16 -2874 23 -2888 7z m1440 -385 c21 -21 27 -50 9 -50 -5 0 -30 5 -55 11 -71 18 -75 1 -16 -70 60 -72 71 -109 45 -153 -40 -68 -146 -56 -168 20 -8 26 15 31 35 7 15 -18 61 -20 78 -3 23 23 14 76 -21 115 -55 64 -97 121 -97 132 0 7 32 11 85 11 72 0 88 -3 105 -20z m-1040 -15 c9 -11 16 -13 24 -5 17 17 68 11 93 -12 44 -41 19 -65 -32 -32 -20 13 -28 14 -39 5 -12 -10 -6 -20 35 -60 56 -54 64 -82 22 -81 -16 1 -40 -2 -54 -5 -21 -5 -32 -1 -53 21 -41 45 -28 77 15 38 11 -10 25 -14 36 -10 16 6 13 12 -18 41 -46 41 -69 74 -69 97 0 22 23 23 40 3z m1394 -25 c17 -23 38 -40 49 -40 11 0 37 16 59 35 21 20 43 33 48 30 20 -12 9 -38 -32 -76 l-43 -39 43 -40 c23 -22 42 -47 42 -55 0 -28 -33 -15 -67 25 -19 22 -39 40 -45 40 -6 0 -26 -18 -45 -40 -37 -43 -73 -53 -73 -21 0 10 11 26 25 35 14 9 32 28 41 42 17 25 16 26 -26 69 -28 28 -41 49 -37 59 10 26 30 18 61 -24z m433 9 c8 -8 21 -7 47 2 32 12 39 11 63 -8 30 -21 44 -63 21 -63 -7 0 -22 7 -32 15 -22 17 -62 20 -71 5 -3 -5 7 -16 23 -24 38 -20 82 -72 82 -97 0 -17 -3 -18 -21 -8 -15 8 -24 8 -32 0 -22 -22 -62 -12 -86 20 -28 38 -19 49 21 26 23 -13 34 -15 42 -7 8 9 2 19 -23 40 -37 31 -71 78 -71 98 0 15 22 16 37 1z m-1347 -12 c0 -7 -5 -18 -12 -25 -18 -18 3 -21 132 -24 99 -3 115 -5 118 -20 3 -16 -10 -18 -125 -20 -96 -2 -127 -6 -125 -15 1 -7 3 -18 5 -24 5 -23 -21 -19 -57 10 -20 16 -50 33 -67 36 -38 9 -37 21 4 34 19 7 49 23 67 36 37 28 60 32 60 12z m495 -758 c22 -19 39 -46 46 -72 6 -23 20 -72 32 -110 16 -52 18 -70 9 -79 -17 -17 -36 5 -56 69 -18 53 -50 103 -67 103 -18 0 -21 -29 -5 -62 29 -63 21 -108 -19 -108 -24 0 -65 42 -65 66 0 21 10 17 32 -11 11 -14 24 -22 29 -19 6 4 6 10 1 17 -6 7 -15 30 -22 53 -15 51 -1 84 36 84 33 0 42 27 16 52 -21 21 -42 17 -42 -8 0 -8 -10 -14 -25 -14 -19 0 -25 5 -25 23 0 56 69 65 125 16z m428 -89 c19 -22 40 -40 48 -40 9 0 30 16 49 35 35 37 54 43 66 23 5 -7 -9 -26 -34 -49 -23 -20 -42 -43 -42 -50 0 -7 19 -30 42 -49 25 -22 39 -41 34 -48 -13 -21 -36 -13 -67 23 -17 19 -39 35 -49 35 -10 0 -32 -16 -49 -35 -17 -19 -37 -35 -46 -35 -26 0 -16 35 20 70 19 19 35 38 35 42 0 4 -16 25 -35 47 -36 40 -45 71 -21 71 8 0 30 -18 49 -40z m-1394 16 c10 -12 16 -12 41 2 27 16 30 16 57 -4 25 -19 48 -72 26 -62 -4 2 -20 10 -35 17 -15 8 -34 11 -44 7 -14 -5 -8 -16 35 -61 58 -61 65 -86 24 -84 -16 0 -37 -2 -49 -6 -23 -7 -84 37 -84 61 0 19 19 18 41 -2 10 -9 26 -14 35 -10 13 5 6 17 -35 62 -50 54 -65 94 -37 94 7 0 19 -6 25 -14z m1831 -11 c15 -14 18 -14 30 0 19 22 58 18 85 -10 42 -41 26 -59 -29 -34 -14 7 -32 9 -42 5 -14 -5 -8 -16 35 -61 56 -60 67 -89 27 -79 -14 3 -32 1 -42 -4 -22 -12 -55 1 -73 30 -17 27 -7 34 25 19 18 -8 30 -9 37 -2 7 7 -6 27 -41 61 -29 28 -52 60 -52 71 0 23 17 25 40 4z m-1360 -19 c0 -8 -5 -18 -10 -21 -28 -17 9 -24 99 -19 108 7 151 1 151 -21 0 -12 -21 -15 -123 -15 -68 0 -127 -3 -130 -6 -3 -4 -1 -16 4 -27 13 -23 9 -23 -84 15 -65 26 -72 48 -18 59 18 4 43 16 54 28 25 24 57 28 57 7z m520 -799 c0 -7 -4 -17 -10 -23 -5 -5 -11 -69 -12 -142 -1 -126 -2 -132 -22 -132 -12 0 -33 8 -48 18 -26 17 -26 18 -8 30 18 11 20 24 20 117 0 85 -3 107 -15 111 -8 4 -15 12 -15 20 0 10 15 14 55 14 38 0 55 -4 55 -13z m-995 -7 c3 -5 25 -7 48 -4 34 5 46 2 65 -16 22 -21 30 -50 12 -50 -5 0 -20 5 -34 11 -14 7 -32 9 -42 5 -14 -5 -8 -16 35 -61 28 -29 51 -58 51 -63 0 -5 -25 -12 -57 -16 -49 -6 -59 -4 -80 15 -12 13 -23 31 -23 41 0 18 1 18 29 2 17 -10 36 -14 47 -10 15 6 13 11 -19 37 -47 39 -80 86 -73 104 6 17 32 20 41 5z m465 -38 c0 -4 -5 -13 -11 -19 -24 -24 4 -30 120 -28 94 2 123 0 132 -11 7 -8 9 -18 5 -22 -4 -4 -63 -6 -131 -4 -123 2 -152 -5 -126 -31 16 -16 14 -27 -7 -27 -9 0 -22 8 -28 18 -7 10 -30 24 -53 32 -23 7 -45 18 -48 23 -7 12 16 27 42 27 11 0 34 12 50 25 30 25 55 32 55 17z"/>
 <path d="M3657 2611 c-9 -10 -12 -123 -12 -410 0 -370 1 -396 18 -399 9 -2 35 10 56 27 21 17 44 31 50 31 14 0 14 -23 0 -37 -7 -7 -7 -13 -1 -17 6 -3 159 -7 341 -7 247 -1 335 2 346 11 12 10 15 71 15 405 0 253 -4 396 -10 400 -5 3 -186 7 -401 8 -325 2 -393 0 -402 -12z"/>
 </g>

</svg>