<!DOCTYPE svg PUBLIC "-//W3C//DTD SVG 20010904//EN" "http://www.w3.org/TR/2001/REC-SVG-20010904/DTD/svg10.dtd">
<svg version="1.0" xmlns="http://www.w3.org/2000/svg" width="1592px" height="824px" viewBox="0 0 15920 8240" preserveAspectRatio="xMidYMid meet">
<g id="layer101" fill="#060606" stroke="none">
 <path d="M0 4120 l0 -4120 7960 0 7960 0 0 4120 0 4120 -7960 0 -7960 0 0 -4120z"/>
 </g>
<g id="layer102" fill="#2e2e2e" stroke="none">
 <path d="M0 4120 l0 -4120 7960 0 7960 0 0 4120 0 4120 -7960 0 -7960 0 0 -4120z m8097 3969 c39 -19 43 -24 43 -58 0 -50 -25 -71 -92 -80 -44 -5 -54 -10 -56 -27 -3 -22 27 -40 78 -46 14 -2 29 -13 36 -28 31 -66 36 -79 31 -87 -4 -6 -34 -10 -68 -10 -52 -1 -66 3 -85 23 -25 24 -31 53 -14 70 7 7 7 21 1 40 -5 16 -12 64 -15 107 -5 65 -3 80 12 96 23 26 76 26 129 0z m-2886 -56 c49 -23 63 -68 29 -95 -12 -10 -34 -18 -49 -18 -40 0 -72 -11 -68 -23 2 -6 28 -16 58 -22 53 -10 54 -11 59 -50 3 -22 9 -46 14 -54 22 -35 -97 -44 -151 -12 -41 25 -49 53 -26 91 16 28 16 32 1 63 -19 39 -18 97 2 107 8 4 24 12 35 18 29 16 53 14 96 -5z m1457 -70 c46 -29 71 -65 72 -104 0 -20 -6 -42 -14 -48 -18 -15 -17 -50 1 -72 11 -13 11 -21 -3 -47 -13 -27 -21 -32 -52 -32 -50 0 -100 20 -106 43 -3 14 -1 17 12 12 34 -14 80 -14 86 1 5 12 -7 49 -32 97 -2 4 2 7 9 7 23 0 59 43 59 70 0 49 -33 62 -88 34 -18 -8 -36 -13 -42 -9 -18 11 -11 40 13 51 33 17 55 16 85 -3z m909 5 c4 -7 6 -46 4 -87 -3 -82 4 -94 52 -84 26 5 28 3 25 -18 -3 -21 -8 -24 -60 -26 l-57 -2 6 78 c4 52 2 85 -6 100 -18 33 16 70 36 39z m251 -4 c68 -33 94 -97 66 -161 -35 -80 -126 -77 -178 6 -14 22 -26 48 -26 56 0 32 37 72 106 114 0 1 15 -6 32 -15z m409 4 c4 -7 9 -49 9 -93 l2 -80 36 3 c27 2 36 -1 36 -12 0 -23 -30 -36 -57 -23 -16 7 -26 7 -37 -2 -23 -19 -27 0 -29 114 -2 93 0 105 15 105 9 0 20 -6 25 -12z m194 -9 c27 -19 32 -20 47 -5 23 20 68 11 50 -11 -6 -8 -11 -36 -9 -63 1 -26 -2 -56 -8 -67 -5 -10 -12 -26 -15 -35 -6 -21 -66 -33 -103 -21 -31 11 -41 36 -22 59 11 13 14 11 25 -15 13 -31 36 -39 62 -22 8 5 12 16 10 26 -3 19 -11 24 -72 52 -59 27 -65 44 -32 87 15 20 29 36 32 36 3 0 19 -9 35 -21z m209 11 c12 -7 12 -12 2 -22 -7 -7 -12 -38 -12 -74 0 -56 3 -63 26 -79 22 -14 31 -15 52 -6 24 12 25 13 19 97 -4 69 -2 87 10 91 26 10 35 -14 37 -99 l1 -83 39 0 39 0 1 84 c1 88 13 112 50 98 16 -6 16 -9 2 -29 -11 -15 -16 -45 -16 -95 0 -52 -4 -76 -16 -87 -18 -19 -17 -19 -65 -4 -30 9 -48 8 -78 -2 -29 -9 -43 -10 -60 0 -17 9 -26 9 -37 -1 -11 -9 -18 -8 -34 6 -14 13 -17 22 -10 29 13 13 13 143 0 151 -8 5 -7 11 1 21 13 16 28 18 49 4z m530 -94 c0 -62 4 -107 10 -111 8 -5 7 -11 0 -20 -6 -8 -10 -24 -8 -37 3 -21 7 -23 53 -20 50 3 50 3 30 -16 -38 -37 -63 -37 -99 1 l-32 34 -1 129 c-1 71 1 132 3 136 3 5 14 8 25 8 18 0 19 -8 19 -104z m406 14 l2 -85 36 3 c33 3 36 1 36 -22 0 -14 -3 -26 -7 -27 -5 0 -27 -3 -51 -5 -24 -3 -49 -1 -56 5 -8 7 -13 46 -13 116 l-1 106 26 -3 c27 -3 27 -4 28 -88z m1228 38 c-6 -10 30 -81 49 -97 13 -10 12 -15 -8 -37 -25 -27 -45 -25 -45 3 0 9 -10 47 -22 84 -12 38 -18 74 -14 85 7 18 9 17 26 -6 10 -13 16 -28 14 -32z m-6384 30 c16 -10 24 -10 40 -1 25 16 40 -5 16 -23 -13 -9 -16 -24 -14 -61 l3 -48 50 -6 c68 -8 85 -17 100 -52 31 -74 -32 -130 -142 -126 -87 2 -116 9 -104 22 14 18 17 255 3 269 -8 8 -7 15 6 24 21 16 18 16 42 2z m312 -64 c-4 -76 3 -89 48 -96 17 -2 25 -9 25 -23 0 -18 -7 -20 -70 -20 -58 0 -69 3 -65 15 8 24 6 133 -3 158 -7 18 -5 22 12 22 11 0 23 5 26 11 4 5 12 8 18 6 8 -2 11 -27 9 -73z m267 30 c45 -52 50 -77 21 -114 -11 -14 -20 -30 -20 -36 0 -6 -17 -16 -37 -23 -32 -10 -44 -10 -75 3 -25 11 -38 23 -38 35 0 10 -7 24 -15 31 -25 21 -17 55 26 104 30 34 48 46 69 46 21 0 39 -12 69 -46z m365 27 c11 -12 14 -21 7 -26 -6 -3 -11 -28 -11 -55 0 -39 4 -52 19 -60 34 -18 81 -12 101 13 20 24 19 25 36 -31 5 -17 33 -27 44 -16 15 16 22 54 10 54 -6 0 -31 14 -56 30 -34 24 -44 37 -44 58 0 40 30 55 69 36 27 -14 33 -13 56 2 39 26 51 7 53 -85 2 -77 2 -79 -29 -105 -37 -31 -72 -33 -117 -6 -38 23 -62 26 -62 7 0 -10 -18 -14 -69 -13 l-69 0 0 101 c0 55 2 103 5 108 8 13 40 7 57 -12z m423 3 c3 -8 1 -20 -6 -27 -15 -15 -14 -112 2 -125 33 -28 39 -19 40 59 0 42 -3 81 -7 88 -9 14 14 24 46 19 21 -3 23 -8 26 -79 2 -59 7 -80 21 -93 28 -26 40 -2 43 89 3 75 4 80 26 83 35 5 58 -6 44 -20 -7 -7 -12 -40 -12 -75 0 -78 -20 -123 -55 -123 -13 0 -27 5 -30 10 -7 12 -62 14 -69 2 -7 -12 -134 -13 -141 -1 -9 13 -9 185 0 199 10 16 65 12 72 -6z m573 8 c0 -4 -5 -13 -10 -18 -6 -6 -13 -69 -15 -140 -2 -71 -4 -132 -4 -136 -1 -12 -14 -10 -56 7 -30 13 -35 18 -24 31 13 15 17 173 5 193 -4 6 -4 16 0 22 3 6 1 15 -6 19 -25 15 2 30 56 30 30 0 54 -4 54 -8z m144 -14 c8 -32 8 -35 -10 -53 -15 -15 -18 -14 -40 6 l-24 23 22 23 c27 29 44 29 52 1z m849 15 c4 -3 0 -14 -9 -24 -10 -11 -14 -31 -12 -60 3 -43 4 -44 35 -41 35 3 76 -18 110 -57 30 -35 29 -45 -12 -86 -35 -35 -37 -35 -120 -35 l-85 0 10 26 c13 34 13 251 0 259 -6 4 -8 11 -5 16 7 10 78 12 88 2z m2045 1 c17 -3 33 -14 35 -23 3 -9 16 -32 28 -52 l22 -37 -32 -45 c-34 -51 -57 -62 -105 -53 -49 9 -80 48 -86 109 -5 50 -3 53 29 80 34 28 55 32 109 21z m1542 -2 c0 -4 -5 -13 -11 -19 -7 -7 -8 -19 -4 -30 10 -25 17 -61 19 -103 1 -41 -21 -51 -50 -23 -16 17 -16 18 -1 21 17 3 23 32 10 46 -4 3 -8 14 -9 24 -1 9 -6 34 -9 55 -7 36 -7 37 24 37 17 0 31 -4 31 -8z m-1077 -28 c6 -6 -23 -44 -35 -44 -5 0 -8 11 -8 25 0 18 5 25 18 25 10 0 21 -3 25 -6z m128 -15 c16 -11 29 -25 29 -32 0 -6 -13 2 -29 17 -41 39 -65 30 -58 -22 3 -20 8 -48 11 -62 5 -20 -1 -30 -25 -49 l-30 -24 -30 29 c-30 29 -37 44 -19 44 6 0 10 -6 10 -13 0 -15 37 -40 49 -33 5 3 6 39 4 80 -4 65 -2 75 14 79 34 9 45 7 74 -14z m342 -5 c10 -10 127 -11 133 -2 15 24 104 -4 104 -34 0 -4 -65 -8 -145 -8 -112 0 -145 3 -145 13 0 26 37 47 53 31z m877 -53 c0 -12 -20 -25 -27 -18 -7 7 6 27 18 27 5 0 9 -4 9 -9z m72 -3 c11 -31 -5 -97 -28 -119 -24 -23 -46 -20 -26 3 6 7 9 36 7 63 -2 28 -1 53 2 58 7 12 40 8 45 -5z m-724 -30 c7 -7 12 -16 12 -20 0 -4 -65 -8 -145 -8 -114 0 -145 3 -145 13 0 8 3 17 7 20 12 13 258 8 271 -5z m-530 -40 c-2 -17 -11 -24 -33 -26 l-30 -4 24 26 c30 32 43 33 39 4z m1033 -28 c31 -17 22 -30 -20 -30 -47 0 -62 16 -29 29 30 13 26 13 49 1z m135 -17 c-10 -10 -19 5 -10 18 6 11 8 11 12 0 2 -7 1 -15 -2 -18z m-26 -15 c0 -6 -6 -5 -15 2 -8 7 -15 14 -15 16 0 2 7 1 15 -2 8 -4 15 -11 15 -16z m-90 -69 c0 -19 -8 -34 -23 -43 -31 -21 -67 -10 -67 20 0 31 18 40 22 12 2 -13 10 -23 18 -23 11 0 15 10 14 36 -1 31 2 36 17 32 13 -4 19 -15 19 -34z m195 -47 c-18 -4 -45 15 -45 31 0 6 -8 20 -17 31 -10 11 4 2 30 -20 34 -27 43 -40 32 -42z m-1913 -404 c17 17 334 17 370 0 l27 -13 1 -457 0 -456 -27 -20 c-27 -19 -47 -20 -653 -20 -790 0 -740 1 -740 -17 0 -9 7 -18 16 -22 15 -6 39 -52 30 -60 -2 -2 -13 1 -24 8 -50 32 -49 50 -45 -643 2 -353 5 -655 8 -670 2 -16 3 -29 2 -30 -1 -2 -326 -5 -722 -8 l-719 -5 3 -47 c1 -26 -3 -55 -11 -67 -10 -16 -10 -25 -1 -40 7 -10 9 -21 6 -25 -8 -8 -7 -165 1 -173 10 -10 7 -81 -3 -88 -12 -7 -11 -64 0 -71 5 -3 3 -13 -3 -24 -9 -15 -9 -24 1 -44 10 -17 11 -29 4 -38 -13 -16 -13 -49 -1 -65 5 -7 6 -18 2 -24 -8 -14 -9 -217 0 -226 3 -3 3 -10 0 -15 -9 -14 -11 -299 -2 -304 11 -7 10 -72 -2 -79 -13 -8 -13 -52 0 -60 13 -8 14 -781 1 -789 -5 -3 -8 -17 -8 -31 0 -14 3 -28 8 -31 10 -6 12 -2057 2 -2067 -8 -9 -8 -141 1 -155 3 -6 3 -13 -2 -15 -11 -8 -7 -136 6 -149 8 -8 421 -12 1419 -13 774 -1 1413 -1 1418 1 6 3 9 47 7 115 -2 60 -1 117 2 125 8 20 10 1844 2 1851 -9 9 -7 238 1 247 11 11 13 75 2 81 -13 8 -12 532 1 540 6 3 10 17 10 30 0 13 -4 27 -10 30 -11 7 -14 198 -3 208 9 10 10 108 1 114 -5 2 -8 283 -8 624 0 478 3 624 13 639 10 17 9 22 -3 30 -9 6 -283 10 -702 10 -388 0 -689 4 -692 9 -3 5 0 13 7 18 11 8 1413 19 1419 11 1 -2 5 -135 8 -296 l5 -293 417 1 c291 0 418 -3 423 -10 4 -6 -1 -20 -11 -31 -17 -19 -30 -20 -426 -17 l-408 3 0 -171 c1 -94 -2 -187 -5 -207 -4 -19 -3 -37 3 -40 5 -4 7 -247 5 -620 -5 -711 -11 -667 87 -598 64 45 71 44 40 -6 l-20 -33 27 -6 c14 -4 1313 -4 2887 0 2499 6 2863 9 2876 22 13 13 15 76 14 457 0 243 -1 805 -2 1250 l-2 807 -410 -2 -411 -3 1 -723 c0 -645 -1 -725 -16 -746 -9 -15 -21 -23 -30 -19 -8 3 -21 0 -28 -6 -8 -7 -16 -8 -19 -4 -6 10 -99 9 -115 -1 -7 -4 -20 -5 -29 -2 -20 8 -1180 9 -1193 1 -5 -3 -11 -2 -14 3 -6 10 -223 8 -233 -2 -10 -10 -51 -7 -58 4 -3 6 -17 10 -30 10 -13 0 -27 -4 -30 -10 -8 -14 -972 -14 -980 0 -3 5 -25 7 -48 4 -37 -5 -46 -3 -70 22 l-28 28 3 288 3 288 -28 0 c-17 0 -38 -10 -54 -26 -34 -34 -67 -25 -34 9 11 13 21 25 21 28 0 2 -122 3 -270 1 -221 -2 -274 0 -291 11 -34 24 -2 45 66 42 31 -1 58 2 61 7 7 11 101 10 109 -1 7 -12 64 -11 71 1 3 4 54 8 115 8 105 0 121 4 99 26 -8 8 -6 15 5 24 12 10 15 10 15 -4 0 -17 56 -48 95 -52 20 -2 20 3 17 409 -2 309 0 418 9 435 10 17 10 25 1 34 -9 9 -12 92 -12 298 0 274 1 287 20 308 21 22 25 22 348 23 180 1 820 1 1422 0 989 -2 1097 -4 1113 -19 16 -14 17 -41 17 -335 l-1 -319 430 1 430 2 3 -133 c2 -73 3 -659 3 -1303 l0 -1170 -2900 -2 c-1595 -2 -2911 -5 -2924 -8 -22 -6 -22 -7 -7 -24 40 -44 0 -48 -42 -4 -15 17 -31 23 -49 21 l-26 -3 1 -1160 1 -1160 -22 -23 c-21 -23 -26 -23 -184 -21 -90 1 -166 0 -169 -4 -4 -4 -12 -3 -18 0 -6 4 -50 6 -99 4 -60 -2 -93 1 -103 10 -12 10 -20 10 -35 1 -15 -10 -152 -12 -569 -12 -303 1 -555 -2 -560 -5 -6 -4 -18 -4 -27 -1 -21 8 -643 9 -651 2 -9 -10 -250 -7 -256 3 -8 12 -127 11 -153 -1 -17 -9 -30 -8 -50 2 -62 31 -63 34 -63 276 0 121 3 224 6 227 4 4 7 40 8 82 1 53 -3 76 -12 80 -17 6 -61 -16 -86 -44 -18 -20 -46 -29 -46 -14 0 3 8 15 17 25 15 17 15 20 3 28 -9 6 -159 10 -341 10 -264 0 -329 3 -338 14 -19 23 49 27 373 20 317 -7 337 -4 302 35 -36 39 13 29 56 -12 10 -9 27 -17 38 -17 20 0 20 7 20 553 0 305 3 557 7 561 10 10 11 76 1 82 -9 6 -11 127 -2 137 9 8 8 233 -1 247 -4 6 -4 22 -1 36 5 18 2 24 -10 24 -20 0 -84 -38 -84 -50 0 -10 -31 -22 -38 -15 -3 3 10 21 28 40 18 19 30 38 26 42 -4 5 -172 6 -372 4 -325 -3 -364 -2 -364 12 0 9 5 19 11 22 6 4 160 7 342 6 195 -1 338 3 347 8 12 8 12 13 -5 30 -32 36 -9 34 40 -3 57 -44 88 -48 79 -11 -3 14 -3 33 1 42 9 24 9 253 -1 277 -4 10 -2 27 4 37 8 13 9 26 2 44 -11 29 -14 168 -3 178 5 6 7 225 2 254 -1 4 0 10 1 13 6 15 4 123 -3 127 -4 2 -7 161 -7 351 l1 347 -23 7 c-13 3 -197 6 -410 7 -319 1 -388 3 -388 15 0 18 211 27 559 26 l262 -2 -1 275 -1 274 24 16 c20 13 104 14 708 9 518 -4 690 -2 707 7 22 11 22 15 22 216 0 129 -4 206 -10 210 -7 4 -10 154 -10 443 0 240 0 441 0 446 0 4 -11 1 -25 -8 -23 -15 -25 -15 -25 0 0 8 14 29 30 46 17 16 30 35 30 41 0 9 -165 11 -682 9 -610 -2 -688 -1 -725 13 l-43 17 0 457 0 458 308 6 c169 4 724 7 1234 7 594 0 929 4 933 10 4 6 13 5 25 -2 15 -10 22 -10 32 0z m-3572 -332 c0 -7 -7 -19 -15 -26 -12 -10 -15 -40 -15 -147 0 -147 -6 -161 -55 -129 -24 16 -25 18 -10 47 18 34 20 215 3 236 -17 21 1 33 48 33 31 0 44 -4 44 -14z m-207 -57 c31 -36 34 -45 30 -82 -6 -44 -26 -88 -56 -123 -24 -29 -5 -42 28 -20 30 20 33 8 5 -22 -28 -29 -45 -28 -69 7 -22 30 -20 55 5 65 8 3 14 15 14 26 0 11 6 20 14 20 18 0 23 16 20 68 -2 52 -28 84 -62 80 -21 -3 -25 -9 -27 -48 -1 -25 4 -57 12 -72 7 -16 10 -28 5 -28 -20 0 -60 41 -65 67 -8 39 12 91 37 96 59 12 74 7 109 -34z m-920 -1086 c15 -15 17 -43 17 -309 0 -184 4 -295 10 -299 6 -3 10 -37 10 -75 0 -38 -4 -72 -10 -75 -6 -4 -10 -132 -10 -350 0 -334 1 -344 20 -350 23 -7 80 23 80 42 0 7 7 13 16 13 12 0 14 -5 9 -17 -4 -10 -10 -27 -12 -38 -4 -20 0 -20 237 -17 237 3 270 -1 270 -29 0 -5 -42 -9 -94 -9 -52 0 -97 -4 -100 -9 -3 -4 -31 -4 -62 1 -32 5 -65 6 -73 2 -9 -3 -51 -5 -93 -4 -83 1 -94 -6 -61 -42 15 -17 15 -18 -1 -18 -9 0 -33 11 -54 25 -20 13 -46 23 -57 21 -19 -3 -20 -12 -23 -322 -2 -286 -4 -320 -19 -331 -13 -10 -276 -13 -1234 -13 -801 0 -1220 -3 -1224 -10 -4 -6 -65 -10 -150 -10 -85 0 -146 4 -150 10 -3 6 -17 10 -31 10 -14 0 -34 5 -45 10 -19 10 -19 29 -19 750 l0 740 -22 5 c-13 3 -214 4 -447 3 l-425 -3 -3 -1248 c-2 -687 1 -1256 6 -1264 6 -12 31 -15 125 -15 64 0 120 2 123 6 3 3 10 3 15 0 14 -9 204 -8 217 1 7 4 20 4 29 0 24 -9 345 -11 360 -1 7 4 17 4 23 0 17 -10 129 -12 135 -2 3 4 761 8 1685 8 l1679 0 0 -25 0 -25 -929 0 c-659 0 -932 -3 -937 -11 -4 -8 -9 -8 -17 0 -14 14 -64 14 -72 1 -8 -13 -52 -13 -60 0 -8 13 -112 13 -120 0 -9 -15 -340 -13 -365 2 -16 10 -24 10 -40 0 -24 -14 -86 -16 -95 -2 -8 13 -92 13 -100 0 -8 -13 -322 -13 -330 0 -9 15 -318 13 -333 -2 -9 -9 -15 -9 -24 0 -15 15 -673 17 -683 2 -9 -14 -81 -12 -105 2 -16 10 -24 10 -40 0 -43 -27 -114 -13 -167 32 l-23 19 0 573 c0 371 4 575 10 579 13 8 13 142 0 150 -13 8 -13 122 0 130 14 8 14 832 0 840 -13 8 -13 132 0 140 13 8 13 41 -1 63 -9 14 -7 25 8 51 l19 34 361 -2 c344 -2 508 3 531 18 8 5 12 109 12 321 1 279 3 317 18 334 17 18 55 18 1417 11 1250 -6 1402 -8 1418 -22z m6131 -438 c9 -14 14 -30 11 -35 -9 -15 8 -39 75 -109 62 -64 75 -102 39 -109 -12 -2 -18 8 -23 37 -6 42 -48 101 -72 101 -10 0 -14 -15 -14 -57 0 -32 -4 -64 -9 -71 -14 -22 -55 -10 -69 21 -17 34 -9 46 16 24 27 -25 45 -6 50 55 4 49 1 57 -32 100 -20 26 -36 52 -36 57 0 22 48 11 64 -14z m-10480 -14 c11 -12 15 -27 11 -39 -3 -11 -1 -23 5 -27 5 -3 10 -35 10 -69 0 -55 3 -67 27 -90 32 -33 67 -31 71 3 6 40 -8 90 -30 111 -26 24 -20 34 14 21 38 -14 46 -32 49 -101 1 -36 5 -69 10 -75 4 -5 10 -26 14 -45 5 -30 2 -39 -24 -64 -22 -21 -36 -27 -53 -23 -27 7 -78 86 -78 121 0 12 -3 26 -7 30 -4 3 -8 14 -9 24 -5 39 -26 138 -32 147 -10 16 -13 95 -4 95 5 0 17 -9 26 -19z m10836 -72 c0 -15 -8 -17 -60 -15 -58 3 -88 -8 -56 -20 9 -3 16 -12 16 -18 0 -7 12 -22 28 -33 15 -11 38 -41 51 -66 l23 -46 -21 -27 c-35 -45 -59 -57 -96 -50 -34 7 -75 46 -75 72 0 19 7 18 32 -6 42 -39 98 -13 98 45 0 24 -11 44 -45 81 -25 26 -45 51 -45 54 0 4 -9 15 -20 25 -11 10 -20 25 -20 33 0 12 13 14 70 10 39 -3 73 -1 76 4 8 13 44 -22 44 -43z m-10440 -8 c5 -11 10 -22 10 -25 0 -3 -32 -6 -71 -6 l-71 0 49 -44 c33 -30 53 -58 61 -85 7 -22 17 -43 22 -46 14 -8 -38 -75 -66 -85 -35 -14 -92 9 -109 43 -17 35 -13 46 11 26 24 -19 93 -19 104 1 21 39 -34 144 -95 184 -12 8 -25 24 -28 35 -5 20 -1 21 84 21 77 0 90 -2 99 -19z m8069 -155 c-2 -2 -73 -6 -157 -8 -134 -4 -152 -2 -150 11 3 14 25 16 136 17 73 1 136 4 139 8 4 4 14 0 22 -9 8 -8 13 -16 10 -19z m-15 -50 c25 -13 25 -14 7 -30 -16 -14 -39 -16 -157 -14 -131 3 -139 4 -139 23 0 19 7 20 102 20 56 1 105 4 109 8 12 11 50 8 78 -7z m2056 -581 c0 -8 9 -30 20 -50 15 -28 17 -35 5 -35 -10 0 -12 -9 -8 -36 3 -19 1 -45 -5 -57 -5 -12 -13 -30 -16 -39 -3 -10 -10 -18 -16 -18 -14 0 -60 46 -60 60 0 14 23 13 38 -2 40 -40 61 95 21 138 -12 12 -23 41 -26 66 l-4 43 25 -28 c14 -15 26 -34 26 -42z m-10514 -37 c-5 -32 -3 -38 12 -38 10 0 23 5 29 11 8 8 22 4 52 -17 39 -28 41 -32 42 -84 1 -30 1 -64 0 -76 -1 -11 7 -28 19 -39 11 -10 20 -23 20 -29 0 -19 -53 -66 -75 -66 -23 0 -90 62 -79 73 4 4 2 12 -4 19 -5 7 -13 30 -17 51 -4 20 -11 40 -16 42 -4 3 -11 37 -15 75 -4 39 -11 73 -15 76 -11 6 -12 68 -2 77 3 4 17 -3 31 -15 20 -19 23 -29 18 -60z m5502 -33 c54 -58 42 -136 -28 -180 -48 -30 -53 -50 -11 -42 34 7 91 -17 91 -38 0 -9 -17 -16 -45 -21 -49 -7 -91 12 -101 44 -3 9 -12 30 -20 46 -8 16 -13 30 -12 31 2 1 23 8 47 16 33 10 50 23 63 47 35 64 -6 117 -73 93 -50 -17 -84 19 -36 39 40 17 89 3 125 -35z m5312 35 c0 -5 -3 -10 -7 -10 -5 0 -7 -61 -5 -136 4 -156 -2 -173 -49 -148 -29 15 -38 37 -19 49 6 4 10 54 10 116 0 88 -3 111 -15 115 -31 12 -13 24 35 24 28 0 50 -4 50 -10z m-10492 -31 c-16 -9 -18 -27 -18 -149 0 -87 -4 -140 -10 -140 -6 0 -26 9 -46 19 -33 18 -34 20 -17 33 16 12 17 26 13 135 l-5 122 40 3 c47 3 69 -8 43 -23z m7252 -35 c0 -20 -5 -24 -30 -24 -35 0 -40 22 -13 52 20 22 43 8 43 -28z m-2340 24 c15 -10 22 -10 32 0 6 6 20 12 30 12 22 0 24 -27 2 -32 -22 -4 -27 -66 -8 -92 18 -27 18 -56 -1 -56 -8 0 -15 7 -15 15 0 30 -31 29 -55 -1 l-23 -29 -22 20 c-43 38 -59 99 -40 149 8 21 16 26 45 26 19 0 44 -6 55 -12z m2724 -60 c57 -118 111 -132 80 -20 -23 84 -8 113 41 77 17 -14 18 -19 7 -47 -10 -26 -9 -36 3 -54 19 -30 22 -78 6 -98 -12 -14 -16 -14 -41 4 -36 26 -48 25 -70 -2 -29 -36 -54 -14 -56 48 -1 27 -9 69 -18 93 -12 33 -13 47 -5 57 6 8 13 14 15 14 1 0 18 -33 38 -72z m2670 -19 c18 -37 16 -76 -4 -64 -5 3 -12 21 -16 40 -3 18 -15 41 -25 51 -10 9 -19 23 -19 31 0 24 44 -16 64 -58z m-3548 35 c9 -2 27 4 40 13 23 15 26 14 59 -22 37 -42 37 -65 -1 -41 -28 19 -88 22 -82 4 2 -6 12 -16 22 -22 61 -36 104 -106 56 -91 -10 3 -29 1 -40 -5 -26 -14 -76 5 -83 32 -6 20 13 24 30 7 13 -13 58 -8 58 7 0 6 -20 27 -45 46 -36 27 -46 41 -48 68 -2 25 0 31 7 21 5 -8 17 -16 27 -17z m494 -151 c0 -20 -4 -24 -22 -21 -25 3 -37 36 -17 48 20 13 39 0 39 -27z m-1357 -152 c27 -12 53 -19 58 -16 5 4 9 0 9 -8 0 -17 -34 -50 -43 -41 -3 3 -23 -3 -44 -14 -21 -11 -69 -32 -108 -47 -38 -15 -76 -29 -82 -32 -7 -3 -13 1 -13 9 0 9 45 31 120 58 118 44 142 62 98 75 -25 7 -198 75 -211 82 -4 3 -3 11 3 18 9 10 26 5 88 -25 42 -21 99 -48 125 -59z m3735 58 c-3 -21 -37 -37 -181 -86 -47 -16 -55 -29 -26 -44 26 -13 83 -36 147 -59 35 -13 62 -29 62 -36 0 -19 -22 -17 -72 5 -130 59 -158 71 -165 69 -12 -2 -63 24 -63 32 0 11 40 36 70 44 39 11 204 78 215 88 14 12 17 10 13 -13z m-1906 -510 c32 -25 42 -45 68 -128 31 -102 37 -141 20 -141 -11 0 -35 41 -32 53 1 4 -7 30 -19 57 -17 40 -26 50 -46 50 -34 0 -38 -23 -13 -69 44 -78 -4 -129 -60 -64 -17 19 -28 38 -25 42 4 3 17 -7 30 -23 46 -57 48 -1 3 78 -9 17 -6 24 15 42 16 14 34 20 46 17 28 -7 37 21 17 52 -22 33 -76 36 -76 4 0 -25 -23 -21 -28 5 -4 21 25 56 47 56 9 0 33 -14 53 -31z m-2530 -43 c2 -20 12 -35 32 -45 37 -21 38 -35 4 -39 -32 -4 -31 1 -28 -113 1 -48 -3 -90 -8 -93 -6 -3 -19 10 -31 29 -11 20 -27 38 -36 41 -8 4 -15 13 -15 20 0 8 -7 17 -15 20 -8 4 -15 10 -15 15 0 4 -14 29 -31 54 -18 27 -28 50 -23 55 5 5 34 10 64 12 51 3 55 5 52 26 -4 25 27 68 39 55 4 -5 9 -21 11 -37z m-280 -13 c17 -15 19 -15 36 0 10 10 26 17 35 17 26 0 20 -27 -8 -34 -20 -5 -24 -12 -21 -34 1 -15 8 -37 14 -49 7 -12 12 -32 12 -45 l0 -23 -19 24 c-20 26 -51 24 -51 -3 0 -17 -42 -32 -60 -21 -18 11 -43 78 -43 113 1 61 62 94 105 55z m3279 -65 c14 -27 34 -22 78 17 21 19 41 35 45 35 17 0 2 -30 -29 -60 -49 -48 -45 -73 18 -105 24 -12 34 -42 19 -57 -6 -6 -26 8 -56 36 -26 26 -51 46 -56 46 -6 0 -28 -16 -50 -36 -22 -20 -45 -34 -52 -32 -8 3 3 19 30 43 23 21 42 45 42 54 0 9 -16 29 -35 44 -26 21 -35 36 -35 58 l0 30 35 -27 c20 -15 40 -35 46 -46z m-1435 37 c7 -19 33 -19 57 -1 20 16 57 10 57 -9 0 -6 9 -20 20 -30 11 -10 17 -22 14 -26 -8 -14 -24 -10 -24 6 0 11 -12 15 -45 15 -52 0 -60 -18 -19 -40 30 -17 86 -84 77 -94 -3 -3 -12 -1 -20 6 -10 8 -20 8 -39 -1 -33 -15 -84 5 -84 31 0 20 15 24 25 8 7 -11 48 -14 58 -3 9 8 -22 43 -38 43 -23 0 -81 83 -70 100 9 15 25 12 31 -5z m1858 -31 c-17 -26 -34 -24 -34 5 0 26 21 43 36 30 11 -9 10 -15 -2 -35z m135 20 c17 -14 31 -33 31 -42 0 -13 -4 -11 -16 6 -10 14 -25 22 -45 22 -34 0 -36 -11 -14 -82 12 -42 12 -48 0 -48 -8 0 -15 -6 -15 -14 0 -7 -9 -16 -21 -19 -24 -6 -89 46 -89 71 0 12 7 9 28 -11 48 -46 61 -37 55 36 -4 53 -2 65 17 85 26 28 32 28 69 -4z m-1522 -32 c-37 -40 -25 -45 116 -41 112 3 132 2 132 -11 0 -12 -21 -15 -125 -16 -153 -2 -149 -1 -126 -19 10 -7 15 -19 11 -25 -5 -8 -12 -6 -25 5 -10 9 -36 23 -57 30 -46 16 -49 35 -8 48 17 6 41 18 54 28 31 24 49 24 28 1z m1567 -98 c9 -23 -20 -53 -45 -47 -21 6 -22 40 -1 35 7 -1 15 5 18 13 8 20 20 19 28 -1z m-1037 -652 c11 -15 24 -43 28 -61 4 -19 14 -50 23 -70 9 -20 15 -42 13 -49 -1 -8 5 -25 14 -39 16 -24 16 -24 -7 -21 -13 2 -24 11 -26 23 -9 46 -52 124 -72 130 -34 11 -42 -7 -25 -54 27 -77 13 -121 -34 -103 -21 7 -63 76 -53 87 12 11 21 4 27 -24 7 -33 33 -49 42 -25 3 8 1 26 -6 40 -28 62 -2 132 40 106 28 -18 35 7 14 47 -18 36 -40 39 -72 10 -19 -19 -23 -20 -29 -6 -11 29 0 52 23 49 12 -2 24 2 28 7 8 14 44 -10 72 -47z m933 7 c0 -5 12 -33 26 -62 14 -28 27 -66 30 -83 2 -17 10 -44 18 -60 16 -29 13 -44 -8 -44 -8 0 -24 27 -36 60 -27 73 -55 110 -81 110 -23 0 -24 -16 -4 -63 19 -47 19 -91 0 -107 -13 -11 -21 -8 -45 15 -17 16 -30 38 -30 48 0 18 3 17 25 -7 31 -33 49 -26 29 12 -7 15 -14 49 -14 75 l0 49 37 -4 c46 -4 53 14 17 47 -33 30 -44 32 -44 5 0 -23 -29 -27 -48 -8 -19 19 -14 32 21 48 29 14 35 13 70 -4 20 -10 37 -22 37 -27z m-3514 -1 c39 -14 61 -67 49 -120 -4 -18 -7 -63 -6 -100 1 -61 -1 -69 -24 -84 -39 -25 -100 -11 -120 28 -18 38 -14 44 17 27 29 -17 71 -19 80 -5 18 26 8 58 -22 69 -30 11 -42 37 -17 37 40 0 71 74 45 108 -13 15 -52 16 -79 2 -15 -9 -21 -7 -25 5 -15 39 38 56 102 33z m-246 -30 c15 -9 24 -9 43 1 14 7 30 10 36 7 19 -12 12 -36 -9 -36 -41 0 -38 -57 6 -109 l26 -31 -25 0 c-14 0 -27 7 -31 15 -9 24 -42 18 -61 -11 l-17 -26 -29 28 c-16 16 -32 40 -36 54 -3 14 -10 31 -16 37 -6 9 -1 23 17 48 29 37 60 45 96 23z m1847 -50 c11 15 25 22 48 22 28 0 36 -6 49 -32 21 -41 14 -46 -17 -14 -40 40 -54 34 -52 -21 0 -27 7 -58 15 -70 16 -25 56 -32 47 -9 -8 20 4 28 20 15 17 -15 17 -44 -2 -59 -11 -9 -20 -8 -43 5 -27 17 -30 17 -56 0 -23 -15 -31 -16 -50 -5 -28 14 -53 57 -41 67 4 5 10 2 12 -5 3 -7 18 -19 34 -28 27 -13 30 -13 36 1 5 16 -11 79 -28 106 -6 11 -12 10 -28 -5 -23 -21 -41 -14 -41 18 0 41 21 49 53 18 l29 -27 15 23z m1403 -9 l39 -41 47 41 c54 48 64 50 64 16 0 -15 -6 -25 -14 -25 -15 0 -56 -45 -56 -61 0 -5 16 -27 36 -49 22 -24 34 -46 30 -55 -7 -20 -26 -19 -26 0 0 9 -11 20 -24 24 -13 5 -26 17 -29 25 -10 25 -41 19 -72 -14 -27 -29 -55 -39 -55 -22 0 5 11 19 24 32 14 12 28 36 31 52 6 25 2 36 -24 62 -31 32 -40 56 -21 56 6 0 28 -19 50 -41z m-960 -28 c-5 -10 -6 -21 -3 -25 3 -3 64 -6 135 -6 104 0 128 -3 128 -14 0 -22 -50 -28 -159 -21 -69 5 -100 4 -105 -4 -4 -6 0 -14 8 -17 9 -3 16 -10 16 -15 0 -17 -40 -9 -60 11 -11 11 -30 20 -43 20 -31 0 -50 19 -36 37 7 7 19 13 29 13 9 0 32 11 51 23 38 27 54 25 39 -2z m-1982 -741 c38 -36 29 -47 -38 -42 -69 5 -80 -10 -31 -46 16 -11 43 -49 60 -83 l31 -62 -26 -34 c-33 -44 -61 -54 -107 -40 -34 11 -46 29 -47 66 0 11 3 11 16 0 24 -19 83 -19 93 0 12 24 7 76 -11 103 -9 13 -39 49 -67 79 -61 68 -55 79 39 79 53 0 71 -4 88 -20z m-309 -26 c19 -14 27 -14 46 -4 27 14 59 6 52 -13 -2 -6 -9 -13 -15 -13 -7 -1 -16 -2 -22 -3 -16 -2 -5 -66 18 -98 15 -21 18 -33 10 -41 -13 -13 -38 -4 -38 13 0 27 -23 27 -47 1 -25 -27 -33 -27 -70 7 -19 17 -23 31 -23 84 0 57 2 65 23 73 32 13 40 12 66 -6z m1804 -41 c19 -65 48 -71 67 -13 20 61 35 69 70 35 38 -36 38 -43 0 -37 -24 3 -31 0 -39 -19 -19 -50 -9 -71 46 -99 43 -22 50 -30 39 -39 -18 -15 -45 -4 -82 36 -30 32 -81 47 -72 21 3 -7 15 -43 27 -80 13 -37 27 -70 32 -73 21 -13 7 -25 -29 -25 l-38 0 -2 54 c-1 30 -8 71 -16 92 -34 93 -57 175 -51 184 15 23 35 7 48 -37z m1038 41 c6 -4 6 -10 -1 -18 -6 -8 -11 -75 -13 -159 -1 -80 -5 -148 -8 -151 -3 -4 -27 5 -53 20 -38 21 -44 29 -35 40 6 8 15 12 19 9 4 -3 14 2 21 11 10 12 10 24 1 60 -7 24 -12 68 -12 98 0 48 -3 54 -27 66 -24 10 -25 13 -10 19 24 9 107 12 118 5z m-541 -72 c0 -4 -6 -14 -12 -20 -26 -26 13 -33 140 -27 104 5 122 4 122 -9 0 -8 -5 -18 -11 -22 -11 -6 -103 -6 -207 1 -48 3 -63 -9 -32 -25 27 -15 25 -30 -5 -30 -14 0 -29 8 -34 19 -6 10 -28 23 -48 28 -53 12 -56 38 -5 46 21 4 47 16 57 27 19 21 35 26 35 12z m-455 -723 c35 -13 68 -73 100 -184 10 -33 21 -64 26 -70 17 -18 10 -36 -13 -33 -14 2 -25 13 -30 33 -27 89 -39 110 -68 124 -17 7 -34 11 -37 7 -3 -3 1 -33 10 -67 15 -61 10 -109 -12 -109 -14 0 -71 72 -71 90 1 10 8 5 21 -12 21 -29 49 -38 49 -15 0 6 -7 21 -15 31 -8 11 -15 39 -15 62 0 35 4 43 22 47 12 4 28 1 35 -5 10 -8 17 -8 24 -1 14 14 -8 61 -34 77 -15 9 -22 6 -39 -17 -15 -21 -23 -25 -33 -17 -22 18 3 70 33 70 9 0 30 -5 47 -11z m-1547 -39 c3 -7 -2 -16 -9 -21 -11 -6 -14 -40 -14 -146 0 -132 -1 -138 -20 -135 -11 2 -30 13 -43 25 -20 19 -21 22 -6 27 14 5 16 23 16 118 0 70 -4 117 -11 126 -9 11 -9 15 1 18 25 9 82 0 86 -12z m-280 -20 c30 -22 62 -19 62 6 0 17 12 18 28 2 19 -19 14 -36 -10 -40 -33 -4 -34 -37 -4 -91 31 -55 31 -57 6 -57 -11 0 -20 7 -20 15 0 28 -29 28 -54 2 -23 -25 -26 -26 -55 -11 -22 11 -31 23 -31 39 0 13 -4 27 -10 30 -5 3 -10 20 -10 37 0 23 9 39 33 59 17 16 33 28 35 29 2 0 15 -9 30 -20z m2782 -5 c17 -9 30 -21 30 -27 0 -6 8 -20 18 -31 27 -30 25 -186 -3 -217 -28 -31 -73 -52 -96 -45 -47 15 -89 79 -89 135 0 16 -4 31 -9 35 -6 3 -4 17 5 33 7 15 14 32 14 37 1 23 64 83 98 94 2 1 16 -6 32 -14z m-522 -82 l-3 -28 123 -3 c115 -2 122 -4 122 -23 0 -20 -4 -20 -130 -13 -127 7 -145 3 -118 -24 19 -19 1 -25 -24 -8 -13 9 -40 21 -60 27 -21 5 -38 15 -38 22 0 11 44 37 63 37 5 0 20 9 34 20 33 26 34 25 31 -7z"/>
 <path d="M7995 8050 c-15 -17 -16 -24 -6 -46 10 -22 15 -25 44 -19 17 4 37 10 42 13 6 4 17 7 25 7 9 0 15 10 15 25 0 19 -5 25 -22 25 -11 0 -25 3 -29 8 -14 14 -51 7 -69 -13z"/>
 <path d="M8014 7859 c-4 -7 -8 -27 -10 -45 -2 -26 2 -35 18 -40 40 -12 77 53 46 84 -15 15 -45 16 -54 1z"/>
 <path d="M5104 7999 c-19 -31 83 -51 112 -22 15 16 15 17 -2 24 -29 12 -102 10 -110 -2z"/>
 <path d="M5131 7856 c-7 -8 -11 -30 -9 -48 3 -29 6 -33 33 -33 27 0 30 4 33 33 3 35 -11 62 -33 62 -7 0 -18 -6 -24 -14z"/>
 <path d="M7760 7920 c-25 -25 -27 -95 -4 -128 19 -27 65 -29 86 -4 18 20 16 115 -3 138 -17 20 -56 17 -79 -6z"/>
 <path d="M8402 7928 c-20 -20 -14 -48 12 -60 49 -22 77 20 38 55 -22 20 -34 21 -50 5z"/>
 <path d="M4467 7793 c-4 -3 -7 -30 -7 -59 0 -49 2 -54 25 -60 54 -14 90 70 47 109 -19 17 -53 22 -65 10z"/>
 <path d="M4911 7931 c-17 -11 -21 -135 -5 -151 7 -7 19 -8 35 -1 21 8 24 15 23 52 -1 24 -4 51 -8 60 -4 9 -6 22 -4 29 4 17 -22 23 -41 11z"/>
 <path d="M5532 7899 c3 -24 33 -48 44 -36 8 8 -23 57 -37 57 -6 0 -9 -10 -7 -21z"/>
 <path d="M7340 7745 c0 -63 16 -78 59 -54 20 11 25 23 27 53 1 31 -3 39 -23 47 -54 20 -63 14 -63 -46z"/>
 <path d="M9340 7943 c-27 -11 -35 -33 -34 -90 1 -56 18 -83 50 -83 29 0 65 45 71 88 5 40 3 46 -23 68 -30 24 -39 26 -64 17z"/>
 <path d="M7053 7162 l-193 -2 -1 -273 c-3 -392 2 -580 13 -594 14 -17 1028 -19 1045 -2 8 8 13 8 17 0 9 -14 352 -15 361 -1 3 6 24 10 45 10 21 0 42 -4 45 -10 9 -14 131 -12 155 2 16 10 24 10 40 0 24 -15 52 -16 67 -1 8 8 13 8 17 0 10 -16 849 -15 876 1 15 10 24 9 44 -2 21 -11 30 -11 50 -1 13 7 41 11 62 9 l39 -3 3 428 c2 343 0 429 -11 433 -14 5 -2355 11 -2674 6z"/>
 <path d="M12928 5722 l-918 -2 0 -153 c0 -85 -3 -157 -7 -160 -9 -10 -10 -108 -1 -114 11 -6 10 -61 -1 -67 -10 -6 -8 -52 3 -76 3 -9 5 -360 4 -780 l-3 -765 1397 0 c768 0 1399 3 1402 6 8 8 9 2099 1 2107 -7 7 -454 8 -1877 4z m-459 -439 c30 -21 42 -40 59 -92 12 -37 25 -78 28 -94 3 -15 10 -30 15 -33 5 -3 9 -16 9 -30 0 -47 -25 -23 -55 54 -29 73 -32 77 -64 80 -29 3 -33 1 -26 -15 4 -10 10 -28 12 -41 3 -12 9 -25 14 -28 5 -3 9 -20 9 -38 0 -26 -5 -35 -21 -39 -26 -7 -79 41 -79 70 1 17 1 17 15 -1 8 -11 15 -23 15 -28 0 -4 7 -8 15 -8 19 0 19 30 0 56 -21 28 -18 68 8 92 18 17 26 19 35 10 9 -9 15 -9 24 0 10 10 9 18 -4 40 -21 34 -57 42 -65 13 -7 -29 -30 -34 -37 -8 -4 16 1 28 22 44 15 13 29 23 30 23 2 0 21 -12 41 -27z m963 -10 c9 -10 30 -65 48 -123 18 -58 36 -109 41 -114 16 -17 10 -28 -13 -24 -17 2 -27 17 -45 68 -23 64 -55 105 -77 97 -16 -6 -11 -58 9 -101 17 -35 17 -37 -1 -51 -27 -21 -54 -15 -77 17 -27 36 -14 49 14 14 30 -38 48 -19 25 27 -9 19 -16 51 -16 71 0 37 6 42 58 37 27 -2 31 33 5 61 -23 25 -63 24 -63 -2 0 -11 -4 -20 -8 -20 -16 0 -30 22 -25 41 7 26 102 28 125 2z m491 -68 c4 -24 4 -52 0 -61 -9 -24 16 -34 67 -28 35 5 49 2 59 -10 19 -23 9 -29 -58 -34 l-59 -4 -8 -61 c-13 -86 -32 -86 -36 0 l-3 68 -55 1 c-78 1 -82 2 -78 22 2 13 17 18 68 22 l65 5 3 39 c2 21 -1 43 -7 49 -19 19 -12 37 13 37 20 0 24 -6 29 -45z m365 15 c7 -12 10 -25 7 -30 -11 -18 6 -50 25 -50 14 0 23 12 31 40 17 54 31 65 66 48 15 -7 29 -22 31 -32 4 -16 0 -18 -27 -13 -26 6 -31 3 -31 -13 0 -10 -4 -22 -10 -25 -29 -18 28 -95 71 -95 12 0 19 -7 19 -20 0 -34 -35 -23 -85 26 -65 65 -76 50 -42 -58 28 -88 25 -105 -17 -94 -24 6 -26 11 -26 59 0 48 -31 167 -51 192 -4 6 -10 27 -14 48 -7 34 -5 37 16 37 14 0 30 -9 37 -20z m-1369 -76 c-22 -27 2 -34 120 -34 65 0 121 -3 124 -7 4 -3 2 -12 -4 -20 -9 -11 -36 -12 -131 -7 l-119 7 7 -26 c7 -32 1 -34 -33 -7 -14 11 -34 20 -44 20 -61 0 -64 32 -4 55 25 9 50 26 56 37 8 15 13 17 25 7 11 -9 11 -15 3 -25z m427 -765 c10 -11 19 -34 20 -51 3 -62 44 -63 64 -1 20 60 27 64 63 44 42 -23 50 -55 12 -45 -33 8 -54 -18 -51 -64 2 -33 21 -51 69 -66 9 -3 17 -12 17 -21 0 -27 -37 -16 -81 25 -24 22 -46 40 -50 40 -16 0 -19 -19 -8 -47 7 -15 13 -32 14 -38 0 -5 6 -23 13 -38 22 -51 16 -67 -23 -67 -35 0 -35 0 -29 38 4 27 -2 64 -21 127 -16 50 -32 94 -36 100 -12 12 -12 85 -1 85 5 0 17 -9 28 -21z m-940 -24 c2 -81 37 -99 60 -31 21 58 33 70 54 51 9 -8 22 -15 28 -15 7 0 12 -9 12 -20 0 -18 -3 -19 -20 -8 -23 15 -28 11 -45 -38 -17 -50 -11 -61 44 -87 25 -12 44 -26 43 -32 -5 -17 -56 -7 -71 15 -7 11 -19 20 -26 20 -7 0 -16 8 -19 17 -5 11 -10 13 -17 6 -8 -8 -6 -30 6 -74 32 -117 32 -111 -6 -107 -33 3 -34 4 -31 44 3 38 -30 175 -48 199 -12 16 -22 74 -15 85 4 6 17 10 28 8 17 -2 22 -10 23 -33z m1939 15 c17 0 36 5 42 11 16 16 70 -9 77 -36 11 -38 8 -47 -13 -35 -11 5 -41 10 -68 10 l-48 -1 28 -20 c15 -11 27 -25 27 -29 0 -5 14 -30 31 -55 44 -65 44 -103 1 -137 -19 -16 -47 -28 -61 -28 -36 0 -97 61 -87 87 7 17 8 17 22 -2 16 -21 69 -28 92 -12 35 27 1 108 -81 194 -35 36 -38 44 -27 58 9 11 16 13 24 5 5 -5 24 -10 41 -10z m-468 -27 c10 -30 35 -53 57 -53 11 0 37 16 57 36 36 35 59 38 59 8 0 -8 -5 -14 -12 -14 -16 0 -68 -51 -68 -67 0 -7 18 -32 40 -55 38 -38 40 -43 25 -57 -15 -15 -20 -12 -55 27 -21 23 -44 42 -52 42 -8 0 -29 -16 -48 -35 -19 -19 -38 -35 -42 -35 -18 0 -6 28 22 55 17 16 30 36 30 44 0 8 -16 32 -36 52 -23 24 -34 43 -31 53 8 22 46 20 54 -1z m-957 -58 c-21 -25 21 -34 139 -30 106 3 111 3 111 -17 0 -19 -4 -19 -124 -12 -83 4 -125 3 -130 -4 -3 -6 -2 -13 4 -17 17 -10 11 -25 -9 -25 -10 0 -21 7 -24 14 -3 8 -24 20 -46 26 -53 14 -52 33 3 54 24 9 52 26 62 37 17 19 19 19 22 5 2 -9 -2 -23 -8 -31z"/>
 <path d="M2024 5709 c-4 -7 -38 -10 -93 -8 l-86 3 0 -1061 0 -1062 625 -4 c1144 -9 2141 -7 2161 4 19 9 19 42 17 1072 l-3 1062 -28 3 c-16 2 -35 -2 -43 -9 -11 -9 -18 -9 -26 -1 -8 8 -57 12 -143 12 -86 0 -135 -4 -143 -12 -8 -8 -15 -8 -27 2 -13 11 -20 11 -41 0 -19 -11 -27 -11 -36 -2 -16 16 -289 17 -305 1 -8 -8 -13 -8 -17 0 -10 16 -618 15 -634 -1 -9 -9 -15 -9 -24 0 -16 16 -182 16 -208 0 -15 -10 -24 -9 -45 2 -19 10 -28 11 -37 2 -15 -15 -55 -16 -63 -2 -9 14 -118 13 -133 -2 -9 -9 -18 -8 -37 2 -21 11 -30 12 -45 2 -24 -14 -156 -16 -165 -2 -3 6 -44 10 -90 10 -46 0 -87 -4 -90 -10 -3 -5 -37 -10 -75 -10 -38 0 -72 5 -75 10 -8 13 -82 13 -91 -1z m294 -436 c26 -25 44 -53 52 -83 6 -25 21 -69 32 -98 19 -49 19 -82 0 -82 -12 0 -44 59 -37 70 3 5 -3 27 -14 49 -21 39 -55 61 -72 44 -9 -9 6 -80 22 -99 14 -17 -13 -64 -37 -64 -25 0 -39 15 -48 50 l-7 25 17 -22 c9 -13 23 -23 30 -23 16 0 11 34 -14 88 -14 31 -13 34 8 57 18 19 27 22 41 15 26 -15 29 -13 29 18 0 20 -9 35 -29 50 -27 19 -30 20 -43 5 -7 -9 -12 -19 -10 -22 8 -13 -16 -10 -28 4 -11 13 -10 19 5 35 27 30 60 24 103 -17z m931 21 c39 -19 77 -75 86 -128 3 -21 11 -50 17 -65 6 -14 12 -41 13 -60 l2 -33 -17 22 c-10 13 -25 47 -34 76 -9 29 -21 56 -26 59 -6 4 -10 23 -10 44 0 31 -6 42 -26 56 -28 18 -54 14 -54 -10 0 -18 -26 -20 -33 -2 -4 12 30 57 43 57 4 0 21 -7 39 -16z m896 -89 c6 -22 14 -46 18 -52 14 -22 36 -14 43 15 9 36 33 72 48 72 7 0 23 -11 36 -25 22 -23 22 -25 4 -26 -10 -1 -24 -1 -30 0 -13 1 -34 -42 -34 -69 0 -22 45 -60 71 -60 22 0 35 -18 22 -31 -14 -14 -52 3 -91 41 -50 48 -60 29 -34 -64 12 -41 22 -79 22 -85 0 -6 -16 -11 -35 -11 -34 0 -49 20 -25 35 15 9 12 46 -5 79 -8 15 -15 38 -15 50 0 11 -7 34 -15 49 -8 16 -17 51 -21 79 -6 45 -5 50 12 46 13 -2 22 -17 29 -43z m-908 -42 c-1 -21 7 -54 16 -73 17 -34 17 -34 -8 -59 -30 -31 -50 -23 -71 29 l-15 35 24 -29 c16 -20 29 -27 40 -23 16 6 16 9 1 44 -9 21 -21 46 -26 56 -7 14 -5 24 8 38 25 28 32 24 31 -18z m-457 -2 c0 -6 -5 -13 -11 -16 -5 -4 -8 -12 -6 -18 2 -8 43 -10 131 -8 120 3 128 2 124 -16 -3 -16 -16 -18 -123 -20 -66 -1 -124 -2 -128 -2 -4 -1 -3 -10 3 -21 13 -25 10 -25 -36 2 -20 12 -46 23 -58 24 -11 1 -24 3 -28 3 -5 1 -8 7 -8 15 0 8 16 16 40 20 22 3 48 15 58 25 18 21 42 27 42 12z m880 -33 c15 -10 22 -10 32 0 8 8 46 12 109 12 87 0 97 -2 102 -19 9 -35 -12 -41 -154 -41 -145 0 -165 6 -133 41 20 23 19 22 44 7z m-1434 -750 c4 -7 9 -26 11 -42 2 -17 10 -37 19 -46 14 -13 17 -13 30 4 8 11 14 27 14 35 0 9 9 27 19 40 18 24 18 24 44 5 39 -28 42 -45 8 -38 -25 5 -30 2 -40 -27 -6 -17 -11 -40 -11 -50 0 -19 43 -54 75 -60 25 -5 26 -32 2 -37 -11 -2 -34 13 -59 38 -39 39 -77 50 -69 19 1 -8 10 -39 18 -69 29 -104 29 -102 -3 -98 -27 3 -29 6 -30 54 0 28 -8 65 -17 84 -10 18 -17 45 -17 60 0 14 -7 35 -15 46 -19 26 -20 94 -1 94 8 0 18 -5 22 -12z m962 -15 c6 -16 12 -37 14 -48 2 -12 12 -21 25 -23 18 -3 24 4 34 38 17 56 30 65 63 39 33 -26 33 -38 2 -32 -22 4 -26 0 -37 -37 -17 -56 -6 -70 79 -109 22 -10 19 -26 -7 -29 -17 -3 -36 8 -66 38 -41 40 -65 46 -65 15 0 -7 11 -45 24 -85 26 -75 22 -87 -21 -78 -15 3 -19 15 -21 63 -2 33 -7 64 -12 70 -4 5 -11 28 -15 50 -4 22 -13 49 -20 60 -16 27 -27 74 -20 85 12 19 33 10 43 -17z m600 6 c-4 -29 -33 -48 -49 -32 -18 18 -1 53 27 53 20 0 25 -4 22 -21z m520 -11 c7 -7 12 -23 12 -35 0 -21 -3 -22 -20 -13 -26 14 -95 9 -95 -6 0 -7 21 -35 48 -63 26 -29 47 -58 47 -66 0 -8 5 -17 10 -20 18 -11 11 -33 -24 -69 -41 -45 -81 -48 -125 -10 -30 25 -44 74 -21 74 6 0 10 -7 10 -15 0 -11 12 -15 40 -16 22 -1 45 -2 52 -3 17 -1 18 85 1 91 -7 3 -13 11 -13 17 0 7 -13 22 -30 34 -16 13 -30 29 -30 37 0 8 -9 20 -20 27 -11 7 -20 21 -20 30 0 16 10 18 83 18 51 0 88 -5 95 -12z m-1562 -73 c-20 -30 -28 -28 132 -25 106 2 122 0 122 -14 0 -23 -39 -29 -156 -24 l-105 5 6 -24 c6 -26 -19 -34 -28 -9 -3 8 -24 20 -46 27 -51 15 -52 32 -3 47 20 6 46 18 57 26 30 23 39 19 21 -9z m1159 -25 l0 -25 -125 -1 c-138 -1 -160 2 -160 20 0 31 24 37 155 34 l130 -3 0 -25z m-115 -94 c0 -27 -35 -45 -52 -28 -17 17 1 52 28 52 19 0 24 -5 24 -24z"/>
 <path d="M373 4994 c-10 -27 22 -69 53 -69 23 0 28 4 29 30 1 17 -3 36 -8 43 -14 18 -66 15 -74 -4z"/>
 <path d="M322 4308 c-14 -14 -16 -64 -2 -73 5 -3 7 -12 4 -20 -7 -18 32 -38 62 -31 21 6 24 12 24 49 0 66 -53 110 -88 75z"/>
 <path d="M340 4143 c1 -26 56 -87 73 -80 15 6 12 63 -5 85 -16 19 -68 15 -68 -5z"/>
 <path d="M5447 4307 c-7 -20 3 -65 19 -77 7 -6 25 -10 41 -8 25 3 28 7 26 36 0 18 -7 39 -13 47 -15 19 -66 20 -73 2z"/>
 <path d="M5700 3401 c0 -14 53 -90 63 -91 4 0 7 21 5 48 -3 45 -4 47 -35 50 -19 2 -33 -1 -33 -7z"/>
 <path d="M5455 3459 c-14 -22 5 -80 30 -89 37 -14 53 -3 51 35 -2 48 -61 87 -81 54z"/>
 <path d="M5487 2573 c-8 -44 5 -63 44 -63 36 0 46 28 24 70 -11 20 -23 30 -39 30 -19 0 -24 -7 -29 -37z"/>
 <path d="M5484 1734 c-11 -43 9 -72 50 -72 33 0 36 2 36 29 0 58 -73 95 -86 43z"/>
 <path d="M5514 862 c3 -51 10 -60 48 -58 26 1 34 6 36 24 5 36 -24 72 -57 72 -27 0 -29 -2 -27 -38z"/>
 <path d="M8295 880 c-9 -10 -15 -26 -12 -34 4 -9 3 -17 -1 -20 -8 -5 -8 -113 1 -122 3 -3 3 -12 0 -20 -12 -32 55 -62 73 -32 12 20 7 217 -6 233 -17 20 -33 19 -55 -5z"/>
 </g>
<g id="layer103" fill="#d2d2d2" stroke="none">
 <path d="M0 4120 l0 -4120 7960 0 7960 0 0 4120 0 4120 -7960 0 -7960 0 0 -4120z m8111 3967 c29 -19 34 -29 34 -62 0 -33 -5 -43 -33 -62 -18 -12 -40 -19 -48 -16 -22 8 -64 -6 -64 -22 0 -18 31 -35 64 -35 25 0 66 -41 66 -66 0 -8 6 -23 12 -34 19 -29 1 -39 -75 -42 -56 -2 -70 1 -88 18 -23 24 -32 73 -17 91 6 8 7 24 2 40 -5 16 -9 46 -10 68 -1 22 -6 55 -10 74 -6 29 -3 37 17 52 35 27 107 25 150 -4z m-2891 -52 c36 -19 54 -49 46 -80 -6 -22 -39 -42 -60 -36 -16 4 -56 -9 -56 -18 0 -5 14 -11 32 -15 43 -8 68 -33 68 -66 0 -36 23 -56 40 -35 8 10 11 41 9 97 -4 90 1 98 56 84 23 -6 24 -9 18 -69 -4 -47 -2 -65 8 -74 23 -19 64 -19 83 0 28 28 56 22 63 -13 4 -21 11 -30 22 -28 23 5 20 39 -4 52 -11 6 -35 21 -52 34 -66 46 -29 120 47 94 21 -8 39 -8 57 -1 14 5 35 7 45 3 16 -5 19 -12 14 -36 -3 -17 -6 -57 -6 -89 0 -77 -20 -99 -88 -99 -28 0 -57 7 -71 16 -19 13 -27 14 -45 4 -27 -14 -135 -18 -154 -6 -8 5 -18 4 -25 -3 -6 -6 -44 -11 -83 -11 -61 0 -77 4 -99 23 -32 27 -38 54 -18 86 12 19 13 31 4 60 -6 20 -12 52 -14 71 -2 31 2 37 33 52 43 22 92 23 130 3z m1453 -66 c53 -27 77 -61 77 -108 0 -27 -6 -51 -17 -63 -13 -15 -14 -23 -5 -44 17 -37 15 -52 -13 -79 -32 -33 -79 -33 -128 0 -35 24 -45 43 -30 58 3 4 17 0 30 -9 36 -23 67 -15 71 18 2 19 -3 31 -17 40 -28 17 -26 36 3 48 31 12 49 45 42 76 -5 18 -13 24 -36 24 -16 0 -32 -4 -35 -10 -3 -5 -19 -10 -36 -10 -22 0 -29 5 -29 19 0 42 74 65 123 40z m922 -79 l0 -85 32 -3 c17 -2 37 -10 44 -19 21 -24 -11 -41 -68 -36 -75 7 -73 4 -66 82 4 47 2 80 -7 101 -15 37 -3 52 40 48 25 -3 25 -5 25 -88z m282 48 c41 -40 51 -84 28 -132 -23 -47 -50 -66 -97 -66 -56 0 -108 50 -115 111 -4 39 -1 50 23 78 50 60 105 63 161 9z m369 31 c4 -7 6 -47 5 -90 l-2 -78 38 -3 c30 -2 38 -7 38 -23 0 -17 -7 -20 -55 -21 -90 -2 -85 -8 -83 113 0 60 2 109 2 111 3 8 51 0 57 -9z m193 -5 c22 -16 24 -16 33 0 11 20 28 20 53 2 15 -10 17 -17 8 -27 -6 -8 -13 -45 -15 -83 -3 -58 -8 -72 -29 -90 -47 -41 -144 -13 -137 38 4 31 36 32 49 2 13 -29 46 -35 55 -11 8 19 -13 45 -36 45 -10 0 -33 12 -50 27 -27 22 -31 31 -26 57 11 53 51 70 95 40z m196 8 c6 -4 10 -42 10 -86 0 -64 3 -81 18 -90 12 -8 22 -8 35 0 14 9 17 26 17 95 l0 84 35 0 34 0 -3 -88 -3 -88 34 3 33 3 0 77 c0 83 9 102 46 96 23 -3 24 -5 20 -88 -3 -77 -20 -139 -39 -141 -4 0 -14 -2 -23 -4 -9 -1 -31 4 -49 13 -28 13 -35 14 -58 1 -30 -16 -50 -18 -70 -5 -7 4 -25 5 -39 2 -42 -11 -50 5 -45 94 3 57 1 84 -9 96 -10 13 -10 17 2 25 17 11 40 11 54 1z m536 -85 c-2 -60 1 -92 9 -102 11 -13 11 -20 0 -40 -23 -43 5 -69 50 -45 29 16 48 -14 25 -40 -22 -24 -87 -27 -104 -6 -22 26 -49 113 -40 127 12 19 11 140 -1 159 -13 21 8 42 39 38 l26 -3 -4 -88z m245 74 c30 -18 64 -74 64 -106 0 -49 -55 -107 -102 -108 -79 -1 -128 46 -128 121 1 93 87 141 166 93z m166 -65 l-4 -85 38 -3 c40 -3 58 -28 35 -51 -12 -12 -112 -10 -125 3 -7 7 -12 181 -7 215 1 3 16 5 34 5 l33 0 -4 -84z m1212 68 c9 -8 16 -20 16 -26 0 -22 45 -100 63 -110 28 -15 30 -5 12 61 -21 73 -16 94 22 89 25 -3 28 -7 28 -38 1 -19 7 -58 14 -86 8 -28 11 -59 8 -68 -9 -22 -63 -21 -76 2 -10 16 -12 16 -25 0 -19 -25 -66 -24 -66 2 0 10 -11 53 -24 94 -17 53 -20 78 -13 85 15 15 23 14 41 -5z m-6296 -17 c2 -10 -3 -17 -12 -17 -19 0 -31 -40 -22 -75 6 -22 12 -25 49 -25 87 0 143 -64 113 -128 -23 -48 -68 -63 -174 -60 -81 3 -87 4 -83 23 2 11 6 71 8 134 4 94 2 116 -12 131 -15 17 -15 19 1 28 10 5 43 9 73 8 44 -1 57 -5 59 -19z m244 -7 c-2 -14 -5 -41 -8 -60 -6 -44 5 -60 47 -69 36 -7 49 -32 29 -55 -8 -10 -31 -13 -81 -11 -39 2 -73 6 -76 8 -2 3 1 15 7 28 12 22 9 111 -5 156 -6 18 -2 22 22 26 55 9 68 4 65 -23z m246 14 c12 -8 29 -28 37 -44 40 -77 -12 -170 -93 -170 -47 0 -69 14 -92 60 -24 47 -25 71 -5 110 20 40 53 60 95 60 20 0 46 -7 58 -16z m793 -62 c-2 -47 1 -77 9 -87 25 -31 32 -14 29 73 l-3 87 42 3 42 3 0 -79 c0 -56 4 -83 14 -91 20 -17 26 6 26 95 l0 74 39 0 c22 0 42 -3 44 -7 2 -5 1 -48 -3 -97 -5 -70 -10 -91 -25 -102 -22 -16 -77 -18 -91 -4 -7 7 -20 6 -41 -2 -19 -8 -54 -11 -94 -8 l-63 5 0 103 c-1 57 1 106 4 108 2 3 20 4 40 2 l35 -3 -4 -73z m580 58 c-2 -8 -5 -71 -7 -139 -2 -69 -6 -133 -10 -143 -7 -23 -26 -23 -75 3 -39 20 -40 21 -24 39 25 27 18 199 -9 228 -23 26 -9 31 69 29 48 -2 59 -5 56 -17z m149 4 c17 -20 2 -67 -23 -72 -23 -5 -57 25 -57 49 0 35 57 51 80 23z m860 7 c0 -5 -7 -14 -15 -21 -9 -8 -15 -30 -15 -56 0 -44 0 -44 35 -44 67 0 125 -47 125 -101 0 -18 -11 -37 -35 -58 -35 -30 -39 -31 -130 -31 -52 0 -95 3 -95 8 0 4 9 15 20 25 18 15 20 29 20 125 0 96 -2 111 -20 127 -11 10 -17 22 -14 26 7 12 124 12 124 0z m2498 -23 c9 -9 7 -17 -9 -34 -12 -12 -27 -20 -35 -17 -14 5 -19 44 -7 56 10 11 38 8 51 -5z m131 -14 c31 -26 41 -54 20 -54 -6 0 -20 11 -31 25 -41 53 -63 14 -36 -63 12 -32 11 -35 -20 -63 -31 -28 -34 -29 -62 -14 -34 17 -56 53 -43 66 6 6 19 -1 33 -16 37 -39 43 -32 35 41 -6 55 -4 69 11 85 24 26 57 24 93 -7z m571 -24 c20 -33 -8 -40 -150 -40 -110 0 -140 3 -150 15 -27 32 2 40 150 40 113 0 143 -3 150 -15z m640 -51 c0 -23 -28 -26 -37 -3 -6 16 15 37 29 28 4 -3 8 -14 8 -25z m68 14 c9 -17 7 -56 -3 -109 -6 -26 -40 -37 -66 -21 -10 6 -21 8 -25 4 -4 -4 20 -32 54 -63 57 -52 69 -74 39 -74 -15 0 -171 170 -163 177 3 3 16 -1 30 -10 21 -14 25 -14 30 -2 7 20 36 19 36 0 0 -8 5 -15 11 -15 5 0 9 12 8 28 -6 72 1 102 21 102 10 0 23 -8 28 -17z m-709 -37 c22 -26 -21 -36 -158 -36 -130 0 -149 5 -137 35 8 22 278 22 295 1z m-531 -38 c3 -22 -2 -29 -23 -34 -38 -10 -51 9 -29 40 24 32 48 29 52 -6z m1026 -18 c17 -6 26 -17 26 -30 0 -19 -5 -21 -52 -18 -62 4 -79 29 -31 46 15 6 29 11 30 11 1 1 13 -3 27 -9z m4 -76 c28 -20 30 -69 3 -84 -46 -24 -97 -3 -89 37 3 12 12 17 29 16 22 -1 25 2 21 23 -5 28 5 30 36 8z m-1323 -488 l24 -16 1 -460 0 -461 -34 -14 c-30 -13 -141 -15 -705 -15 -368 0 -672 -4 -675 -9 -3 -4 6 -23 19 -41 14 -19 25 -40 25 -47 0 -18 -25 -16 -40 2 -7 8 -16 15 -21 15 -5 0 -9 -290 -9 -665 0 -608 3 -691 24 -657 2 4 322 9 711 10 l706 3 14 -35 c12 -28 15 -90 15 -301 l0 -265 413 -2 412 -3 3 -22 c2 -16 -3 -24 -20 -28 -13 -3 -200 -4 -416 -3 l-392 3 -2 -130 c-1 -71 -3 -152 -5 -180 -2 -27 -4 -63 -4 -80 -3 -67 12 -1270 16 -1273 2 -2 27 13 55 32 29 20 56 36 61 36 17 0 20 -21 5 -42 -9 -12 -16 -27 -16 -32 0 -13 5752 2 5765 15 12 12 8 2489 -4 2502 -4 4 -185 6 -402 5 l-394 -3 -5 -738 c-5 -794 -3 -757 -55 -756 -11 0 -614 -3 -1340 -6 -726 -3 -1358 -2 -1404 1 -129 11 -121 -12 -121 339 0 217 -3 295 -12 295 -6 0 -33 -14 -60 -31 -36 -24 -52 -29 -60 -21 -9 9 -7 16 5 30 9 10 17 22 17 25 0 4 -121 7 -268 7 -218 0 -272 3 -288 14 -18 14 -18 16 -2 32 18 18 26 19 431 23 105 1 107 2 97 21 -19 36 14 56 40 25 14 -17 67 -45 87 -45 13 0 16 236 13 1157 -1 302 0 313 20 333 25 25 -16 24 2282 21 519 -1 588 -3 602 -17 14 -13 16 -58 16 -337 l0 -322 424 3 c413 3 425 3 435 -16 7 -14 10 -426 8 -1308 l-2 -1289 -85 -1 c-47 -1 -1356 -5 -2910 -8 -1554 -4 -2827 -9 -2829 -12 -3 -2 1 -10 7 -16 14 -14 16 -48 3 -48 -5 0 -22 11 -38 24 -38 31 -73 49 -81 41 -4 -4 -8 -529 -9 -1168 -2 -1104 -3 -1161 -20 -1178 -21 -21 29 -20 -1053 -20 -371 1 -940 0 -1263 -2 l-589 -2 -20 25 c-20 24 -21 33 -15 333 6 348 8 339 -71 271 -40 -34 -81 -41 -69 -11 21 51 46 47 -299 47 -176 0 -329 3 -342 6 -32 9 -24 36 13 46 17 4 171 5 343 2 217 -4 312 -3 312 4 0 6 -4 14 -10 17 -15 9 -12 25 6 32 8 3 25 -4 37 -15 12 -11 34 -25 50 -31 l27 -11 1 558 c0 306 3 647 5 757 5 228 -1 315 -22 315 -7 0 -29 -13 -47 -30 -57 -50 -96 -31 -42 20 14 13 25 27 25 31 0 4 -165 7 -367 6 -353 -2 -368 -1 -371 17 -2 10 2 22 9 27 8 4 164 8 348 9 183 0 338 3 343 6 5 3 2 14 -6 23 -9 10 -13 21 -9 24 13 14 36 6 70 -23 18 -16 40 -30 47 -30 22 0 26 100 21 465 -3 182 -5 341 -5 355 0 425 -3 856 -7 860 -2 3 -188 7 -411 10 -399 5 -407 5 -407 25 0 20 8 20 413 23 l412 2 0 273 c0 154 4 279 10 287 8 13 103 16 722 20 l713 5 -4 650 c-2 358 -5 651 -6 653 -2 2 -12 -2 -24 -9 -25 -16 -40 -4 -23 19 7 9 21 31 32 47 l20 30 -703 5 c-546 4 -707 8 -724 18 l-23 13 0 452 c0 259 4 458 10 467 8 12 175 15 1237 20 675 3 1324 6 1441 8 179 3 218 1 237 -12z m-3949 -327 c3 -6 1 -16 -5 -22 -7 -7 -11 -59 -11 -140 0 -117 -8 -167 -28 -167 -4 0 -22 9 -40 20 -32 20 -32 21 -17 50 22 42 21 202 -1 225 -28 27 -10 45 45 45 27 0 53 -5 57 -11z m-228 -25 c31 -21 53 -68 55 -114 1 -30 -7 -51 -31 -85 -36 -51 -46 -98 -13 -57 23 27 41 29 41 4 0 -23 -29 -51 -58 -57 -22 -4 -62 35 -62 59 0 6 16 35 35 65 38 58 43 87 20 131 -11 21 -23 30 -40 30 -22 0 -25 -4 -25 -37 0 -21 7 -51 15 -67 19 -35 6 -58 -23 -40 -20 13 -51 64 -57 94 -12 62 87 114 143 74z m-892 -1118 c14 -22 15 -101 15 -736 0 -763 -2 -737 49 -710 12 6 30 20 41 31 37 37 49 15 24 -43 -7 -17 8 -18 236 -18 134 0 250 -4 258 -9 8 -5 11 -16 8 -25 -5 -13 -23 -16 -84 -17 -165 -1 -407 -10 -411 -14 -3 -2 1 -11 7 -19 13 -16 7 -36 -10 -36 -6 0 -27 11 -47 25 -75 51 -72 65 -72 -299 0 -301 -1 -325 -17 -330 -10 -2 -504 -7 -1098 -10 -594 -4 -1207 -9 -1362 -12 -279 -6 -365 0 -400 28 -9 8 -12 178 -12 736 0 400 0 733 0 740 -1 9 -96 12 -440 12 l-439 0 -4 -66 c-1 -36 0 -71 4 -77 4 -6 4 -17 0 -23 -4 -7 -4 -149 0 -316 5 -167 7 -481 5 -698 -2 -217 -4 -428 -4 -467 0 -40 0 -137 0 -215 0 -79 0 -159 1 -178 1 -49 -1 -357 -3 -372 -1 -7 1 -34 5 -59 l6 -46 2187 5 c1937 4 2188 3 2199 -10 7 -9 10 -23 6 -32 -7 -18 -429 -20 -3142 -19 l-1263 1 -25 23 -25 23 5 1274 c4 904 8 1278 16 1287 9 11 101 14 450 17 294 2 443 7 450 14 7 7 11 117 13 321 2 245 5 313 16 326 12 16 125 17 1427 17 l1414 0 16 -24z m6122 -433 c6 -16 14 -39 18 -53 3 -14 33 -53 66 -87 48 -50 59 -68 56 -90 -2 -20 -9 -29 -24 -31 -18 -3 -22 4 -28 36 -6 39 -39 92 -57 92 -5 0 -9 -18 -9 -40 0 -57 -24 -100 -55 -100 -25 0 -55 41 -55 75 0 20 30 19 45 -2 11 -15 13 -15 25 7 18 34 7 102 -24 142 -38 50 -34 78 9 78 15 0 26 -9 33 -27z m-10472 -32 c3 -14 9 -45 15 -68 5 -23 9 -57 9 -75 0 -54 10 -76 38 -83 41 -10 57 14 42 61 -7 22 -21 48 -32 60 -17 19 -17 22 -3 34 12 10 20 7 49 -22 41 -41 53 -78 39 -122 -7 -24 -6 -37 8 -59 19 -33 15 -62 -14 -94 -33 -37 -90 -23 -118 29 -13 23 -47 137 -55 183 -2 17 -10 48 -15 70 -12 44 -14 98 -5 114 11 17 36 0 42 -28z m10825 -40 c27 -34 12 -45 -63 -42 l-63 2 46 -48 c50 -51 79 -100 79 -132 0 -11 -12 -33 -26 -50 -22 -27 -32 -31 -74 -31 -42 0 -52 4 -74 31 -42 50 -30 85 17 49 45 -36 87 -21 87 31 0 22 -24 65 -50 89 -26 24 -80 102 -80 114 0 14 13 16 91 14 83 -2 93 -4 110 -27z m-10439 -18 c10 -9 18 -25 18 -35 0 -17 -6 -18 -65 -12 -38 4 -65 3 -65 -3 0 -5 20 -28 44 -52 24 -24 52 -60 61 -81 17 -37 17 -40 -2 -72 -28 -48 -62 -64 -109 -53 -42 11 -80 54 -70 81 6 15 8 16 24 0 23 -20 75 -21 92 -1 22 27 2 73 -65 151 -36 41 -63 79 -60 84 4 6 45 10 92 10 66 0 91 -4 105 -17z m8067 -142 c8 -5 11 -16 8 -24 -4 -12 -36 -15 -164 -19 -156 -4 -177 -1 -166 28 4 10 41 14 146 17 78 1 147 4 152 5 6 1 16 -2 24 -7z m-4 -75 c16 -12 17 -16 6 -30 -11 -13 -38 -16 -161 -16 -113 0 -150 3 -159 14 -21 25 12 35 120 39 57 1 120 4 140 5 19 1 44 -4 54 -12z m2029 -535 c9 -10 22 -35 27 -55 6 -21 19 -45 29 -54 10 -9 29 -27 42 -39 55 -49 73 -123 30 -123 -13 0 -21 13 -31 47 -12 46 -35 83 -53 83 -4 0 -8 -19 -8 -42 0 -86 -48 -125 -89 -72 -11 15 -21 33 -21 40 0 17 32 18 47 3 20 -20 33 1 33 54 0 41 -7 61 -30 96 -23 34 -27 47 -19 62 12 24 21 24 43 0z m-10515 -10 c8 -6 16 -28 17 -53 l2 -43 40 0 c31 0 48 -7 72 -30 29 -28 31 -34 29 -90 -3 -45 1 -67 15 -87 32 -49 -2 -118 -60 -118 -68 0 -101 81 -151 367 -9 53 5 73 36 54z m5491 -66 c50 -26 73 -69 68 -126 -5 -53 -25 -82 -71 -105 -33 -17 -27 -37 9 -28 43 11 97 -41 63 -62 -15 -9 -93 -9 -107 0 -19 11 -64 106 -58 121 3 8 23 19 45 25 53 14 79 57 59 98 -13 27 -33 31 -92 20 -10 -1 -23 5 -30 15 -9 15 -7 22 13 38 28 23 62 24 101 4z m5350 1 c0 -8 -4 -18 -10 -21 -6 -4 -10 -63 -10 -144 0 -159 -6 -173 -58 -141 -32 20 -41 43 -22 55 6 4 10 53 10 115 0 87 -3 109 -15 114 -8 3 -15 12 -15 21 0 12 13 15 60 15 46 0 60 -3 60 -14z m-10480 -22 c0 -8 -7 -17 -15 -20 -12 -5 -15 -31 -15 -150 0 -161 -1 -163 -66 -123 -38 23 -41 31 -19 49 12 10 15 36 15 116 0 58 -4 106 -10 109 -5 3 -10 12 -10 20 0 9 15 15 48 17 58 4 72 0 72 -18z m4885 -16 c19 -9 28 -9 37 0 15 15 41 15 55 1 16 -16 5 -39 -18 -39 -25 0 -25 -39 0 -86 30 -56 11 -84 -30 -43 l-21 21 -23 -22 c-34 -32 -69 -21 -95 30 -26 50 -25 90 1 124 22 28 53 33 94 14z m874 -294 c93 -45 128 -61 164 -73 33 -13 35 -34 5 -48 -46 -22 -273 -113 -281 -113 -5 0 -7 10 -5 22 2 17 24 29 117 64 62 24 116 46 119 48 3 3 -4 8 -14 12 -10 3 -56 21 -101 40 -45 19 -86 34 -91 34 -5 0 -15 7 -23 16 -10 13 -10 17 2 25 21 13 25 12 108 -27z m3856 -9 c0 -14 -17 -25 -65 -43 -118 -44 -155 -60 -153 -68 1 -5 50 -27 110 -49 73 -28 109 -46 111 -58 7 -33 -29 -29 -131 17 -57 25 -108 46 -114 46 -22 0 -73 35 -71 48 2 8 23 22 48 32 25 10 90 36 145 58 55 23 105 40 110 38 6 -1 10 -11 10 -21z m-4435 -532 c0 -32 7 -44 35 -59 27 -15 25 -32 -5 -47 -23 -12 -24 -15 -21 -103 2 -72 0 -92 -12 -97 -7 -3 -18 -2 -24 1 -20 14 -153 198 -153 212 0 28 23 40 72 40 46 0 48 1 48 28 0 32 16 52 42 52 13 0 18 -8 18 -27z m-285 -19 c15 -15 17 -15 29 1 15 21 60 17 64 -6 1 -9 -8 -20 -23 -27 -30 -14 -31 -26 -5 -79 30 -64 10 -97 -29 -47 -19 25 -20 25 -31 5 -14 -27 -55 -37 -77 -20 -26 22 -55 97 -47 122 17 59 83 87 119 51z m273 -823 c30 -16 62 -69 62 -101 0 -14 -7 -36 -16 -48 -11 -16 -14 -33 -9 -55 11 -57 7 -81 -18 -102 -41 -36 -126 -15 -142 36 -10 31 10 47 34 25 11 -10 30 -16 43 -14 33 4 35 41 4 66 -33 25 -33 39 -1 54 26 12 40 42 33 75 -3 15 -12 18 -61 15 -51 -2 -57 0 -57 17 0 48 67 65 128 32z m-258 -23 c15 -9 24 -9 44 1 32 18 56 8 56 -24 0 -20 -5 -25 -25 -25 -34 0 -33 -32 1 -81 14 -21 23 -43 19 -48 -9 -16 -36 -13 -57 6 -17 15 -20 15 -41 -5 -30 -29 -40 -28 -75 7 -82 82 -15 227 78 169z m318 -834 c13 -9 22 -26 22 -41 0 -22 -3 -24 -22 -18 -44 14 -86 17 -92 7 -4 -6 13 -33 38 -61 76 -86 82 -155 17 -194 -36 -21 -63 -21 -100 -2 -30 15 -41 33 -41 66 0 23 13 25 30 4 17 -20 76 -20 84 1 18 46 -6 92 -92 182 -58 60 -50 72 52 72 58 0 88 -5 104 -16z m-319 -20 c19 -14 27 -14 46 -4 34 18 60 9 60 -20 0 -20 -5 -25 -22 -23 -30 3 -30 -24 -2 -79 18 -36 19 -42 6 -55 -13 -13 -17 -13 -36 6 l-21 21 -25 -26 c-24 -24 -26 -24 -55 -9 -37 19 -50 49 -50 115 0 41 4 52 26 69 32 25 43 26 73 5z m309 -829 c3 -3 0 -16 -8 -28 -10 -16 -13 -56 -12 -158 3 -156 0 -161 -66 -122 -46 27 -53 42 -22 50 18 5 20 14 20 105 0 73 -4 105 -16 123 -14 21 -14 24 2 33 17 10 92 8 102 -3z m-280 -31 c21 -15 25 -15 42 1 21 19 55 13 64 -11 9 -22 -1 -34 -30 -34 -14 0 -24 -6 -24 -15 0 -19 20 -66 38 -87 28 -34 -15 -53 -50 -22 -16 16 -19 15 -37 -7 -16 -20 -23 -22 -47 -14 -61 21 -85 130 -39 179 28 30 51 33 83 10z"/>
 <path d="M7998 8050 c-22 -13 -23 -33 -4 -49 11 -9 25 -9 60 0 74 18 74 43 1 54 -22 3 -48 1 -57 -5z"/>
 <path d="M8015 7829 c-8 -35 4 -53 28 -43 19 7 33 47 22 63 -14 23 -43 11 -50 -20z"/>
 <path d="M5120 8000 c-13 -9 -13 -11 0 -20 23 -15 85 -8 85 10 0 18 -62 25 -85 10z"/>
 <path d="M5542 7894 c1 -9 9 -19 16 -22 9 -3 13 2 10 14 -1 9 -9 19 -16 22 -9 3 -13 -2 -10 -14z"/>
 <path d="M5137 7853 c-12 -11 -7 -71 6 -76 32 -11 48 24 31 67 -6 16 -26 21 -37 9z"/>
 <path d="M7776 7919 c-47 -37 -29 -139 24 -139 37 0 48 17 51 77 4 79 -24 102 -75 62z"/>
 <path d="M8407 7923 c-13 -12 -7 -41 9 -47 28 -11 44 -6 41 12 -5 36 -32 54 -50 35z"/>
 <path d="M9330 7928 c-36 -39 -22 -148 20 -148 36 0 70 47 70 98 0 28 -35 72 -58 72 -6 0 -20 -10 -32 -22z"/>
 <path d="M4467 7783 c-13 -13 -7 -81 8 -93 20 -17 61 1 70 30 13 42 -49 92 -78 63z"/>
 <path d="M4905 7899 c-4 -17 -4 -51 0 -76 5 -38 9 -44 28 -41 26 4 31 24 22 94 -5 43 -10 54 -25 54 -12 0 -21 -10 -25 -31z"/>
 <path d="M7357 7793 c-4 -3 -7 -28 -7 -55 0 -37 4 -48 16 -48 34 0 54 20 54 55 0 24 -6 38 -19 45 -23 12 -35 13 -44 3z"/>
 <path d="M6876 7151 c-8 -12 -9 -839 -1 -851 7 -11 2689 -12 2790 -1 l60 6 0 425 0 425 -1422 3 c-848 1 -1424 -2 -1427 -7z"/>
 <path d="M12938 5722 l-928 -2 -2 -163 c-1 -89 -1 -216 -1 -282 0 -66 1 -468 2 -892 l1 -773 1394 0 c837 0 1397 4 1400 9 8 13 8 2092 0 2100 -6 7 -446 7 -1866 3z m-453 -444 c24 -22 42 -54 56 -98 12 -36 30 -86 40 -112 15 -40 15 -49 3 -59 -20 -16 -40 -5 -48 28 -4 15 -19 52 -32 81 -18 39 -29 52 -42 50 -16 -4 -17 -9 -5 -53 4 -11 6 -40 7 -65 1 -40 -2 -45 -23 -48 -30 -5 -81 43 -81 75 0 34 29 27 45 -12 8 -19 8 -19 12 -1 3 10 0 23 -6 29 -6 6 -11 27 -11 47 0 41 29 76 54 67 22 -9 29 9 14 33 -13 20 -48 28 -48 10 0 -5 -9 -14 -20 -20 -15 -8 -21 -6 -30 9 -13 25 -5 46 23 59 37 18 56 13 92 -20z m947 -5 c35 -34 106 -249 88 -267 -19 -19 -44 8 -66 74 -24 68 -57 111 -74 94 -6 -6 -3 -28 11 -64 11 -29 18 -64 15 -76 -7 -25 -36 -39 -64 -30 -18 6 -52 55 -52 75 0 19 27 12 43 -11 21 -33 32 -16 13 21 -32 61 -6 132 42 116 32 -10 35 13 6 42 -26 26 -27 26 -35 6 -10 -28 -35 -35 -54 -17 -8 9 -14 19 -12 22 2 4 7 15 10 25 5 13 18 17 54 17 37 0 53 -5 75 -27z m497 -32 c6 -10 8 -21 4 -24 -8 -9 -8 -71 1 -85 5 -9 22 -11 55 -6 36 5 50 2 60 -10 25 -30 6 -46 -58 -46 l-59 0 -4 -35 c-2 -19 0 -42 5 -51 12 -20 -15 -49 -37 -41 -12 5 -16 21 -16 67 0 41 -4 60 -12 61 -7 1 -38 2 -68 3 -52 1 -55 2 -55 26 0 24 3 25 69 28 l69 3 -6 58 c-4 32 -4 61 0 65 13 12 43 5 52 -13z m357 -3 c4 -7 10 -28 14 -48 7 -44 30 -46 44 -3 6 18 19 40 28 50 17 16 19 16 45 -4 39 -28 41 -51 6 -55 -21 -2 -29 -10 -37 -36 -11 -39 10 -68 58 -80 41 -11 43 -46 4 -50 -20 -2 -38 7 -73 39 -25 23 -45 37 -45 31 0 -6 11 -46 25 -89 14 -43 25 -82 25 -86 0 -5 -19 -7 -42 -5 l-43 3 3 40 c2 27 -10 77 -35 150 -43 123 -44 155 -8 155 13 0 27 -5 31 -12z m-1357 -72 c8 -10 9 -16 1 -21 -30 -18 1 -25 114 -25 127 0 150 -7 125 -36 -10 -13 -34 -15 -128 -12 l-116 3 3 -27 c4 -34 -9 -35 -47 -7 -16 12 -44 24 -62 28 -24 5 -35 13 -37 27 -2 16 5 23 37 32 21 7 50 21 63 32 28 23 32 24 47 6z m-532 -778 c4 -7 13 -31 18 -52 13 -53 28 -55 45 -5 21 58 40 68 79 40 39 -28 41 -53 4 -49 -24 3 -29 -2 -39 -32 -15 -46 -10 -56 41 -76 46 -17 63 -38 42 -51 -21 -13 -61 -3 -82 20 -11 13 -28 29 -38 37 -18 13 -19 12 -13 -23 3 -20 14 -58 24 -84 22 -58 19 -73 -14 -73 -42 0 -66 18 -54 39 10 21 -2 80 -46 209 -13 41 -22 83 -19 93 7 21 40 25 52 7z m956 -2 c8 -8 17 -33 21 -55 8 -54 30 -53 48 1 19 57 40 68 75 42 38 -29 44 -58 10 -52 -29 6 -47 -18 -47 -61 0 -23 7 -32 34 -45 19 -9 38 -16 44 -16 15 0 23 -29 9 -37 -23 -14 -62 -1 -96 33 -36 37 -55 44 -47 17 2 -10 10 -38 17 -63 7 -25 19 -55 27 -67 23 -37 -4 -53 -65 -37 -20 5 -22 11 -17 48 4 31 -4 68 -30 150 -36 109 -42 137 -29 149 11 11 31 8 46 -7z m1109 -26 c22 -27 20 -67 -2 -61 -62 15 -93 21 -97 17 -3 -2 14 -28 37 -57 22 -29 48 -68 55 -87 34 -80 -53 -150 -139 -111 -33 15 -59 68 -43 87 9 12 14 11 28 -7 25 -30 76 -29 91 3 9 21 6 32 -15 68 -14 24 -46 63 -71 88 -45 43 -58 74 -35 82 6 2 47 3 92 2 71 -1 82 -3 99 -24z m-577 -24 c14 -19 32 -37 39 -39 8 -3 32 13 55 35 43 40 71 45 71 11 0 -10 -16 -31 -35 -46 -44 -35 -44 -57 0 -96 38 -33 47 -71 17 -71 -10 0 -33 16 -52 35 -19 19 -40 35 -47 35 -7 0 -30 -15 -50 -34 -21 -18 -44 -31 -50 -29 -23 8 -13 39 22 69 19 16 35 33 35 38 0 5 -18 29 -41 53 -33 36 -38 47 -29 59 19 22 37 17 65 -20z m-949 -21 c4 -8 1 -22 -6 -30 -17 -20 12 -25 140 -22 99 2 105 1 105 -18 0 -19 -7 -20 -115 -20 -147 -1 -143 0 -128 -25 11 -17 10 -22 -1 -29 -10 -6 -26 0 -50 19 -20 16 -47 30 -61 32 -16 2 -26 10 -28 24 -2 16 5 23 37 32 21 7 50 21 63 32 28 24 37 25 44 5z"/>
 <path d="M7615 4797 c-395 -4 -721 -10 -724 -13 -8 -7 -3 -4603 5 -4615 3 -5 574 -9 1420 -9 l1414 0 3 133 c1 72 2 1114 2 2314 0 1933 -2 2183 -15 2184 -8 0 -320 3 -693 5 -373 2 -681 5 -685 6 -4 2 -331 0 -727 -5z m265 -452 c26 -32 -13 -81 -47 -59 -24 15 -27 38 -8 58 20 20 39 20 55 1z m362 -2 c10 -9 18 -22 18 -30 0 -35 71 -136 85 -121 3 3 -2 34 -12 70 -14 55 -15 69 -4 82 19 23 33 20 66 -14 24 -25 26 -30 12 -36 -22 -8 -21 -21 5 -83 l21 -52 -21 -22 c-22 -21 -22 -21 -56 -3 -32 17 -36 17 -51 2 -19 -19 -56 -21 -72 -5 -7 7 -9 25 -6 40 3 17 -4 54 -17 93 -19 54 -21 68 -10 80 16 20 19 20 42 -1z m-828 -30 c33 15 36 15 60 -4 51 -40 60 -97 10 -65 -24 16 -56 21 -67 10 -3 -4 16 -27 43 -51 60 -54 66 -82 18 -81 -18 0 -42 -2 -54 -6 -15 -6 -29 0 -52 22 -18 17 -32 35 -32 41 0 14 37 15 45 1 7 -12 45 -14 45 -2 0 4 -20 24 -44 45 -50 41 -64 70 -45 93 12 14 14 14 26 -2 12 -17 15 -17 47 -1z m474 -166 c-2 -17 -10 -22 -33 -22 -35 0 -47 31 -20 51 25 18 57 0 53 -29z m482 -602 c19 -17 39 -66 79 -189 19 -59 20 -71 8 -83 -23 -23 -44 -4 -61 55 -18 65 -40 102 -62 102 -18 0 -18 -5 3 -62 21 -58 10 -101 -25 -106 -28 -4 -48 11 -69 51 -22 43 -1 57 26 18 34 -47 40 -37 17 28 l-21 60 24 25 c13 14 33 24 45 23 16 -1 20 3 18 18 -3 20 -28 45 -44 45 -5 0 -12 -8 -15 -17 -9 -25 -25 -34 -40 -21 -18 15 -16 38 4 61 21 23 84 19 113 -8z m426 -95 c20 -22 42 -40 49 -40 6 0 28 16 48 35 39 38 49 42 66 22 8 -10 1 -22 -29 -52 -22 -22 -40 -47 -40 -56 0 -9 16 -29 35 -43 37 -28 46 -62 20 -73 -11 -3 -28 9 -51 36 -20 22 -41 41 -48 41 -7 0 -27 -16 -46 -35 -34 -35 -63 -44 -76 -24 -3 6 12 29 35 51 22 23 41 46 41 53 0 6 -16 26 -35 45 -33 32 -43 58 -28 73 12 13 23 7 59 -33z m-1368 2 c9 8 22 18 29 22 14 8 83 -50 83 -69 0 -23 -20 -28 -39 -11 -18 16 -52 21 -64 10 -3 -3 19 -31 50 -60 31 -30 52 -58 48 -62 -6 -6 -24 -8 -98 -12 -28 -2 -67 28 -67 50 0 21 24 28 35 10 7 -11 45 -14 45 -4 0 4 -20 24 -44 46 -51 44 -64 72 -45 95 12 13 15 13 31 -7 17 -20 20 -21 36 -8z m1957 -3 c19 -17 35 -40 35 -50 0 -26 -16 -24 -36 6 -17 26 -38 32 -49 14 -9 -13 14 -97 28 -106 5 -3 15 1 22 10 16 22 32 21 45 -2 23 -44 -33 -80 -70 -46 -19 17 -21 17 -38 2 -10 -10 -28 -17 -39 -17 -22 0 -83 56 -83 76 0 25 20 24 42 -1 30 -35 53 -34 43 3 -12 48 -9 79 14 111 28 39 41 39 86 0z m-121 12 c11 -17 -19 -61 -41 -61 -19 0 -23 6 -23 29 0 16 6 32 13 34 20 9 45 8 51 -2z m-1404 -61 l-12 -23 124 7 c107 6 127 5 138 -9 24 -29 -3 -37 -129 -36 -67 0 -121 -3 -121 -7 0 -5 5 -13 12 -20 9 -9 9 -15 1 -23 -8 -8 -20 -5 -45 14 -18 14 -46 28 -62 31 -63 11 -56 26 35 75 57 31 79 28 59 -9z m521 -719 c14 -15 32 -45 39 -66 7 -22 17 -49 21 -60 15 -34 38 -129 33 -137 -3 -5 -13 -8 -24 -8 -13 0 -23 14 -35 54 -10 30 -26 68 -36 85 -20 34 -55 44 -46 14 36 -126 34 -145 -16 -151 -19 -2 -32 5 -52 32 -26 34 -28 66 -6 66 6 0 18 -15 28 -32 13 -25 18 -29 21 -16 2 10 -4 28 -12 40 -33 46 -7 108 45 108 33 0 33 0 17 35 -14 31 -41 32 -60 3 -18 -27 -48 -18 -48 15 0 27 14 42 45 50 31 7 58 -3 86 -32z m906 19 c37 -22 60 -64 93 -165 12 -38 27 -76 33 -83 7 -9 5 -18 -7 -30 -25 -25 -45 -6 -71 66 -25 68 -40 92 -61 92 -18 0 -18 -9 1 -53 26 -64 15 -117 -24 -117 -24 0 -71 51 -71 77 0 24 14 31 25 13 14 -22 20 -7 20 48 l0 57 38 3 c20 2 37 6 37 9 0 11 -42 63 -51 63 -5 0 -9 -8 -9 -18 0 -28 -20 -43 -42 -31 -28 15 -23 56 10 73 35 20 41 20 79 -4z m-473 -110 c43 -44 55 -43 99 10 29 34 52 38 62 13 4 -13 -4 -26 -29 -48 -45 -38 -45 -60 -1 -108 19 -21 35 -40 35 -42 0 -2 -7 -11 -16 -20 -15 -14 -19 -12 -56 25 -22 22 -48 40 -57 40 -10 0 -30 -13 -46 -30 -16 -16 -37 -30 -47 -30 -30 0 -21 34 18 68 31 28 34 34 23 54 -6 13 -23 35 -37 50 -25 27 -25 58 0 58 7 0 30 -18 52 -40z m-1445 11 c19 -19 20 -19 37 0 27 30 69 24 98 -14 15 -19 26 -39 26 -45 0 -20 -25 -13 -50 13 -13 14 -27 25 -32 25 -16 0 -7 -75 12 -100 19 -25 19 -25 35 -5 15 20 15 20 35 -3 37 -45 -16 -83 -70 -50 -15 10 -22 9 -38 -5 -10 -9 -27 -17 -37 -17 -24 0 -86 67 -79 85 9 23 32 18 50 -10 37 -56 58 -16 27 50 -16 33 -18 34 -34 19 -25 -23 -49 -11 -49 24 0 50 35 67 69 33z m497 -47 l-6 -23 122 -3 c115 -3 123 -4 123 -23 0 -19 -6 -20 -124 -17 l-123 3 6 -26 c9 -37 -14 -41 -59 -11 -21 14 -46 26 -55 26 -10 0 -24 7 -31 16 -11 14 -10 18 6 30 10 8 26 14 35 14 9 0 31 11 49 24 39 29 65 24 57 -10z m-497 -791 c6 -21 11 -44 11 -50 0 -29 29 -10 45 29 16 40 30 57 47 58 16 0 68 -54 68 -71 0 -21 -20 -25 -37 -8 -16 16 -30 4 -38 -32 -8 -36 13 -64 63 -86 17 -7 32 -20 32 -28 0 -10 -10 -15 -32 -15 -24 0 -42 9 -67 35 -55 57 -64 45 -33 -43 10 -29 22 -55 25 -59 11 -10 8 -41 -4 -48 -6 -4 -26 -4 -45 0 -33 6 -34 8 -29 38 4 22 -4 65 -29 141 -54 163 -55 176 -11 176 19 0 26 -8 34 -37z m1035 16 c5 -5 4 -14 -3 -23 -8 -10 -11 -57 -10 -149 0 -75 -2 -140 -6 -146 -9 -16 -25 -14 -72 11 -49 26 -55 45 -18 54 30 7 40 39 26 78 -6 15 -11 54 -11 87 0 45 -3 59 -14 59 -22 0 -31 22 -14 34 17 13 108 9 122 -5z m-539 -81 l-7 -31 126 7 c111 6 127 5 132 -9 13 -33 -13 -40 -137 -36 -115 3 -133 -1 -107 -27 17 -17 -7 -41 -26 -27 -49 36 -64 44 -90 49 -16 3 -33 11 -37 18 -10 16 8 38 33 38 24 0 78 28 78 40 0 6 9 10 21 10 18 0 20 -4 14 -32z m-394 -778 c37 -74 74 -193 66 -213 -16 -43 -59 -3 -71 65 -7 41 -54 104 -67 91 -4 -4 -1 -35 6 -68 12 -52 12 -63 -1 -82 -20 -31 -34 -29 -73 11 -37 38 -39 72 -4 69 20 -2 21 0 12 27 -12 33 0 63 32 80 15 9 24 8 35 -1 22 -18 28 -4 12 28 -16 34 -43 42 -51 13 -3 -13 -13 -20 -30 -20 -46 0 -43 51 5 84 20 14 25 14 62 -7 29 -16 47 -37 67 -77z m887 6 c93 -48 111 -233 30 -301 -78 -66 -166 -2 -182 130 -7 62 23 128 74 163 39 26 43 26 78 8z m-508 -80 c-22 -22 -5 -26 116 -26 124 0 125 0 122 -22 -3 -23 -5 -23 -126 -20 l-124 3 7 -30 c8 -37 -9 -41 -47 -12 -13 11 -40 23 -59 28 -44 12 -47 42 -4 56 17 6 45 20 64 33 27 18 38 21 48 12 10 -8 11 -14 3 -22z"/>
 <path d="M7342 768 c2 -6 10 -14 16 -16 7 -2 10 2 6 12 -7 18 -28 22 -22 4z"/>
 <path d="M8300 869 c-30 -55 -20 -211 13 -217 38 -7 47 16 47 117 0 96 -8 121 -37 121 -7 0 -17 -9 -23 -21z"/>
 <path d="M3899 5716 c-3 -3 -442 -8 -975 -10 -533 -2 -993 -5 -1021 -5 l-53 -1 0 -1060 0 -1060 618 0 c1278 -1 2156 1 2161 5 17 18 21 236 18 1120 l-2 1000 -50 1 c-107 3 -313 4 -375 2 -36 -1 -121 2 -190 6 -69 4 -128 5 -131 2z m-1583 -425 c28 -17 82 -107 71 -118 -3 -2 4 -28 15 -56 28 -72 29 -101 1 -105 -19 -3 -24 4 -38 50 -19 66 -50 118 -70 118 -18 0 -16 -29 5 -88 26 -71 -34 -113 -79 -56 -21 26 -28 54 -14 54 4 0 18 -10 31 -22 23 -22 25 -22 19 -3 -33 108 -33 103 -8 129 18 20 28 23 42 16 22 -13 34 3 20 27 -13 25 -51 58 -53 47 0 -5 -2 -13 -3 -19 -2 -5 -3 -16 -4 -22 -2 -24 -40 -14 -47 12 -13 53 51 73 112 36z m964 -3 c18 -11 53 -69 56 -93 1 -8 9 -36 17 -62 9 -26 18 -65 22 -85 5 -33 3 -38 -13 -38 -13 0 -25 19 -47 75 -49 130 -101 140 -54 10 29 -80 -41 -117 -88 -46 -27 40 -29 51 -8 51 9 0 21 -11 27 -25 6 -14 15 -25 20 -25 11 0 10 8 -7 55 -19 52 -18 70 1 90 11 11 25 14 45 10 36 -8 39 10 7 50 l-22 28 -23 -28 c-25 -28 -49 -28 -60 1 -11 28 34 57 75 49 19 -3 42 -11 52 -17z m858 -36 c7 -5 14 -22 16 -38 9 -67 30 -83 46 -36 29 78 47 88 94 51 35 -28 33 -47 -6 -51 -27 -2 -34 -9 -42 -37 -8 -29 -7 -35 14 -51 14 -10 37 -21 52 -24 31 -6 39 -39 13 -50 -22 -8 -45 3 -88 41 -22 19 -41 32 -43 30 -7 -7 24 -125 39 -148 17 -28 -2 -42 -48 -33 -36 6 -37 8 -30 41 6 34 -26 162 -62 245 -13 31 -13 40 -3 53 14 17 29 19 48 7z m-1348 -86 c0 -8 -4 -18 -10 -21 -26 -16 -1 -20 110 -16 127 3 163 -6 139 -35 -9 -11 -43 -14 -135 -14 -121 0 -124 -1 -112 -20 7 -10 9 -22 6 -25 -11 -11 -148 59 -146 74 2 8 24 20 49 27 26 8 52 21 59 29 16 19 40 19 40 1z m1120 -41 c7 -8 10 -22 6 -30 -4 -12 -31 -15 -155 -15 -90 0 -152 4 -156 10 -3 6 -4 18 -1 28 6 16 21 19 150 20 118 2 145 0 156 -13z m-1676 -737 c2 -7 9 -32 15 -55 7 -24 15 -43 19 -43 5 0 19 23 33 52 13 29 30 54 36 56 17 5 76 -55 68 -68 -3 -6 -17 -7 -30 -4 -20 5 -27 1 -35 -21 -5 -14 -10 -33 -10 -41 0 -20 35 -48 68 -54 38 -7 38 -44 0 -48 -19 -2 -38 7 -68 34 -22 20 -43 34 -46 31 -8 -7 24 -127 38 -144 17 -21 -3 -35 -43 -31 -33 3 -34 4 -35 48 -1 46 -21 125 -56 217 -11 29 -18 60 -14 68 7 18 55 20 60 3z m961 -12 c9 -13 15 -28 13 -32 -1 -5 2 -19 6 -32 10 -28 31 -15 41 26 7 27 32 62 45 62 14 0 60 -50 60 -65 0 -11 -8 -15 -27 -13 -25 3 -29 -1 -37 -35 -9 -35 -8 -41 15 -58 13 -10 31 -19 40 -19 21 0 43 -26 34 -40 -14 -22 -61 -10 -95 25 -56 58 -63 45 -29 -51 19 -54 27 -90 21 -96 -5 -5 -26 -6 -46 -2 -37 6 -37 7 -31 43 4 27 -3 65 -29 146 -42 128 -45 165 -16 165 11 0 27 -11 35 -24z m599 2 c8 -14 6 -22 -10 -38 -17 -18 -22 -19 -39 -6 -17 12 -18 17 -7 41 14 29 38 31 56 3z m529 -30 c17 -22 18 -30 8 -42 -10 -11 -18 -13 -31 -6 -20 11 -90 14 -90 4 0 -3 22 -30 49 -60 55 -59 69 -100 51 -144 -12 -30 -62 -60 -99 -60 -27 0 -91 57 -91 80 0 27 19 34 39 16 10 -9 34 -16 54 -16 35 0 37 2 37 33 0 36 -31 85 -94 149 -20 20 -36 46 -36 58 0 20 4 21 91 18 87 -3 93 -5 112 -30z m-1553 -42 c0 -8 -4 -18 -10 -21 -26 -16 -1 -20 118 -20 120 0 127 -1 127 -20 0 -19 -8 -20 -126 -23 l-126 -3 5 -24 c5 -30 -17 -34 -42 -7 -9 11 -34 24 -56 31 -29 9 -40 17 -40 31 0 13 7 20 18 20 11 0 39 11 63 24 51 29 69 31 69 12z m1141 -26 c20 -11 25 -35 9 -45 -5 -3 -73 -6 -150 -7 -114 -1 -144 2 -156 14 -14 14 -14 17 1 32 14 13 39 16 146 16 72 0 139 -5 150 -10z m-123 -92 c32 -32 -7 -80 -44 -54 -16 12 -16 18 -6 40 12 28 31 33 50 14z"/>
 <path d="M386 4995 c-10 -26 15 -65 41 -65 19 0 23 5 23 30 0 41 -51 69 -64 35z"/>
 <path d="M324 4295 c-12 -48 13 -105 46 -105 33 0 44 26 30 73 -7 23 -17 45 -24 49 -23 15 -46 8 -52 -17z"/>
 <path d="M353 4144 c-7 -19 27 -68 51 -72 12 -3 16 4 16 30 0 19 -5 39 -12 46 -17 17 -48 15 -55 -4z"/>
 <path d="M5467 4314 c-13 -13 -7 -62 9 -79 19 -18 33 -16 48 8 16 25 -37 91 -57 71z"/>
 <path d="M5716 3402 c-6 -10 34 -72 47 -72 5 0 7 17 5 38 -2 29 -8 38 -25 40 -11 2 -24 -1 -27 -6z"/>
 <path d="M5474 3458 c-5 -7 -9 -20 -8 -28 1 -8 2 -23 3 -32 2 -25 42 -34 57 -13 14 19 9 40 -14 68 -18 20 -26 21 -38 5z"/>
 <path d="M5490 2576 c0 -32 20 -66 39 -66 5 0 14 7 21 15 19 22 -11 85 -40 85 -16 0 -20 -7 -20 -34z"/>
 <path d="M5501 1746 c-13 -15 -7 -75 7 -77 4 0 15 -2 24 -4 31 -6 39 18 19 55 -21 40 -33 46 -50 26z"/>
 <path d="M5527 893 c-11 -11 -8 -58 5 -71 7 -7 22 -12 35 -12 18 0 23 6 23 25 0 37 -44 77 -63 58z"/>
 </g>
<g id="layer104" fill="#ffffff" stroke="none">
 <path d="M0 4120 l0 -4120 7960 0 7960 0 0 4120 0 4120 -7960 0 -7960 0 0 -4120z m8136 3954 c29 -29 35 -40 30 -62 -10 -41 -55 -74 -91 -68 -38 7 -79 -19 -55 -34 8 -5 25 -10 37 -10 12 0 29 -3 38 -6 20 -8 46 -59 39 -77 -3 -9 3 -16 15 -20 20 -5 21 -1 21 72 0 93 11 114 60 109 l34 -3 0 -85 1 -85 31 -3 c23 -2 39 4 59 22 l27 25 -27 26 c-25 22 -27 29 -19 57 8 27 17 35 48 42 26 7 43 6 56 -2 12 -7 21 -8 25 -2 7 11 45 13 69 4 17 -6 23 -44 7 -44 -5 0 -11 -31 -13 -70 -5 -88 -27 -114 -101 -116 -32 -1 -51 4 -54 13 -7 17 -28 17 -43 -2 -13 -15 -118 -16 -153 -1 -10 5 -23 4 -31 -3 -7 -6 -44 -10 -85 -9 -60 2 -77 7 -97 25 -28 25 -33 80 -9 89 19 8 19 40 0 48 -11 4 -14 16 -10 47 3 23 1 46 -4 53 -13 16 -8 70 8 90 10 12 31 16 83 16 65 0 70 -2 104 -36z m-2881 -55 c13 -13 25 -30 25 -36 0 -8 10 -11 28 -7 57 11 104 -30 71 -63 -15 -15 -7 -84 12 -96 13 -8 68 8 97 29 2 1 -8 13 -22 27 -31 31 -32 47 -7 78 14 17 28 23 56 22 20 -1 42 -6 47 -11 7 -7 18 -6 33 4 16 11 29 12 47 5 33 -12 40 -33 22 -60 -11 -14 -14 -40 -12 -81 4 -77 -11 -93 -84 -94 -29 -1 -66 4 -81 12 -19 9 -32 10 -40 3 -7 -5 -48 -9 -92 -9 -44 0 -84 -1 -90 -2 -5 -1 -44 -2 -86 -2 -80 -1 -112 10 -129 42 -10 19 -12 19 -40 -11 -23 -26 -37 -32 -76 -34 -37 -1 -52 3 -73 22 -25 24 -26 24 -35 4 -12 -28 -35 -33 -88 -22 -59 14 -84 5 -103 -35 -27 -57 -56 -69 -166 -70 -114 -2 -124 2 -109 40 5 15 10 74 10 130 0 80 -3 106 -15 116 -23 19 -18 37 13 47 23 7 49 8 130 4 17 -1 15 -40 -3 -47 -10 -4 -15 -20 -15 -45 0 -38 1 -39 35 -39 39 0 93 -24 112 -49 6 -9 14 -13 17 -10 6 5 8 112 3 159 -2 22 3 26 38 30 72 10 74 7 68 -75 -6 -77 1 -92 37 -80 15 5 20 15 20 39 0 39 35 95 70 114 14 7 42 11 65 8 47 -6 92 -49 102 -98 5 -24 8 -27 15 -14 5 9 5 23 0 33 -13 26 -22 106 -14 120 14 23 57 33 119 29 49 -3 68 -9 88 -27z m4164 -48 c27 -15 60 -63 67 -99 7 -33 -25 -106 -54 -120 -27 -14 -117 -8 -144 10 -27 18 -58 74 -58 105 0 33 36 86 70 104 35 19 83 19 119 0z m1521 4 c7 -8 10 -24 7 -35 -3 -12 -1 -35 5 -53 12 -37 18 -116 9 -118 -28 -6 -68 -4 -78 4 -9 6 -17 6 -25 0 -15 -12 -58 -11 -75 0 -7 5 -13 23 -13 41 0 19 -7 53 -15 76 -8 23 -15 53 -15 66 0 20 5 24 30 24 28 0 33 -6 61 -69 34 -77 64 -105 48 -45 -16 57 -19 97 -7 111 14 18 53 16 68 -2z m-5135 -5 c85 4 99 3 103 -8 3 -9 9 -8 25 3 27 19 67 19 92 1 16 -11 17 -16 6 -29 -8 -10 -11 -40 -10 -86 3 -57 0 -73 -15 -90 -21 -23 -84 -29 -103 -10 -7 7 -17 8 -29 1 -25 -12 -155 -15 -173 -3 -10 6 -13 35 -13 111 0 115 5 124 62 115 19 -3 44 -5 55 -5z m560 -4 c16 -11 17 -17 7 -29 -8 -9 -13 -61 -15 -147 -2 -159 -7 -166 -83 -133 -49 21 -72 53 -38 53 15 0 16 11 12 106 -4 85 -8 108 -21 116 -10 5 -17 13 -17 19 0 27 122 39 155 15z m146 -6 l28 -21 18 21 c13 15 29 20 68 20 60 -1 86 -14 120 -60 30 -41 32 -79 4 -114 -13 -17 -18 -33 -14 -44 18 -43 14 -67 -16 -94 -34 -31 -74 -36 -117 -14 -38 20 -65 53 -59 71 8 20 31 19 63 -2 22 -14 27 -14 35 -2 14 22 11 59 -5 59 -7 0 -19 6 -25 14 -10 11 -5 20 24 41 26 20 35 35 35 56 0 24 -4 29 -24 29 -14 0 -27 -4 -30 -9 -7 -10 -61 -9 -72 1 -3 4 -15 -3 -26 -17 -21 -26 -54 -29 -80 -7 -25 21 -22 58 4 76 29 20 34 20 69 -4z m859 5 c11 -13 9 -20 -9 -38 -40 -44 -22 -87 37 -87 60 0 111 -43 112 -93 0 -39 -14 -62 -54 -86 -30 -19 -47 -21 -128 -19 -79 3 -93 6 -96 21 -2 10 3 17 12 17 24 0 24 241 0 261 -14 12 -14 14 2 26 25 18 108 17 124 -2z m237 -1 c3 -8 1 -20 -6 -27 -15 -15 -14 -110 1 -125 7 -7 26 -12 44 -12 34 0 52 -23 34 -45 -10 -12 -110 -19 -141 -10 -17 6 -24 61 -8 70 15 10 10 71 -8 103 -24 42 -12 62 37 62 28 0 43 -5 47 -16z m252 0 c111 -55 80 -221 -42 -229 -101 -7 -168 96 -122 185 29 56 101 75 164 44z m798 0 c3 -8 0 -25 -6 -38 -17 -32 -10 -106 12 -120 12 -8 22 -8 35 0 24 15 28 95 7 128 -23 34 -12 46 41 46 47 0 68 -20 45 -43 -6 -6 -11 -34 -11 -63 0 -55 17 -81 46 -70 14 6 16 18 11 85 -5 87 -3 91 64 91 l25 0 -4 -92 c-6 -124 -22 -150 -90 -143 -54 6 -53 6 -152 1 -41 -2 -83 1 -92 6 -19 9 -24 43 -8 53 17 10 12 106 -6 126 -26 29 -11 49 36 49 28 0 43 -5 47 -16z m534 -81 c1 -54 2 -118 1 -142 -2 -42 -1 -43 23 -37 25 6 65 -7 65 -22 0 -25 -31 -46 -71 -48 -82 -4 -101 34 -103 213 l-2 133 42 0 42 0 3 -97z m405 15 l-1 -83 36 -3 c33 -3 37 -6 36 -30 -2 -36 -12 -42 -75 -42 -86 0 -88 2 -85 119 1 55 4 105 8 111 3 5 23 10 44 10 l38 0 -1 -82z m279 46 c15 -15 17 -15 34 0 10 9 26 16 36 16 29 0 95 -50 95 -72 0 -31 -29 -33 -60 -3 -27 26 -30 26 -36 10 -4 -10 -2 -25 5 -34 6 -9 14 -24 17 -33 7 -21 9 -21 33 -6 36 22 66 -32 38 -69 -14 -20 -54 -15 -70 7 l-14 20 -18 -20 c-26 -28 -62 -25 -96 9 -50 51 -30 84 25 40 l26 -20 -4 53 c-2 29 -5 54 -5 56 -1 1 -12 -5 -26 -14 -30 -20 -54 -6 -53 29 3 46 41 62 73 31z m706 -40 c9 -11 8 -18 -6 -34 -16 -18 -31 -20 -151 -20 -144 0 -164 4 -164 29 0 32 20 37 164 39 116 1 147 -2 157 -14z m710 -35 c8 -13 4 -94 -7 -127 -6 -20 -54 -34 -70 -21 -11 9 -14 8 -14 -5 0 -9 6 -16 13 -16 19 0 99 -79 94 -93 -9 -27 -39 -16 -87 32 -27 27 -50 54 -50 60 0 6 -5 11 -11 11 -12 0 -25 13 -56 57 -27 37 -29 53 -8 53 8 0 15 -4 15 -10 0 -5 11 -17 25 -26 20 -13 28 -14 40 -4 8 7 22 10 30 6 11 -4 15 1 15 18 0 18 -4 23 -18 19 -22 -5 -47 21 -39 41 10 26 112 29 128 5z m-705 -41 c4 -6 -3 -19 -16 -30 -19 -15 -41 -18 -154 -18 -136 0 -156 5 -156 42 0 17 13 18 159 18 111 0 162 -4 167 -12z m495 -58 c22 -13 25 -48 4 -56 -12 -5 -11 -11 7 -34 20 -28 20 -30 4 -54 -9 -15 -20 -26 -24 -27 -47 -7 -73 -4 -86 10 -17 19 -10 71 9 71 22 0 23 24 1 35 -11 6 -22 18 -24 28 -6 30 69 48 109 27z m-1321 -565 c10 -12 12 -122 12 -478 l-1 -462 -33 -18 c-31 -16 -81 -17 -705 -14 -669 2 -673 2 -667 -18 3 -11 14 -26 25 -34 39 -28 10 -79 -31 -53 -16 10 -18 6 -22 -35 -1 -25 -3 -314 -3 -642 l0 -596 92 3 c56 2 94 -1 98 -8 8 -13 122 -13 130 0 4 6 53 10 115 10 62 0 111 -4 115 -10 8 -13 62 -13 70 0 4 6 151 10 409 10 397 0 403 0 422 -21 18 -20 19 -42 22 -305 l3 -284 412 -2 c398 -3 412 -4 415 -22 9 -44 -9 -46 -430 -46 l-398 0 -1 -127 c-1 -71 -3 -148 -5 -173 -5 -73 -5 -89 -1 -460 2 -195 5 -474 6 -619 1 -250 2 -263 19 -249 83 71 159 67 101 -5 l-20 -27 1655 0 c1091 0 1657 3 1661 10 4 7 426 10 1232 10 l1225 0 -4 59 c-1 33 0 63 5 67 11 11 9 242 -3 249 -5 3 -10 17 -10 30 0 13 5 27 10 30 11 7 14 267 3 278 -9 9 -8 131 1 145 4 7 5 16 1 22 -3 5 -7 373 -8 817 l-2 808 -384 3 c-275 1 -388 -1 -397 -9 -12 -10 -14 -135 -14 -735 0 -711 0 -724 -20 -744 -11 -11 -30 -20 -42 -20 -13 1 -617 -2 -1343 -5 -726 -3 -1358 -2 -1404 1 -70 6 -89 11 -108 30 -23 23 -23 24 -23 314 0 159 -3 290 -8 290 -4 0 -24 -11 -44 -25 -57 -39 -102 -30 -78 15 11 20 8 20 -249 20 -240 0 -261 1 -282 19 -23 18 -23 20 -6 39 19 21 -2 20 419 21 l107 1 3 28 c2 21 9 28 31 30 15 2 27 -1 27 -7 0 -6 18 -20 40 -31 l40 -20 0 419 c0 292 3 422 11 427 8 4 8 9 0 17 -7 7 -11 107 -11 308 0 270 2 299 18 319 18 22 19 22 344 21 218 -1 328 2 333 9 8 13 122 13 130 0 3 -5 35 -10 70 -10 35 0 67 5 70 10 3 6 28 10 55 10 27 0 52 -4 55 -10 3 -5 30 -10 60 -10 30 0 57 5 60 10 3 6 35 10 70 10 35 0 67 -4 70 -10 3 -5 42 -10 85 -10 43 0 82 5 85 10 3 6 17 10 30 10 13 0 27 -4 30 -10 9 -14 91 -12 115 2 16 10 24 10 40 0 16 -10 151 -12 608 -12 546 1 587 0 599 -16 10 -14 13 -94 13 -333 l0 -316 412 3 c329 2 417 0 431 -10 17 -13 18 -77 18 -1307 -1 -712 -4 -1298 -8 -1302 -15 -13 -62 -19 -68 -9 -4 6 -11 8 -16 4 -5 -3 -473 -5 -1038 -4 -701 0 -1031 -3 -1036 -10 -9 -14 -71 -13 -95 2 -16 10 -24 10 -40 0 -25 -15 -1145 -18 -1155 -2 -8 14 -442 13 -450 0 -9 -14 -109 -12 -123 2 -9 9 -15 9 -24 0 -16 -16 -103 -15 -128 0 -15 10 -22 10 -32 0 -9 -9 -192 -12 -803 -12 l-791 0 0 -32 c1 -40 -16 -46 -46 -16 -28 28 -69 51 -77 42 -3 -3 -7 -521 -8 -1152 -1 -630 -4 -1156 -7 -1169 -12 -47 69 -44 -1076 -43 -371 0 -934 -2 -1250 -4 -627 -4 -633 -3 -646 50 -4 15 -5 159 -2 321 3 161 2 293 -2 293 -5 0 -27 -16 -50 -35 -23 -19 -51 -35 -61 -35 -25 0 -36 27 -21 51 11 17 -1 18 -318 21 -230 2 -332 6 -340 14 -16 16 6 58 25 50 8 -3 17 -1 20 4 9 15 172 12 195 -2 15 -10 22 -10 32 0 15 15 90 16 104 2 7 -7 64 -10 150 -8 l139 3 -3 28 c-3 23 0 27 21 27 13 0 32 -9 42 -20 10 -11 29 -20 42 -20 l23 0 1 553 c0 303 2 642 5 752 4 202 -1 295 -17 295 -4 0 -23 -13 -42 -29 -55 -49 -106 -18 -57 34 l22 24 -353 -6 -354 -6 -19 22 c-18 20 -18 23 -4 37 13 14 59 16 351 15 310 -2 371 3 337 24 -5 3 -10 13 -10 21 0 24 59 17 92 -11 16 -14 33 -25 38 -25 15 0 19 109 14 440 -3 184 -5 351 -5 370 0 514 -2 846 -6 850 -2 3 -183 6 -401 8 -267 2 -400 6 -409 14 -17 13 -17 48 0 48 6 1 192 2 412 3 l400 2 3 276 c2 219 5 279 16 288 10 8 205 11 711 11 637 0 700 1 717 17 16 14 18 34 18 204 0 114 -4 190 -10 194 -6 4 -10 161 -10 439 l0 433 -30 -5 c-35 -5 -38 5 -12 39 27 34 33 66 14 74 -8 3 -321 5 -695 5 -542 -1 -683 2 -698 12 -19 13 -20 29 -20 477 0 255 3 466 5 469 3 2 95 4 205 3 130 -1 201 2 206 8 4 8 393 11 1259 11 1103 0 1255 -2 1266 -15z m-3950 -335 c0 -11 -7 -23 -15 -26 -12 -5 -15 -31 -15 -144 0 -156 -6 -173 -58 -146 -41 21 -58 44 -44 58 8 8 12 51 12 117 0 82 -3 108 -16 122 -26 28 -8 39 67 39 63 0 69 -2 69 -20z m-237 -11 c59 -45 78 -146 39 -199 -21 -27 -21 -28 -2 -33 49 -13 1 -84 -57 -85 -55 -1 -80 53 -47 103 15 24 15 25 -3 25 -30 0 -70 43 -84 89 -11 38 -10 44 8 69 40 54 101 67 146 31z m-895 -1113 c11 -11 13 -72 12 -304 0 -191 3 -293 10 -297 13 -8 13 -168 0 -181 -7 -7 -9 -127 -8 -340 3 -369 1 -361 73 -304 21 16 42 30 47 30 18 0 21 -34 5 -62 l-16 -28 257 -2 c257 -3 257 -3 260 -25 2 -16 -3 -24 -20 -28 -20 -4 -255 -12 -427 -14 -43 -1 -52 -4 -43 -13 18 -18 15 -36 -7 -43 -13 -4 -35 4 -60 21 -73 48 -72 55 -71 -302 1 -174 -1 -318 -3 -321 -3 -2 -232 -4 -510 -3 -338 0 -508 -3 -512 -10 -8 -13 -152 -13 -160 0 -4 7 -11 8 -18 2 -16 -13 -1570 -21 -1622 -9 -70 17 -67 2 -67 347 1 172 3 315 6 318 8 7 7 87 0 95 -10 10 -11 620 -1 634 5 7 5 18 0 25 -4 7 -8 29 -8 48 l0 35 -436 3 -436 2 4 -1247 c2 -685 6 -1249 9 -1252 3 -3 993 -4 2200 -2 l2194 3 0 -30 c0 -17 -4 -33 -9 -37 -5 -3 -997 -6 -2204 -8 l-2195 -2 -26 28 -26 28 -1 586 c0 322 3 588 6 591 8 8 6 117 -2 126 -9 9 -10 147 -1 153 10 5 11 807 1 816 -8 9 -7 148 2 170 4 9 3 23 -2 30 -13 16 -14 55 -2 62 5 4 9 15 9 26 0 16 7 19 48 19 26 1 208 0 404 0 235 0 359 3 363 10 3 5 28 10 55 10 l48 0 1 322 c0 177 4 325 9 330 9 9 1150 14 2182 10 550 -2 677 -5 688 -16z m6125 -433 c8 -16 17 -41 21 -57 4 -16 26 -46 50 -67 53 -47 81 -97 73 -131 -6 -21 -12 -25 -39 -24 -32 2 -33 3 -39 54 -8 61 -12 67 -35 58 -13 -5 -15 -14 -11 -41 7 -42 -22 -85 -59 -85 -26 0 -64 49 -64 83 0 23 28 33 51 18 18 -10 19 -7 19 42 0 41 -6 61 -25 87 -28 37 -31 60 -13 78 22 22 57 14 71 -15z m-10473 -22 c5 -11 10 -38 10 -60 0 -23 4 -41 9 -41 5 0 7 -18 4 -39 -8 -56 14 -103 47 -99 20 2 25 8 24 28 -1 34 -13 60 -37 88 -44 48 29 54 74 6 20 -21 24 -36 24 -88 0 -69 14 -97 46 -89 11 3 28 -2 39 -12 17 -15 24 -16 45 -7 41 19 32 52 -41 142 -36 45 -64 89 -62 98 3 14 18 18 83 20 106 4 119 0 132 -42 6 -19 8 -37 5 -40 -9 -10 -50 -7 -57 4 -7 11 -75 14 -75 3 0 -3 27 -34 60 -69 47 -49 60 -69 60 -94 0 -41 -25 -89 -53 -99 -37 -14 -97 -4 -124 21 -19 17 -27 19 -30 10 -10 -26 -54 -62 -78 -62 -38 0 -116 84 -100 110 3 5 1 11 -4 14 -9 6 -29 77 -36 131 -2 17 -5 32 -6 35 -1 3 -3 10 -4 15 -1 6 -5 17 -8 25 -15 39 -15 76 0 93 21 22 40 22 53 -2z m10745 -31 c4 -6 13 -5 24 2 29 18 71 -13 71 -52 0 -32 0 -32 -75 -31 l-50 1 37 -32 c42 -38 78 -98 78 -131 0 -24 -24 -64 -48 -83 -8 -6 -38 -10 -66 -9 -66 3 -66 3 -66 15 0 6 -9 19 -20 30 -42 42 -13 86 33 49 34 -26 61 -24 77 6 12 22 10 28 -16 61 -16 20 -33 44 -39 53 -5 9 -15 19 -21 23 -18 12 -55 88 -49 99 8 12 122 12 130 -1z m-2277 -207 c2 -17 -3 -24 -20 -27 -44 -9 -319 -13 -324 -4 -3 4 -2 17 1 28 6 18 17 20 138 23 205 5 202 5 205 -20z m-7 -59 c11 -14 10 -19 -10 -35 -20 -17 -41 -19 -167 -19 -131 0 -144 2 -154 19 -19 37 -12 40 98 44 59 1 132 4 163 5 42 1 60 -2 70 -14z m2019 -522 c12 -10 23 -30 23 -47 2 -21 17 -46 55 -84 28 -30 52 -60 52 -66 0 -7 7 -15 15 -19 10 -3 14 -16 12 -38 -2 -29 -6 -33 -32 -33 -20 0 -30 5 -31 15 0 8 -6 28 -12 43 -7 16 -12 34 -12 42 0 7 -7 15 -15 19 -12 4 -15 -4 -15 -39 0 -90 -78 -127 -116 -54 -19 38 -12 63 16 55 65 -19 60 -21 60 30 0 26 -6 54 -14 63 -8 9 -23 32 -34 52 -18 33 -19 39 -6 58 18 26 26 26 54 3z m-10504 -32 c1 -8 2 -30 3 -47 1 -28 5 -33 25 -33 93 0 127 -35 116 -123 -5 -48 -3 -60 12 -74 12 -11 18 -30 18 -59 0 -34 -5 -47 -26 -63 -35 -28 -66 -26 -102 4 -26 22 -62 100 -66 145 -1 9 -6 22 -10 29 -5 8 -9 37 -10 65 -1 28 -7 61 -14 73 -13 24 -16 85 -5 97 13 12 58 2 59 -14z m5501 -66 c23 -17 34 -36 38 -62 3 -20 8 -46 10 -56 7 -32 -22 -84 -57 -103 l-33 -18 36 -3 c46 -4 78 -35 62 -60 -10 -17 -81 -25 -126 -14 -19 4 -67 93 -67 123 0 15 38 39 64 39 25 0 48 37 44 72 l-3 33 -57 -3 c-51 -3 -57 -1 -63 19 -12 36 37 73 84 64 20 -4 50 -18 68 -31z m5331 8 c2 -12 -1 -22 -7 -22 -7 0 -11 -47 -11 -139 0 -114 -3 -142 -16 -155 -14 -15 -19 -14 -55 6 -44 24 -45 27 -24 54 10 13 14 46 15 112 0 79 -3 97 -21 121 -12 16 -19 33 -16 38 3 4 34 8 69 7 57 -1 63 -3 66 -22z m-10481 -8 c3 -8 -4 -25 -16 -38 -21 -22 -22 -32 -20 -157 3 -154 -2 -161 -72 -115 -41 27 -50 50 -24 60 12 4 15 26 15 109 0 63 -4 107 -11 114 -7 7 -9 19 -6 27 9 23 125 23 134 0z m4876 -19 c9 -4 23 -3 30 2 6 6 26 9 42 9 25 -1 31 -6 33 -29 3 -22 -1 -30 -17 -34 -27 -7 -27 -34 2 -83 21 -37 21 -40 5 -57 -17 -16 -19 -16 -48 5 -16 13 -30 18 -30 12 0 -6 -11 -16 -25 -22 -65 -29 -126 63 -106 163 1 3 10 15 20 26 20 21 57 24 94 8z m866 -291 c29 -14 78 -34 108 -45 29 -12 66 -32 81 -45 l27 -24 -25 -20 c-14 -11 -30 -20 -36 -20 -6 0 -66 -23 -133 -51 -98 -42 -124 -49 -136 -39 -26 22 1 47 87 81 46 17 101 38 123 45 26 8 32 13 18 13 -12 1 -59 17 -105 37 -46 19 -93 39 -105 44 -22 9 -30 30 -16 43 13 14 61 6 112 -19z m3874 -2 c14 -15 14 -21 4 -34 -12 -14 -97 -50 -127 -53 -8 -1 -32 -10 -53 -21 l-38 -20 78 -31 c43 -18 88 -35 100 -38 13 -3 30 -13 38 -22 14 -14 14 -17 -1 -34 -9 -11 -22 -19 -29 -19 -6 0 -56 20 -111 45 -54 25 -104 45 -110 45 -20 0 -75 32 -81 47 -9 22 14 38 92 66 39 14 102 39 140 56 84 36 78 35 98 13z m-4425 -558 c2 -22 11 -35 28 -43 30 -14 29 -42 -3 -56 -27 -11 -38 -67 -31 -150 5 -57 -6 -72 -41 -60 -14 5 -27 22 -83 110 -7 11 -18 23 -25 28 -17 11 -53 72 -53 90 0 29 30 47 76 47 42 0 44 1 44 28 0 38 7 44 50 40 31 -3 35 -6 38 -34z m-305 1 c9 -4 23 -3 30 2 25 20 58 13 68 -14 10 -27 0 -43 -28 -43 -18 0 -16 -17 9 -67 16 -33 19 -48 12 -61 -16 -24 -31 -25 -52 -4 -18 18 -19 18 -42 0 -12 -10 -29 -18 -37 -18 -25 0 -80 66 -87 104 -7 39 12 88 41 104 18 11 59 9 86 -3z m246 -815 c55 -15 91 -62 91 -117 0 -25 -8 -58 -17 -74 -16 -27 -16 -29 1 -48 23 -25 14 -74 -17 -94 -18 -11 -81 -16 -119 -8 -17 3 -48 47 -48 68 0 27 16 29 56 9 15 -8 31 -13 36 -10 15 10 8 49 -12 62 -27 17 -25 46 5 60 25 11 42 52 30 71 -8 14 -113 7 -128 -8 -6 -6 -18 -11 -27 -11 -29 0 -29 -11 2 -61 24 -40 28 -52 18 -64 -16 -19 -39 -19 -61 1 -16 15 -20 14 -40 -5 -30 -28 -42 -27 -84 11 -26 22 -35 37 -31 51 2 11 0 27 -6 37 -13 20 3 70 28 91 19 16 72 21 94 9 11 -6 28 -5 50 3 29 11 33 10 50 -10 18 -23 33 -21 24 2 -6 14 32 45 56 45 8 0 31 -4 49 -10z m113 -890 c34 -46 -2 -80 -48 -45 -22 17 -60 19 -69 4 -4 -6 13 -30 38 -54 52 -50 66 -73 72 -118 7 -57 -36 -96 -112 -103 -26 -2 -41 5 -69 31 -42 40 -42 68 -1 73 15 2 27 -1 27 -6 0 -18 33 -22 56 -7 13 9 24 24 24 34 0 10 -30 53 -67 96 -59 69 -67 76 -74 58 -10 -28 -27 -37 -44 -23 -12 10 -13 7 -6 -17 5 -16 16 -44 26 -62 16 -32 16 -34 -4 -54 -20 -20 -21 -20 -40 -3 -19 17 -21 17 -36 2 -35 -34 -96 -9 -121 50 -22 52 -18 89 14 122 36 40 68 49 93 27 14 -14 22 -15 33 -6 7 6 20 9 27 6 8 -3 25 2 39 9 18 10 55 14 124 13 93 -2 100 -3 118 -27z m-27 -830 c3 -6 -3 -22 -14 -37 -12 -14 -18 -31 -13 -37 4 -6 7 -67 6 -136 -1 -121 -2 -125 -23 -128 -28 -4 -101 42 -101 64 0 9 9 18 20 21 18 5 20 14 20 101 0 74 -4 99 -16 114 -14 14 -14 20 -4 33 14 17 115 21 125 5z m-279 -31 c4 -8 9 -8 17 0 15 15 70 14 85 -1 21 -21 14 -47 -15 -54 -40 -10 -45 -14 -33 -29 7 -8 20 -31 31 -52 18 -36 18 -38 1 -56 -18 -17 -19 -17 -45 3 -23 19 -27 19 -35 4 -12 -22 -60 -26 -88 -7 -42 27 -54 126 -21 176 14 22 25 27 57 27 21 0 42 -5 46 -11z"/>
 <path d="M8008 8044 c-11 -11 -10 -54 1 -54 6 0 13 5 16 10 3 6 19 10 35 10 26 0 48 15 38 25 -8 9 -84 16 -90 9z"/>
 <path d="M8402 7908 c6 -16 36 -34 44 -26 3 4 4 14 1 23 -7 17 -51 21 -45 3z"/>
 <path d="M8026 7834 c-9 -23 -7 -54 3 -54 5 0 16 11 24 24 12 17 13 26 4 35 -15 15 -24 14 -31 -5z"/>
 <path d="M8410 7816 c0 -18 17 -29 30 -21 8 5 7 11 -1 21 -15 18 -29 18 -29 0z"/>
 <path d="M5130 7996 c-11 -14 -7 -16 30 -16 29 0 40 4 38 13 -7 18 -53 20 -68 3z"/>
 <path d="M5247 7919 c-9 -6 -26 -8 -36 -4 -25 8 -38 -13 -14 -22 31 -11 73 -63 73 -91 0 -21 2 -24 10 -12 11 17 13 100 4 124 -7 18 -12 19 -37 5z"/>
 <path d="M4913 7893 c-17 -35 -16 -43 3 -83 12 -24 19 -29 25 -19 10 17 11 55 3 98 -8 38 -15 39 -31 4z"/>
 <path d="M5540 7895 c0 -8 5 -15 10 -15 6 0 10 7 10 15 0 8 -4 15 -10 15 -5 0 -10 -7 -10 -15z"/>
 <path d="M5130 7827 c0 -34 23 -52 41 -31 15 18 2 47 -25 52 -11 3 -16 -4 -16 -21z"/>
 <path d="M5540 7811 c0 -11 5 -23 10 -26 6 -3 10 3 10 14 0 11 -4 23 -10 26 -5 3 -10 -3 -10 -14z"/>
 <path d="M4480 7736 c0 -48 8 -60 34 -50 31 12 17 94 -15 94 -16 0 -19 -8 -19 -44z"/>
 <path d="M9346 7925 c-32 -29 -36 -91 -8 -125 35 -43 62 -8 62 81 0 62 -18 77 -54 44z"/>
 <path d="M5792 7919 c-16 -25 -15 -84 1 -98 21 -16 27 -3 27 55 0 58 -10 73 -28 43z"/>
 <path d="M7357 7793 c-11 -10 -8 -81 3 -88 6 -3 19 -3 30 0 26 8 27 56 2 78 -20 19 -26 20 -35 10z"/>
 <path d="M7775 7906 c-32 -42 -32 -76 0 -106 24 -23 25 -23 45 -5 28 26 29 115 0 132 -17 11 -22 9 -45 -21z"/>
 <path d="M6874 7149 c-2 -4 -4 -196 -3 -428 l0 -421 1420 0 1419 0 -2 428 -3 427 -1413 0 c-778 0 -1416 -3 -1418 -6z"/>
 <path d="M13868 5725 c-3 -3 -417 -5 -921 -5 -504 0 -918 -3 -921 -8 -7 -12 -10 -453 -8 -1324 l2 -777 1385 0 c1113 1 1386 3 1395 14 7 9 10 329 8 1056 l-3 1044 -88 3 c-49 2 -94 -1 -100 -6 -14 -9 -284 -7 -309 3 -10 4 -26 4 -35 -1 -28 -12 -62 -14 -68 -3 -8 12 -222 12 -230 -1 -3 -5 -17 -10 -30 -10 -13 0 -27 5 -30 10 -7 11 -38 14 -47 5z m-1371 -451 c28 -28 44 -60 70 -137 39 -118 40 -133 12 -142 -26 -9 -41 6 -62 65 -20 53 -56 114 -63 107 -3 -3 1 -20 9 -38 14 -36 16 -106 4 -126 -14 -22 -69 -7 -94 23 -34 43 -30 81 10 75 4 0 7 19 7 43 0 50 16 69 56 64 34 -4 41 13 13 30 -18 12 -24 11 -45 -9 -23 -22 -24 -22 -44 -4 -25 23 -25 40 0 65 33 33 84 27 127 -16z m942 4 c27 -27 53 -86 56 -123 0 -5 3 -14 6 -20 4 -5 14 -34 24 -63 18 -57 11 -82 -25 -82 -19 0 -52 43 -49 63 5 27 -47 121 -61 112 -5 -3 -2 -21 6 -40 22 -53 19 -112 -7 -125 -32 -17 -65 -4 -89 35 -25 40 -20 70 9 62 16 -4 18 1 16 37 -3 48 17 76 52 76 28 0 30 21 3 45 -19 18 -20 17 -20 -3 0 -31 -32 -45 -59 -26 -16 11 -20 22 -15 37 9 33 33 47 80 47 34 0 48 -6 73 -32z m493 -30 c1 -13 0 -41 -1 -64 -3 -46 20 -77 41 -56 22 22 67 14 80 -12 20 -45 6 -55 -63 -49 l-62 6 7 -66 c7 -60 6 -66 -13 -72 -33 -10 -41 2 -41 59 0 39 -5 57 -19 70 -10 10 -21 13 -24 9 -5 -7 -64 -9 -98 -4 -11 2 -7 51 5 59 6 4 38 9 71 12 54 4 60 7 63 29 2 13 -1 28 -7 34 -26 26 -4 67 36 67 17 0 23 -6 25 -22z m357 -2 c5 -6 11 -26 13 -45 3 -31 28 -59 28 -31 0 7 7 28 17 47 14 31 19 34 46 29 63 -13 95 -76 40 -76 -39 0 -61 -45 -36 -72 9 -10 30 -22 46 -26 39 -10 55 -35 38 -56 -22 -26 -58 -19 -101 20 -22 20 -40 35 -40 32 0 -2 11 -38 25 -81 14 -43 24 -81 21 -86 -4 -6 -69 -8 -98 -2 -12 2 -9 29 4 51 9 14 9 24 0 42 -18 35 -43 111 -38 116 3 2 -4 20 -14 40 -14 29 -20 89 -11 108 4 7 53 -1 60 -10z m-1347 -93 l3 -28 115 -1 115 -1 3 -26 c2 -15 0 -27 -5 -28 -48 -4 -136 -2 -140 4 -2 4 -26 7 -53 7 l-49 0 5 -30 c9 -44 -17 -49 -68 -14 -23 16 -50 29 -61 29 -24 0 -42 26 -34 47 3 9 28 21 56 28 27 6 55 18 62 26 20 24 47 17 51 -13z m-540 -760 c10 -9 18 -26 18 -37 0 -12 5 -28 10 -36 7 -12 12 -8 21 18 19 56 70 69 109 28 28 -31 21 -60 -14 -54 -20 4 -25 -1 -34 -28 -11 -38 -7 -44 51 -67 28 -12 37 -22 37 -40 0 -22 -4 -25 -37 -25 -27 0 -46 7 -65 26 -15 14 -30 24 -32 21 -2 -2 5 -34 16 -71 23 -76 19 -98 -16 -98 -44 0 -79 18 -71 38 13 31 12 74 -2 103 -8 16 -16 39 -17 51 -3 23 -6 30 -32 96 -7 18 -11 39 -9 47 3 8 7 22 10 30 6 20 34 19 57 -2z m964 -5 c4 -7 10 -28 14 -48 7 -44 20 -45 34 -2 20 57 65 69 105 27 27 -29 22 -55 -12 -55 -70 0 -58 -77 16 -96 52 -13 46 -54 -9 -60 -20 -2 -36 6 -58 27 -39 38 -44 21 -16 -52 30 -81 28 -99 -14 -99 -19 0 -37 4 -41 10 -3 5 -12 7 -20 3 -17 -6 -22 32 -5 42 12 8 13 48 1 61 -10 10 -55 159 -64 210 -3 18 -3 34 0 38 11 11 62 6 69 -6z m1104 -25 c11 -15 20 -36 18 -47 -3 -18 -9 -21 -48 -17 -25 1 -51 8 -58 13 -7 6 -15 8 -19 4 -4 -3 3 -13 15 -22 12 -8 22 -22 22 -30 0 -8 7 -17 15 -20 24 -10 55 -69 55 -105 0 -53 -36 -90 -90 -93 -45 -3 -92 13 -106 35 -4 7 -9 27 -11 46 -4 39 11 43 50 13 29 -23 71 -19 81 7 8 19 -50 107 -103 158 -38 37 -50 63 -34 78 3 4 48 7 99 7 89 0 93 -1 114 -27z m-599 1 c7 -9 18 -26 24 -37 17 -34 38 -31 80 13 47 46 61 49 77 15 10 -23 8 -29 -25 -63 -20 -21 -37 -44 -37 -52 0 -18 40 -60 57 -60 10 0 13 -9 11 -27 -5 -42 -35 -42 -70 1 -35 43 -56 45 -89 10 -35 -38 -57 -48 -75 -33 -8 6 -14 19 -14 27 0 20 49 72 67 72 25 0 13 29 -27 63 -52 44 -53 83 -4 86 6 1 18 -6 25 -15z m-932 -48 c6 -7 9 -21 5 -30 -9 -22 22 -32 52 -15 20 10 29 10 44 1 24 -15 67 -16 75 -2 10 15 51 12 66 -6 25 -31 0 -47 -76 -48 -39 -1 -75 2 -82 7 -6 5 -27 7 -45 5 -29 -3 -33 -6 -30 -30 3 -34 -29 -56 -49 -32 -17 21 -69 48 -94 48 -15 1 -20 8 -20 31 0 25 5 31 37 40 21 6 46 18 55 27 22 20 47 22 62 4z"/>
 <path d="M7425 4790 c-4 -6 -104 -10 -266 -10 l-259 0 0 -54 c0 -30 -4 -58 -10 -61 -6 -4 -5 -13 3 -25 9 -16 9 -24 -1 -40 -14 -24 -16 -126 -2 -135 13 -8 13 -118 -1 -132 -8 -8 -7 -17 3 -32 10 -17 10 -25 1 -41 -8 -12 -9 -21 -3 -25 13 -8 13 -68 -1 -82 -8 -8 -8 -13 0 -17 14 -9 14 -63 1 -71 -5 -3 -10 -44 -10 -90 0 -46 5 -87 10 -90 6 -3 10 -17 10 -30 0 -13 -4 -27 -10 -30 -15 -9 -13 -188 2 -203 10 -10 10 -17 -1 -33 -9 -15 -10 -24 -2 -32 15 -15 14 -90 -1 -105 -9 -9 -9 -15 0 -24 17 -17 17 -809 0 -826 -10 -10 -10 -17 0 -32 16 -25 18 -2095 2 -2105 -5 -3 -10 -28 -10 -55 0 -27 5 -52 10 -55 6 -3 10 -17 10 -30 0 -13 -4 -27 -10 -30 -16 -10 -10 -67 9 -100 l18 -30 1399 0 1399 0 3 125 c1 68 7 129 12 134 16 16 13 1691 -2 1716 -10 15 -9 24 2 45 11 21 12 30 2 45 -17 27 -16 253 0 280 10 16 10 24 0 40 -16 26 -17 571 -1 587 8 8 8 13 0 17 -14 9 -15 232 -1 241 13 8 13 78 0 91 -7 7 -9 230 -8 650 l3 639 -24 13 c-28 14 -197 17 -206 2 -4 -6 -63 -10 -145 -10 -82 0 -141 4 -145 10 -3 6 -24 10 -45 10 -21 0 -42 -4 -45 -10 -9 -14 -79 -12 -93 2 -10 10 -17 10 -32 0 -23 -14 -116 -16 -125 -2 -8 13 -1432 13 -1440 0z m956 -430 c10 -6 19 -16 19 -22 0 -6 8 -17 18 -24 16 -13 16 -15 -1 -28 -17 -13 -17 -16 3 -67 27 -68 17 -99 -33 -99 -18 0 -38 5 -45 12 -8 8 -15 8 -26 -1 -8 -7 -34 -11 -58 -9 l-43 3 3 39 c2 22 -6 66 -19 103 -21 57 -21 65 -7 79 23 23 67 8 75 -25 6 -28 52 -111 60 -111 3 0 2 15 -2 33 -24 105 -4 149 56 117z m-487 -16 c9 -23 -21 -74 -44 -74 -16 0 -50 24 -50 35 0 2 4 15 10 29 8 21 16 26 44 26 21 0 36 -6 40 -16z m-512 -25 c2 -7 12 -7 30 1 15 7 38 10 53 6 24 -6 65 -58 65 -82 0 -22 -32 -24 -60 -4 -15 11 -30 17 -33 14 -9 -9 16 -44 30 -44 14 0 54 -80 47 -92 -3 -4 -19 -7 -37 -7 -18 1 -42 -2 -54 -6 -28 -9 -100 53 -90 78 7 19 42 23 52 7 3 -5 11 -10 17 -10 5 0 -11 20 -36 45 -45 44 -52 58 -40 89 7 18 50 22 56 5z m504 -137 c6 -4 9 -21 7 -38 -4 -28 -8 -31 -40 -30 -22 1 -38 8 -45 20 -19 34 42 72 78 48z m493 -639 c15 -16 35 -48 43 -73 32 -90 48 -149 48 -180 0 -29 -2 -31 -32 -28 -29 3 -34 8 -48 53 -23 74 -43 115 -58 115 -8 0 -10 -5 -5 -12 15 -24 33 -83 33 -109 0 -49 -56 -73 -94 -40 -24 21 -48 69 -41 81 3 6 15 10 26 10 17 0 19 5 14 34 -6 27 -2 39 14 55 12 12 29 21 40 21 24 0 36 39 14 47 -11 4 -24 -4 -38 -21 -19 -24 -26 -26 -43 -17 -13 7 -19 20 -18 38 2 44 13 53 67 53 42 0 55 -5 78 -27z m397 -58 c4 -8 19 -29 36 -47 l29 -31 42 41 c45 44 67 51 86 28 15 -18 4 -41 -38 -79 -17 -15 -31 -32 -31 -37 0 -6 16 -25 35 -43 38 -34 44 -57 20 -77 -18 -15 -43 -7 -52 17 -9 28 -34 53 -52 53 -8 0 -32 -16 -52 -36 -30 -30 -42 -35 -63 -30 -37 9 -32 32 14 73 46 41 46 57 -1 111 -32 37 -34 43 -17 60 17 17 37 15 44 -3z m-1368 -17 c9 -9 15 -9 24 0 21 21 55 13 87 -20 34 -35 38 -70 9 -76 -9 -2 -26 7 -37 19 -15 17 -24 20 -32 12 -8 -8 -4 -16 15 -28 14 -10 26 -21 26 -27 0 -5 12 -19 27 -32 44 -38 27 -54 -58 -52 -76 2 -87 8 -104 64 -5 17 -2 22 12 22 11 0 24 -5 31 -12 6 -6 14 -9 18 -5 3 3 -15 26 -41 51 -39 38 -46 51 -41 71 7 27 42 35 64 13z m1991 -14 c21 -18 30 -33 29 -51 -4 -39 -26 -39 -58 -2 -24 29 -29 31 -35 17 -4 -10 0 -27 9 -40 9 -12 16 -31 16 -42 0 -18 1 -18 18 -3 25 23 39 21 57 -7 33 -50 -27 -95 -80 -60 -25 16 -28 16 -36 1 -23 -41 -126 16 -126 69 0 32 39 33 61 2 20 -28 24 -22 18 30 -3 30 -7 40 -16 33 -6 -5 -22 -8 -36 -7 -22 1 -25 6 -25 36 0 32 3 35 33 38 18 2 39 -1 45 -6 8 -7 18 -6 31 4 29 21 61 17 95 -12z m-1521 -38 c-3 -16 0 -27 9 -30 25 -10 101 -7 108 4 9 15 98 12 119 -3 10 -7 16 -22 14 -33 -3 -17 -11 -19 -90 -16 -48 2 -105 1 -128 -3 -34 -6 -39 -9 -29 -21 10 -12 9 -18 -4 -31 -14 -14 -20 -13 -63 16 -26 17 -55 31 -64 31 -17 0 -40 18 -40 32 0 4 17 15 38 24 20 10 48 26 61 36 13 10 35 18 49 18 20 0 24 -4 20 -24z m487 -708 c30 -13 58 -56 75 -113 43 -146 48 -170 38 -182 -13 -17 -44 -17 -55 0 -10 16 -44 107 -47 127 -4 27 -18 42 -28 32 -6 -6 -4 -22 5 -45 18 -41 20 -103 4 -115 -24 -18 -63 -7 -95 26 -37 38 -38 65 -4 70 17 3 22 10 23 35 2 61 3 62 41 65 35 3 37 4 26 28 -14 30 -25 30 -48 2 -15 -19 -22 -21 -37 -12 -26 16 -25 56 0 76 26 20 65 23 102 6z m935 -5 c37 -25 46 -41 75 -123 15 -41 34 -92 43 -113 14 -35 14 -39 0 -54 -32 -31 -62 -10 -91 65 -15 38 -27 75 -27 81 0 6 -7 11 -15 11 -18 0 -19 -12 -4 -27 14 -14 18 -122 5 -131 -26 -16 -65 -9 -89 17 -34 35 -38 63 -10 75 17 8 20 16 16 37 -9 44 12 69 57 69 40 0 53 13 25 24 -8 3 -15 12 -15 21 0 8 -4 15 -10 15 -5 0 -10 -7 -10 -15 0 -9 -11 -20 -25 -27 -30 -14 -55 3 -55 38 0 48 81 71 130 37z m-483 -103 c20 -22 42 -40 48 -40 14 0 50 38 58 63 8 22 45 19 60 -5 9 -13 3 -24 -26 -54 -20 -21 -37 -45 -37 -53 0 -8 16 -32 36 -52 39 -40 40 -60 6 -78 -17 -9 -26 -4 -60 29 -22 22 -43 40 -47 40 -4 0 -23 -14 -42 -31 -40 -34 -76 -36 -81 -3 -2 14 8 30 27 47 40 33 39 51 -5 99 -34 38 -35 41 -18 59 25 28 41 24 81 -21z m-1309 -7 c18 -20 32 -43 30 -52 -5 -26 -35 -24 -62 6 l-26 28 0 -30 c1 -29 29 -93 30 -67 0 9 11 12 33 10 27 -2 33 -8 35 -31 2 -16 -1 -34 -8 -41 -11 -14 -57 -16 -77 -3 -8 5 -26 1 -43 -10 -29 -17 -32 -17 -63 0 -19 10 -41 32 -51 49 -16 27 -17 32 -3 45 19 19 54 9 62 -18 4 -11 11 -19 17 -17 11 4 11 4 -4 44 -10 29 -14 31 -35 21 -33 -15 -54 6 -50 52 2 33 5 36 35 39 18 2 39 -1 45 -6 8 -7 18 -6 30 3 32 23 70 15 105 -22z m366 -30 c-1 -23 2 -23 111 -23 73 0 115 -4 123 -12 13 -13 16 -48 5 -49 -52 -5 -151 -3 -160 4 -6 5 -27 7 -45 5 -27 -2 -33 -7 -33 -27 0 -32 -32 -52 -48 -31 -15 19 -66 44 -91 45 -27 0 -43 29 -27 49 8 9 21 16 31 16 9 0 32 11 51 24 43 31 84 30 83 -1z m-493 -805 l15 -47 23 45 c21 44 24 46 53 40 38 -8 78 -42 78 -68 0 -23 -26 -34 -44 -19 -10 9 -17 5 -31 -16 -18 -26 -18 -27 11 -51 16 -13 42 -28 57 -34 20 -7 27 -16 25 -31 -2 -17 -11 -22 -42 -24 -32 -2 -43 3 -67 29 -16 18 -31 30 -33 27 -5 -5 28 -106 38 -116 3 -3 6 -17 6 -29 0 -27 -26 -38 -73 -29 -34 7 -34 7 -32 58 1 29 -1 57 -5 62 -4 6 -15 35 -25 65 -10 30 -24 73 -31 95 -24 69 -14 95 35 92 22 -2 29 -10 42 -49z m1007 32 c25 0 32 -4 32 -20 0 -11 -4 -20 -10 -20 -5 0 -11 -60 -12 -146 -4 -176 -8 -184 -85 -142 -55 31 -66 54 -30 67 24 9 25 13 26 106 0 92 -1 96 -24 107 -48 22 -21 63 35 54 19 -3 50 -6 68 -6z m-510 -84 l-3 -31 64 -3 c36 -2 69 2 74 7 12 12 86 14 103 3 14 -9 15 -43 1 -59 -11 -15 -53 -17 -62 -3 -7 11 -90 13 -148 4 -30 -5 -35 -9 -26 -20 15 -18 4 -44 -19 -44 -10 0 -32 11 -48 25 -16 14 -43 28 -61 31 -18 3 -38 12 -44 20 -17 20 16 54 52 54 15 0 37 10 50 24 12 13 33 24 46 24 21 0 24 -5 21 -32z m-475 -698 c58 -30 96 -96 133 -226 19 -67 14 -94 -19 -100 -20 -4 -57 36 -57 63 0 30 -50 126 -61 119 -6 -4 -6 -10 0 -18 6 -7 12 -27 14 -44 2 -18 7 -35 10 -39 25 -24 -28 -89 -63 -78 -47 15 -91 115 -50 115 16 0 18 5 14 28 -7 36 28 82 62 82 17 0 24 5 24 20 0 11 -6 20 -13 20 -7 0 -18 -9 -25 -20 -22 -35 -82 -20 -82 21 0 24 46 69 70 69 12 0 31 -5 43 -12z m997 -106 c41 -38 41 -38 44 -117 3 -93 -12 -143 -52 -172 -37 -28 -104 -24 -137 7 -30 28 -58 87 -49 101 3 6 1 22 -6 34 -33 61 51 185 125 185 26 0 45 -10 75 -38z m-540 -47 c0 -24 0 -24 117 -27 l118 -3 2 -27 c1 -16 -1 -28 -5 -29 -46 -5 -140 -3 -149 4 -6 4 -29 7 -50 5 -35 -3 -38 -5 -38 -33 0 -40 -22 -42 -74 -8 -23 15 -52 28 -64 28 -16 0 -22 7 -24 27 -1 24 3 29 35 38 20 5 48 19 62 30 36 29 70 26 70 -5z"/>
 <path d="M8307 863 c-23 -80 -18 -190 10 -200 26 -10 33 18 31 117 -3 79 -6 95 -20 98 -9 2 -19 -5 -21 -15z"/>
 <path d="M5500 6789 c0 -17 7 -46 16 -65 14 -29 19 -32 31 -22 17 14 13 79 -7 103 -21 25 -40 18 -40 -16z"/>
 <path d="M3904 5710 c-6 -6 -381 -11 -1021 -13 -556 -3 -1016 -7 -1022 -11 -8 -5 -11 -294 -11 -1057 l0 -1050 628 0 c345 0 636 0 647 0 11 0 349 0 752 0 581 0 733 3 740 13 4 7 8 484 9 1059 l0 1047 -135 1 c-81 1 -140 6 -148 12 -10 9 -17 8 -29 -2 -20 -16 -292 -15 -308 1 -13 13 -89 13 -102 0z m-1577 -415 c26 -18 59 -86 69 -139 4 -22 16 -54 26 -72 15 -25 17 -37 9 -52 -24 -46 -65 -34 -76 21 -9 45 -43 117 -55 117 -14 0 -13 -15 7 -69 15 -44 15 -48 -1 -73 -22 -33 -52 -32 -90 3 -32 30 -32 64 0 63 18 0 19 3 10 37 -13 50 11 89 55 89 30 0 31 1 17 22 -21 31 -36 33 -40 6 -2 -17 -10 -23 -27 -23 -30 0 -46 24 -37 58 6 25 10 27 59 27 30 0 62 -6 74 -15z m959 -3 c33 -27 62 -83 67 -130 3 -24 10 -48 15 -55 6 -7 12 -32 14 -57 3 -40 1 -45 -19 -48 -23 -3 -21 -6 -78 126 -10 23 -22 42 -27 42 -12 0 -10 -9 9 -63 16 -44 16 -50 1 -75 -24 -38 -56 -37 -95 5 -18 19 -33 40 -33 48 0 17 21 25 41 14 17 -9 19 10 4 44 -13 32 11 67 46 67 28 0 31 3 25 23 -3 12 -6 25 -6 30 0 17 -21 5 -32 -18 -13 -29 -34 -32 -60 -8 -22 20 -23 31 -1 55 22 24 100 24 129 0z m855 -32 c11 -7 21 -26 25 -50 4 -22 9 -40 13 -40 4 0 15 19 26 43 24 51 45 57 90 22 34 -25 48 -68 23 -64 -38 5 -54 -3 -67 -32 -7 -16 -12 -31 -10 -32 11 -7 76 -36 91 -41 22 -6 19 -45 -4 -57 -20 -11 -88 13 -88 30 0 6 -8 15 -18 20 -15 8 -18 6 -17 -7 0 -10 5 -23 9 -30 4 -7 5 -16 2 -19 -3 -3 1 -15 9 -27 20 -27 19 -75 -1 -83 -8 -3 -29 -1 -47 4 -30 8 -32 12 -33 57 -1 26 -16 97 -34 157 -28 91 -31 113 -22 134 13 27 23 30 53 15z m-1348 -100 l-1 -25 114 3 114 3 12 -26 c17 -39 1 -45 -128 -45 -108 0 -111 -1 -110 -22 1 -30 -30 -35 -58 -9 -12 11 -36 24 -54 27 -17 4 -37 13 -43 20 -13 16 -5 43 13 48 73 21 98 31 102 43 10 24 41 10 39 -17z m1123 -34 c15 -12 17 -18 8 -33 -6 -10 -19 -18 -28 -17 -9 0 -79 1 -156 2 -146 2 -162 7 -146 47 8 22 293 22 322 1z m-1680 -728 c7 -5 15 -29 19 -55 7 -50 16 -48 34 8 18 57 80 60 116 5 21 -32 12 -47 -28 -43 -23 1 -31 -2 -29 -12 1 -7 -3 -20 -10 -28 -10 -12 -8 -18 12 -34 14 -10 32 -19 41 -19 8 0 23 -6 33 -13 15 -11 17 -17 7 -35 -19 -35 -67 -26 -114 21 -20 20 -22 20 -25 4 -2 -10 6 -38 17 -62 12 -25 21 -55 21 -68 0 -20 -5 -23 -47 -22 l-48 0 0 55 c0 30 -6 65 -13 77 -7 12 -13 34 -15 50 -2 15 -9 38 -15 49 -15 28 -26 99 -19 118 6 16 44 18 63 4z m957 -2 c8 -8 17 -34 21 -57 8 -47 17 -43 36 14 7 21 18 41 26 44 19 7 80 -23 88 -43 14 -36 7 -47 -24 -40 -25 4 -30 2 -30 -14 0 -10 -4 -22 -10 -25 -20 -13 -9 -31 30 -48 22 -9 44 -17 49 -17 15 0 22 -32 10 -46 -20 -24 -66 -16 -106 19 -28 24 -35 27 -29 12 5 -11 10 -27 11 -35 1 -8 8 -28 14 -44 7 -16 13 -38 14 -49 3 -25 -25 -43 -49 -32 -11 4 -26 9 -34 9 -11 1 -16 16 -18 56 -1 30 -18 104 -38 164 -33 103 -34 109 -18 127 20 23 38 24 57 5z m602 -17 c19 -35 7 -59 -29 -59 -44 0 -59 39 -29 72 23 26 40 22 58 -13z m523 -5 c16 -11 22 -25 22 -50 l0 -35 -57 6 -58 7 31 -33 c45 -50 74 -102 70 -129 -5 -47 -24 -77 -59 -93 -43 -21 -60 -21 -96 -3 -37 20 -53 41 -57 76 -3 27 -1 30 25 30 17 0 31 -6 35 -16 8 -20 55 -15 70 8 8 14 7 24 -3 40 -8 13 -21 35 -28 49 -7 14 -30 39 -52 57 -26 21 -40 41 -43 62 -3 16 -2 32 0 35 3 3 44 5 91 5 62 0 93 -4 109 -16z m-1551 -60 c3 -9 1 -25 -6 -35 -9 -15 -8 -19 3 -19 8 0 18 5 21 10 3 6 51 10 109 10 111 0 138 -11 118 -46 -9 -16 -23 -18 -106 -15 -110 3 -136 -3 -136 -30 0 -31 -24 -32 -65 -5 -21 14 -44 26 -51 26 -17 0 -48 46 -39 60 3 5 16 10 28 10 12 0 40 11 62 25 48 29 54 30 62 9z m1158 -59 l0 -30 -67 3 c-80 5 -94 -1 -73 -31 19 -27 20 -66 2 -73 -8 -3 -26 0 -40 5 -32 12 -35 41 -7 66 11 10 18 21 16 24 -3 4 -31 6 -63 4 -90 -4 -102 5 -84 65 1 1 72 1 159 0 l157 -3 0 -30z"/>
 <path d="M386 4994 c-7 -19 20 -54 41 -54 19 0 16 34 -5 53 -23 21 -28 21 -36 1z"/>
 <path d="M336 4301 c-20 -22 -20 -30 0 -69 21 -43 33 -48 55 -25 19 18 19 19 -1 60 -25 52 -33 57 -54 34z"/>
 <path d="M355 4150 c-7 -11 31 -70 46 -70 10 0 12 24 3 58 -6 23 -38 30 -49 12z"/>
 <path d="M5470 4282 c0 -27 15 -52 32 -52 13 0 9 55 -4 68 -19 19 -28 14 -28 -16z"/>
 <path d="M5716 3402 c-2 -4 6 -18 20 -31 22 -21 24 -22 24 -4 0 30 -31 55 -44 35z"/>
 <path d="M5476 3453 c-12 -12 -6 -41 13 -64 18 -22 20 -22 26 -6 14 35 -18 91 -39 70z"/>
 <path d="M5500 2572 c0 -27 15 -52 32 -52 11 0 10 38 -2 61 -15 28 -30 23 -30 -9z"/>
 <path d="M5515 1748 c-11 -29 -1 -73 18 -76 21 -4 22 14 3 59 -11 27 -16 30 -21 17z"/>
 <path d="M5530 874 c0 -16 6 -39 14 -50 13 -17 16 -17 30 -4 15 14 13 19 -14 50 l-29 35 -1 -31z"/>
 </g>

</svg>