<!DOCTYPE svg PUBLIC "-//W3C//DTD SVG 20010904//EN" "http://www.w3.org/TR/2001/REC-SVG-20010904/DTD/svg10.dtd">
<svg version="1.0" xmlns="http://www.w3.org/2000/svg" width="488px" height="270px" viewBox="0 0 4880 2700" preserveAspectRatio="xMidYMid meet">
<g id="layer101" fill="#2d2d2d" stroke="none">
 <path d="M3805 2549 c-303 -7 -1149 -16 -2368 -25 l-819 -6 -26 -23 -26 -22 2 -529 c2 -745 12 -1576 18 -1597 13 -40 31 -42 474 -42 234 0 560 3 725 7 249 7 2710 32 2827 29 60 -1 63 9 63 213 0 587 -9 1731 -14 1834 -9 179 14 167 -319 167 -147 0 -388 -3 -537 -6z m731 -77 l41 -2 7 -562 c9 -796 11 -1467 4 -1474 -4 -3 -46 -7 -95 -9 -96 -3 -1860 -28 -1908 -27 -95 2 -490 0 -495 -3 -3 -2 -326 -6 -718 -10 l-712 -6 -1 173 c0 225 -7 866 -14 1429 l-6 446 47 7 c26 3 255 6 509 6 254 0 745 4 1091 10 346 5 948 11 1337 14 389 2 709 5 712 7 4 4 120 4 201 1z"/>
 <path d="M1916 2049 c-27 -21 -32 -55 -17 -109 5 -19 2 -29 -14 -42 -20 -16 -20 -17 10 -48 37 -39 70 -48 94 -26 16 15 19 15 31 1 32 -38 90 -1 90 59 0 67 -92 186 -144 186 -13 0 -35 -9 -50 -21z m110 -127 c4 -13 2 -28 -4 -34 -6 -6 -15 6 -26 38 -9 26 -16 52 -16 58 1 17 39 -36 46 -62z"/>
 <path d="M1017 2040 c-34 -27 -41 -52 -27 -96 9 -26 9 -39 1 -47 -22 -22 -12 -55 23 -76 40 -25 59 -26 76 -6 12 14 15 14 30 0 22 -20 43 -19 63 3 25 28 31 73 13 107 -9 17 -16 35 -16 41 0 21 -89 94 -113 94 -14 0 -36 -9 -50 -20z m104 -117 c8 -24 8 -38 1 -45 -12 -12 -42 49 -42 84 0 30 26 5 41 -39z"/>
 <path d="M2336 2041 c-21 -23 -13 -43 30 -76 19 -14 34 -31 34 -37 0 -6 -16 -28 -36 -50 -41 -46 -43 -81 -4 -86 18 -2 35 7 60 33 18 19 40 35 47 35 8 0 27 -16 44 -35 32 -36 56 -44 77 -23 21 21 13 41 -30 79 l-43 37 43 44 c43 45 51 65 30 86 -20 20 -41 14 -84 -29 l-42 -41 -37 41 c-41 45 -63 51 -89 22z"/>
 <path d="M2801 2024 c-21 -27 -20 -35 7 -67 12 -13 13 -20 4 -29 -21 -21 -13 -41 30 -85 48 -49 55 -51 91 -23 22 17 26 18 37 5 37 -44 114 7 94 63 -10 29 -46 41 -68 23 -10 -8 -16 -5 -24 15 -7 14 -12 34 -12 46 0 18 3 17 30 -12 25 -26 32 -30 50 -20 29 15 25 34 -15 75 -39 39 -85 47 -115 20 -15 -14 -18 -14 -30 0 -19 23 -56 18 -79 -11z m84 -109 l7 -30 -24 25 c-17 18 -21 29 -15 38 13 16 22 6 32 -33z"/>
 <path d="M1469 1985 c-8 -9 -38 -24 -65 -33 -35 -13 -49 -23 -49 -37 0 -19 17 -31 85 -60 19 -8 43 -20 52 -27 15 -10 21 -10 34 4 15 14 15 19 4 33 -13 15 -3 16 111 14 130 -3 149 1 149 30 0 35 -21 41 -136 41 -109 0 -113 1 -116 23 -4 27 -46 35 -69 12z"/>
 <path d="M2894 1216 c-41 -18 -50 -44 -25 -70 19 -18 24 -19 57 -7 31 11 38 11 51 -2 19 -19 8 -57 -15 -57 -21 0 -62 -27 -62 -41 0 -5 16 -19 35 -30 20 -12 35 -29 35 -40 0 -24 -27 -25 -59 -3 -22 16 -24 15 -44 -4 l-20 -21 40 -40 c34 -34 47 -41 80 -41 30 0 46 7 67 29 27 28 28 33 22 85 -6 43 -4 61 8 78 25 35 20 73 -15 113 -55 62 -97 76 -155 51z"/>
 <path d="M3107 1212 c-24 -27 -21 -59 8 -78 51 -33 104 21 71 71 -20 30 -56 33 -79 7z"/>
 <path d="M3244 1209 c-19 -21 -18 -21 4 -39 20 -17 22 -27 22 -114 0 -86 -2 -96 -21 -106 -19 -10 -19 -13 -5 -28 8 -9 31 -26 51 -36 63 -34 70 -21 73 135 1 76 7 144 14 156 18 35 -4 53 -67 53 -40 0 -56 -5 -71 -21z"/>
 <path d="M3542 1218 c-7 -7 -12 -25 -12 -41 0 -28 -2 -29 -36 -24 -48 8 -84 -7 -84 -34 0 -23 116 -203 155 -239 20 -18 26 -20 45 -10 22 12 23 16 17 104 l-6 91 29 17 c37 21 38 42 5 64 -14 9 -25 26 -25 38 0 12 -5 27 -12 34 -15 15 -61 15 -76 0z m-5 -163 c9 -25 -4 -29 -17 -6 -7 15 -7 21 0 21 6 0 13 -7 17 -15z"/>
 <path d="M3693 1214 c-3 -8 -1 -25 5 -37 6 -12 14 -62 17 -110 6 -77 5 -91 -11 -108 -23 -25 -13 -43 38 -73 29 -16 41 -19 55 -10 15 9 17 29 18 146 0 119 2 138 19 157 15 17 16 23 6 36 -18 22 -138 21 -147 -1z"/>
 <path d="M3922 1196 c-37 -34 -37 -35 -37 -114 0 -77 1 -80 38 -126 60 -73 155 -109 186 -72 18 21 -3 56 -34 56 -13 0 -37 11 -52 25 l-28 24 31 1 c21 0 40 10 62 33 27 28 32 41 32 80 0 40 -5 53 -36 87 -32 35 -42 40 -80 40 -36 0 -51 -6 -82 -34z m98 -70 c0 -44 -9 -66 -26 -66 -10 0 -14 13 -14 43 0 46 5 57 27 57 8 0 13 -12 13 -34z"/>
 <path d="M1027 1190 c-30 -24 -34 -53 -13 -112 11 -31 11 -38 0 -42 -20 -7 -17 -40 4 -58 37 -33 62 -40 85 -25 19 12 25 12 45 -1 21 -14 25 -13 47 8 50 47 25 150 -52 214 -44 37 -82 43 -116 16z m108 -113 c13 -30 10 -57 -5 -57 -4 0 -10 12 -13 28 -3 15 -9 38 -13 51 -11 35 14 17 31 -22z"/>
 <path d="M2576 1170 c-43 -48 -60 -50 -81 -10 -13 26 -21 30 -56 30 -59 0 -62 -24 -11 -72 23 -21 42 -41 42 -44 0 -3 -16 -24 -35 -47 -44 -51 -43 -81 1 -85 27 -3 34 2 52 32 12 20 29 36 38 36 9 0 33 -19 54 -42 32 -36 41 -41 56 -32 40 24 41 41 1 82 -20 21 -37 45 -37 53 0 8 16 30 35 49 40 39 42 50 17 73 -27 24 -36 22 -76 -23z"/>
 <path d="M1927 1162 c-33 -35 -33 -42 -2 -72 21 -20 29 -22 45 -13 19 13 30 1 30 -34 0 -14 -2 -14 -19 1 -23 21 -65 18 -69 -4 -1 -9 14 -35 33 -58 40 -46 75 -54 107 -25 17 15 19 15 36 0 39 -36 97 -5 90 49 -4 36 -31 53 -58 36 -19 -12 -22 -9 -36 24 -19 45 -9 58 18 21 23 -31 34 -33 59 -11 15 13 16 21 7 38 -33 64 -90 90 -134 61 -23 -15 -28 -15 -49 -1 -31 20 -27 21 -58 -12z"/>
 <path d="M1492 1135 c-16 -14 -47 -28 -67 -33 -75 -15 -72 -67 5 -89 24 -7 54 -23 67 -35 19 -18 27 -20 41 -11 9 6 17 20 16 31 0 18 8 21 77 27 43 4 90 4 106 1 38 -9 74 25 56 52 -9 15 -28 17 -132 16 -87 -1 -119 2 -112 9 17 17 13 35 -8 47 -16 8 -26 5 -49 -15z"/>
 <path d="M144 2009 c-16 -18 -14 -22 54 -93 66 -67 72 -78 72 -115 0 -35 -3 -41 -22 -41 -12 0 -32 10 -45 22 -19 18 -28 20 -41 12 -27 -18 -25 -40 8 -77 58 -67 121 -69 173 -7 44 51 34 105 -33 182 -29 34 -38 49 -25 44 42 -16 75 -18 90 -6 21 18 19 43 -7 67 -19 17 -41 22 -115 26 -81 4 -94 2 -109 -14z"/>
 <path d="M210 1162 l-23 -19 20 -20 c16 -16 21 -39 27 -117 6 -78 5 -96 -6 -96 -23 0 -38 -21 -28 -40 11 -20 95 -54 115 -46 12 4 15 31 15 142 0 115 3 140 17 156 24 26 2 44 -63 53 -41 5 -54 3 -74 -13z"/>
 </g>
<g id="layer102" fill="#fefefe" stroke="none">
 <path d="M0 1350 l0 -1350 2440 0 2440 0 0 1350 0 1350 -2440 0 -2440 0 0 -1350z m4622 1172 c20 -20 25 -187 27 -944 0 -381 4 -776 7 -878 4 -102 4 -220 0 -263 l-8 -76 -36 0 c-117 3 -2577 -22 -2827 -29 -165 -4 -492 -7 -727 -7 -366 0 -429 2 -442 15 -13 13 -16 93 -21 550 -3 294 -6 771 -7 1059 -2 484 0 525 15 536 14 10 204 14 835 19 1218 9 2064 18 2367 25 470 11 802 8 817 -7z m-4264 -535 c6 -5 12 -18 12 -28 0 -22 -22 -24 -69 -8 -17 6 -38 8 -47 5 -12 -5 -5 -18 35 -63 59 -66 75 -125 47 -168 -35 -54 -113 -52 -156 2 -36 46 -14 76 25 33 20 -22 55 -26 73 -8 7 7 12 30 12 51 0 35 -8 47 -71 112 -39 41 -68 78 -65 83 7 12 187 3 204 -11z m-19 -843 c2 -2 -3 -12 -12 -22 -14 -15 -17 -42 -17 -150 0 -73 -4 -132 -9 -132 -15 0 -79 29 -85 39 -4 5 4 11 16 13 22 3 23 5 20 108 -3 88 -7 108 -24 126 -15 17 -16 23 -6 27 13 6 109 -2 117 -9z"/>
 <path d="M4335 2491 c-2 -1 -264 -5 -582 -7 -318 -2 -1008 -8 -1533 -14 -525 -6 -1099 -12 -1275 -13 l-320 -2 2 -300 c4 -822 14 -1779 19 -1787 5 -8 1431 -1 1444 7 5 3 400 5 495 3 52 -1 1815 24 1914 27 52 2 98 8 104 14 11 11 12 533 1 1489 -6 455 -10 564 -21 573 -12 10 -239 20 -248 10z m-2318 -465 c74 -62 99 -196 37 -196 -32 0 -41 25 -19 50 22 24 15 54 -24 100 -23 28 -32 32 -42 23 -10 -10 -9 -24 5 -71 21 -69 19 -96 -10 -100 -20 -3 -74 32 -74 48 0 4 10 10 21 13 16 4 20 11 15 23 -4 10 -10 38 -13 63 -5 36 -3 46 12 57 28 21 60 17 92 -10z m-892 -17 c19 -17 35 -36 35 -41 0 -5 7 -25 16 -44 22 -45 9 -97 -24 -102 -17 -3 -22 2 -22 20 0 13 5 29 11 35 25 25 -42 136 -70 118 -16 -9 -14 -40 6 -94 26 -73 0 -104 -55 -65 -21 14 -33 52 -13 39 18 -11 21 13 6 55 -20 55 -19 66 5 90 29 29 64 25 105 -11z m1299 -11 l35 -43 43 43 c24 23 51 42 61 42 30 0 19 -37 -23 -73 -22 -19 -40 -39 -40 -44 0 -6 18 -27 40 -47 22 -20 40 -43 40 -51 0 -27 -39 -16 -66 20 -34 45 -61 45 -97 0 -29 -36 -67 -47 -67 -20 0 9 16 31 35 51 19 19 35 41 35 48 0 7 -18 29 -40 50 -40 37 -46 47 -33 59 16 17 44 4 77 -35z m456 17 c12 -14 15 -14 30 0 26 24 74 19 104 -11 28 -28 32 -39 17 -49 -5 -3 -23 9 -39 26 -51 55 -71 6 -31 -73 19 -37 23 -40 34 -25 14 19 40 22 50 6 4 -5 4 -21 1 -35 -5 -18 -13 -24 -35 -24 -16 0 -34 7 -41 15 -11 13 -15 12 -37 -5 -14 -11 -31 -20 -36 -20 -18 0 -77 63 -77 82 0 26 12 22 43 -14 19 -21 31 -28 38 -21 12 12 3 74 -15 99 -11 14 -15 15 -35 3 -20 -12 -24 -12 -36 5 -30 40 33 79 65 41z m-1362 -57 c-3 -23 -1 -23 125 -26 114 -2 128 -4 125 -19 -3 -15 -17 -17 -129 -14 -127 3 -157 -5 -130 -32 6 -6 11 -15 11 -19 0 -13 -27 -9 -40 6 -6 8 -34 22 -61 31 -28 10 -49 21 -47 27 2 6 21 16 42 23 22 8 46 21 55 29 24 25 53 21 49 -6z m1472 -763 c63 -32 87 -96 54 -143 -12 -17 -14 -35 -8 -78 8 -69 -9 -94 -68 -94 -31 0 -46 7 -70 31 -39 38 -26 58 20 32 64 -36 97 33 35 72 -40 25 -41 34 -2 42 57 11 75 78 28 104 -14 7 -29 7 -54 -2 -56 -21 -76 19 -21 41 31 13 54 12 86 -5z m185 -6 c9 -28 -16 -53 -44 -44 -20 6 -29 43 -14 58 15 15 52 6 58 -14z m195 7 c0 -8 -4 -18 -10 -21 -6 -4 -10 -63 -10 -146 0 -118 -2 -139 -15 -139 -13 0 -51 19 -75 38 -3 2 3 8 13 13 14 9 17 26 17 114 0 94 -2 105 -21 119 -32 22 -14 36 47 36 40 0 54 -4 54 -14z m240 -16 c0 -23 6 -33 25 -42 33 -15 31 -29 -5 -50 l-30 -17 6 -89 c7 -92 -1 -117 -30 -93 -24 20 -146 208 -146 225 0 17 4 19 70 20 45 1 45 1 48 39 3 34 6 37 33 37 26 0 29 -3 29 -30z m220 23 c0 -3 -8 -15 -17 -26 -15 -16 -18 -40 -18 -153 0 -146 -1 -149 -56 -117 -32 19 -37 38 -13 47 14 5 15 20 9 114 -4 59 -11 111 -16 117 -19 19 -7 25 51 25 33 0 60 -3 60 -7z m244 -24 c20 -23 26 -42 26 -77 0 -60 -28 -92 -81 -92 -21 0 -40 -4 -43 -8 -8 -13 57 -72 89 -80 41 -11 44 -32 5 -32 -44 0 -102 33 -136 77 -26 35 -29 45 -29 116 0 74 2 80 28 103 20 17 40 24 72 24 36 0 47 -5 69 -31z m-2931 -27 c41 -38 57 -74 57 -125 0 -48 -17 -71 -44 -61 -19 7 -20 33 -1 57 18 24 4 65 -35 102 -27 25 -30 26 -36 10 -4 -9 -2 -32 4 -49 6 -17 14 -49 18 -72 7 -50 -11 -62 -57 -39 -32 17 -37 32 -14 49 13 10 13 16 0 51 -19 55 -19 92 3 105 26 15 73 3 105 -28z m1504 22 c3 -10 -8 -29 -31 -53 -20 -20 -36 -43 -36 -51 0 -8 16 -31 36 -51 23 -24 34 -43 31 -53 -10 -27 -34 -18 -67 24 -17 22 -40 40 -50 40 -11 0 -32 -16 -47 -35 -28 -35 -63 -47 -63 -22 0 7 16 32 35 54 19 23 35 45 35 50 0 5 -18 24 -40 42 -47 38 -50 51 -12 51 20 0 35 -9 50 -30 30 -40 52 -38 91 10 34 42 58 51 68 24z m-662 -20 c22 -14 26 -14 50 2 36 23 83 9 108 -34 17 -29 17 -33 3 -38 -11 -4 -24 3 -37 20 -41 52 -70 26 -45 -39 21 -53 43 -75 52 -51 3 9 15 16 26 16 16 0 19 -6 16 -32 -2 -26 -8 -34 -26 -36 -13 -2 -32 4 -43 14 -18 16 -20 16 -37 1 -30 -28 -68 -21 -96 16 -15 19 -26 37 -26 40 0 16 39 5 52 -15 8 -12 19 -18 26 -14 17 10 15 57 -3 84 -13 18 -19 20 -35 10 -14 -9 -22 -9 -34 1 -20 17 -20 30 1 53 20 22 18 22 48 2z m-454 -48 c-25 -30 -3 -35 125 -29 118 6 126 5 123 -12 -4 -16 -17 -18 -131 -20 -71 -1 -130 -4 -133 -7 -3 -3 1 -11 10 -18 19 -15 20 -40 2 -40 -8 0 -22 9 -32 20 -10 11 -38 26 -62 32 -56 14 -60 43 -8 51 20 3 50 18 67 32 21 18 34 23 41 16 7 -7 6 -15 -2 -25z"/>
 <path d="M3494 1079 c-7 -12 25 -60 44 -67 18 -6 26 26 14 54 -12 25 -45 33 -58 13z"/>
 <path d="M3976 1161 c-23 -25 -18 -99 7 -115 26 -16 57 24 57 73 0 58 -31 78 -64 42z"/>
 </g>

</svg>